<mxfile host="65bd71144e">
    <diagram name="wired-hardware" id="xdzY5XvVnriBqMGKjYFe">
        <mxGraphModel dx="2026" dy="1139" grid="1" gridSize="10" guides="1" tooltips="1" connect="1" arrows="1" fold="1" page="0" pageScale="1" pageWidth="827" pageHeight="1169" math="0" shadow="0">
            <root>
                <mxCell id="0"/>
                <mxCell id="1" parent="0"/>
                <mxCell id="3" value="" style="shape=image;verticalLabelPosition=bottom;labelBackgroundColor=default;verticalAlign=top;aspect=fixed;imageAspect=0;image=data:image/avif,AAAAHGZ0eXBhdmlmAAAAAGF2aWZtaWYxbWlhZgAAAZhtZXRhAAAAAAAAACFoZGxyAAAAAAAAAABwaWN0AAAAAAAAAAAAAAAAAAAAAA5waXRtAAAAAAABAAAANGlsb2MAAAAAREAAAgACAAAAAAG8AAEAAAAAAAAA0QABAAAAAAKNAAEAAAAAAAABmAAAADhpaW5mAAAAAAACAAAAFWluZmUCAAAAAAEAAGF2MDEAAAAAFWluZmUCAAAAAAIAAGF2MDEAAAAA12lwcnAAAACxaXBjbwAAABNjb2xybmNseAACAAIABoAAAAAMYXYxQ4EAHAAAAAAUaXNwZQAAAAAAAADAAAAAMwAAAA5waXhpAAAAAAEIAAAAOGF1eEMAAAAAdXJuOm1wZWc6bXBlZ0I6Y2ljcDpzeXN0ZW1zOmF1eGlsaWFyeTphbHBoYQAAAAAMYXYxQ4EADAAAAAAUaXNwZQAAAAAAAADAAAAAMwAAABBwaXhpAAAAAAMICAgAAAAeaXBtYQAAAAAAAAACAAEEgYYHiAACBIIDhIUAAAAaaXJlZgAAAAAAAAAOYXV4bAACAAEAAQAAAnFtZGF0EgAKBhgdb/JhUDLEAUTgAggo3UqZWXI5YVInZDMVm6TI4wkGn08aqVK6r+BJ7KlTl9I/w998j5G5an0gei4oi3pzCWzND4UulfgjKnM7Kp0cxeu+Pe7u2yCjYgnny8yQpAhExkuNBRzJNGuie81sH9GFCaw01VEWrWJHSjwuTF8HrfH8cll6doixqTtv8bYiGsCDf1BYamMNu/XmMvAtDqg0KKTQxGG6i9SyePqXq7UD/0r4AKsZRsxcsoMoVeO17qsBOY3Iz+C3zvLGhK8ol0ASAAoJGB1v8mCBAQNCMogDROAAghpQoN6RLyoiJsijRhHpLO/474mLAp0tZZ++EhGNKs7Xf6HtOKgEimmTOTUk5wVZRkpzvcHvOrUMDgkQ4V79q4kfGx2jvaoQvfqAmtzXno9QfP/pTQLHL+ST8QW7GzkOGcEDubmUDALssvnqNuj0Zg+GJsY/fKwHf4WXpNKU4JUzXM0Ww/IntM3JM9ZzjaKV3kVnaqFDplnE5Y2NwVJ2CFW4q8LkcGyTP3yYJGxQoOphkyRXKBm8BAifphp5NNfEW2tStzRfL6u31i3K2/sRVYWgxCkYqiFIeax/FoGdf3qFAwPm6r+/c6uohGNdls1rUECgSxUbir4aPCYYc/lkJ7S6+T98kEaqXOnNMlXWZww1rX+TO6M1NABXyMX7nJ4Kr+OEo/gmz7c6ap1J/TqO0kTcu/0XAbxh2+nkf494OZRukGMhv2yf9XnTwvupMR529CGBq7yv3clae3ACnBTTkM+t0U30s9Q5bZ9P4Idt6/t4hWP6CPH6ukDVmaYGEIzNfU0BTHA=;fontColor=default;" parent="1" vertex="1">
                    <mxGeometry x="600" y="390" width="192" height="51" as="geometry"/>
                </mxCell>
                <mxCell id="5" value="" style="shape=image;verticalLabelPosition=bottom;labelBackgroundColor=default;verticalAlign=top;aspect=fixed;imageAspect=0;image=https://static.ui.com/fingerprint/0/2295_129x129.png;fontColor=default;" vertex="1" parent="1">
                    <mxGeometry x="1000" y="120" width="159" height="159" as="geometry"/>
                </mxCell>
                <mxCell id="6" value="Homelab&#xa;Storage&#xa;Server&#xa;&#xa;(Zimablade 7700 NAS)" style="text;strokeColor=none;fillColor=none;align=center;verticalAlign=middle;whiteSpace=wrap;rounded=0;fontSize=14;fontStyle=1;fontColor=default;labelBackgroundColor=default;" vertex="1" parent="1">
                    <mxGeometry x="800" y="120" width="200" height="160" as="geometry"/>
                </mxCell>
                <mxCell id="8" value="" style="endArrow=classic;startArrow=classic;rounded=0;exitX=0.5;exitY=0;exitDx=0;exitDy=0;entryX=0;entryY=0.5;entryDx=0;entryDy=0;fillColor=#dae8fc;strokeColor=#6c8ebf;strokeWidth=3;edgeStyle=orthogonalEdgeStyle;fontColor=default;labelBackgroundColor=default;" edge="1" parent="1" source="e9BGIbV48YQ-_9oPhCva-7" target="3">
                    <mxGeometry width="50" height="50" relative="1" as="geometry">
                        <mxPoint x="331" y="280" as="sourcePoint"/>
                        <mxPoint x="658" y="400" as="targetPoint"/>
                    </mxGeometry>
                </mxCell>
                <mxCell id="9" value="" style="endArrow=classic;startArrow=classic;rounded=0;entryX=0.75;entryY=0;entryDx=0;entryDy=0;fillColor=#dae8fc;strokeColor=#6c8ebf;strokeWidth=3;edgeStyle=orthogonalEdgeStyle;exitX=0.5;exitY=1;exitDx=0;exitDy=0;fontColor=default;labelBackgroundColor=default;" edge="1" parent="1" source="5" target="3">
                    <mxGeometry width="50" height="50" relative="1" as="geometry">
                        <mxPoint x="1080" y="280" as="sourcePoint"/>
                        <mxPoint x="658" y="400" as="targetPoint"/>
                        <Array as="points">
                            <mxPoint x="1080" y="320"/>
                            <mxPoint x="744" y="320"/>
                        </Array>
                    </mxGeometry>
                </mxCell>
                <mxCell id="10" value="" style="shape=image;verticalLabelPosition=bottom;labelBackgroundColor=default;verticalAlign=top;aspect=fixed;imageAspect=0;image=data:image/jpeg,/9j/4AAQSkZJRgABAQEAAAAAAAD/4QAuRXhpZgAATU0AKgAAAAgAAkAAAAMAAAABAJ8AAEABAAEAAAABAAAAAAAAAAD/2wBDAAoHBwkHBgoJCAkLCwoMDxkQDw4ODx4WFxIZJCAmJSMgIyIoLTkwKCo2KyIjMkQyNjs9QEBAJjBGS0U+Sjk/QD3/2wBDAQsLCw8NDx0QEB09KSMpPT09PT09PT09PT09PT09PT09PT09PT09PT09PT09PT09PT09PT09PT09PT09PT09PT3/wAARCADmAdoDASIAAhEBAxEB/8QAHwAAAQUBAQEBAQEAAAAAAAAAAAECAwQFBgcICQoL/8QAtRAAAgEDAwIEAwUFBAQAAAF9AQIDAAQRBRIhMUEGE1FhByJxFDKBkaEII0KxwRVS0fAkM2JyggkKFhcYGRolJicoKSo0NTY3ODk6Q0RFRkdISUpTVFVWV1hZWmNkZWZnaGlqc3R1dnd4eXqDhIWGh4iJipKTlJWWl5iZmqKjpKWmp6ipqrKztLW2t7i5usLDxMXGx8jJytLT1NXW19jZ2uHi4+Tl5ufo6erx8vP09fb3+Pn6/8QAHwEAAwEBAQEBAQEBAQAAAAAAAAECAwQFBgcICQoL/8QAtREAAgECBAQDBAcFBAQAAQJ3AAECAxEEBSExBhJBUQdhcRMiMoEIFEKRobHBCSMzUvAVYnLRChYkNOEl8RcYGRomJygpKjU2Nzg5OkNERUZHSElKU1RVVldYWVpjZGVmZ2hpanN0dXZ3eHl6goOEhYaHiImKkpOUlZaXmJmaoqOkpaanqKmqsrO0tba3uLm6wsPExcbHyMnK0tPU1dbX2Nna4uPk5ebn6Onq8vP09fb3+Pn6/9oADAMBAAIRAxEAPwD2WiiigAooooAKKKKACiiigAooooAKKKKACiiigAooooAKKKKACiiigAooooAKKKKACiiigAooooAKKKKACiiigAooooAKKKKACiiigAooooAKKKKACiiigAooooAKKKKACiiigAooooAKKKKACiiigAooooAKKKKACiiigAooooAKKKKACiiigAooooAKKKKACiiigAooooAKKKKACiiigAooooAKKKKACiiigAooooAKKKKACiiigAooooAKKKKACiiigAooooAKKKKACiiigAooooAKKKKACiiigAooooAKKKKACiiigAooooAKKKKACiiigAooooAKKKKACiiigAooooAKKKKACiiigAooooAKKKKACiiigAooooAKKKKACiiigAooooAKKKKACiiigAooooAKKKKACiiigAooooAKKKKACiiigAooooAKKKKACiiigAooooAKKKKACiiigAooooAKKKKACiiigAooooAKKKKACiiigAooooAKKKKACiiigAooooAKKKKACiiigAooooAKKKKACiiigAooooAKKKKACiiigAooooAKKKKACiiigAooooAKKKKACiiigAooooAKKKKACiiigAooooAKKKKACiiigAooooAKKKKACiiigAooooAKKKKACiiigAooqKeeO3jaSZ1RFGSWOAKEr7CbSV2SUDrVDT9Vh1N5/s4JWLA3EYzn/wDVVbSPEtjq52RyeXcDrC5wfw9fwq3Tkr6bGarU3bXfY2aKKKg1CiiigAooooAKKKKACiiigAooooAKKKKACiiigAooooAKKKKACiiigAooooAKKKKACiiigAooooAKKKKACiiigAooooAKKKKACiiigAooooAKKKKACiiigAooooAKKKKACiiigAooooATvQxCgknAHes7UNctdPYI775TwI15P4+lR6zrdppRgjvkJhuSyltuVXGOo9OatU5O2m5k60EnrsVtT8UQW2Y7QCeX1H3R+Pf8K5W8v7i/k33MrOR0Xsv0Fbt34ct72IXOjzIVYZChsqfoe30/lT7LwzDaxfaNUkXgZ8vOFH1Pf/PWu+lOhSjfr+J49eli8RPle3lsO8Gg+RdnBwSoB9eDXnMoaK4bO5HVz14IOf516ZN4hit2WKxgUxqcZI2gj2H+fpTLqx0jxOmJF8q6xww+Vx/iP88VFLFqNRyktGb18ulKjGEXrE5vRfHN3Y7Yb/ddQjjdn94P8fx/Ou707VrPVYRLZzLIO47r9R2rhx8Pb0X3lm4i+zdfNHX6bfX9P5Vv28ej+FVEVuvmXTYVjnLn6nsPaniY0Z60t/InCVMRSuq+kV3Olozx0rK1bXrbRprZLvcqT7sOBkLjHX860be4iuoVlgkWSNhkMpyDXC4tJNrQ9WNSMpOKepLRRRUlhRRQeRQBmv4g0qN2R9QtlZTgqZBkEUn/AAkmkf8AQRtv+/grlbzwBd3F3PMLyACWRnAKnjJzUP8Awrq8A/4/Lf8A75Ndqo4e2szy5YjFpu1NHYf8JJpH/QRtv+/go/4STSP+gjbf9/BXlMNm02pJZAgO8vlBiOM5xn6V0w+HV4Rn7Zb/APfJrWphKFO3NPcypY7E1U+SCdjsode0yeVIor6B3c4VVcEk1o1w2meBbux1O3uWuoWWKQMVAPOK7gcCuOtCEXam7o9DDVKs43qxsxaKKKxOkKKKKACiiigAooooAKKKKACmuyohZiAoGST2p1V7/wD48Lj/AK5t/KmtXYmTsmyqviHSndVXULcsTgASDmtEfpXhy/dH0r1Dwhrn9q6aIpmzcwYV8/xDs3+e4rtxOD9lHmi7o83B5h7ebhJWfQ6Gq15qNrp6qbueOEMcKXbGas1xfxG/497H/fb+Vc1Gn7Sah3OzFVXRpOaV7HU2erWN/IY7S6ildRkqjA8Vcrzn4e/8hq4x/wA8P/ZhXo1PEUlSqOK1Jwld16Sm1YTFVrzULXT1U3U8cIY4Uu2M1ZrzTxzqH2vXPIBylsu3/gR5P9B+FPD0fbT5RYzEfV6fNa7O/tdXsb6UxWt1DK4G7ajgnFXK8g8P3/8AZut2txnCBtr/AO6eD+Wc/hXr4ORVYqh7CSSd0ycFivrMG2rNC0UVzHjHxBJpNtHb2pAuZ84b+4vr9f8A69Y06bqSUY7s6K1WNKDnLZG1eavY6f8A8fd1FEfRmAJ/CqP/AAmOh5x9uX/vhv8ACvMIYLrUrvZEklxcSHJxyT7k/wBTWv8A8ITrezd9mT/d81c16H1KjDSc7M8j+0cRUu6cLo9GstWsdQ/49LqKUjsrDP5VcHNeL3Fpd6ZchJ4pLeYcqTwfqD/hXd+DPEdzqYe0vFaR4lyJwvBHo3v/ADrKvg/Zx54O6OnC5h7Wfs6iszrqKKK4T0wooooAKKKKACiiigAoooPAoAqXuoW9hHvuJQg7DufoK5XU/E9xdbo7XNvEe4Pzn/D8Pzq7FqGj+KMxSfubxcqFbh+PQ9x7fpVX/hEbr7Vs82Pyf+enf8q7qEKUH+90fmeRi6lerZUdYvqtzDj3PMgALMzD3JrY+IysbaxYKSqs2SO3AxWwiaZ4fXCjzbjH1Y/j2pkevw3O+K/t18p+OBuGPQg9f88UTxadSMorRDo5fKNGcJPWR53pmrXmky+ZZzsmfvL1VvqK7bTfF2nazELXVI1glPQt90n2PY/Wq+qeB4LuM3OiyqpPPlE5Q/Q9vof0pNL8EW9nH9p1uVW2jJiBwg+p7/hj8a3rVMPWjzPfy3OehSxeHnyrbz2NO58OSbgbORXjb+8eV/xFTJa6foiLPeSB5eq5H8l/r/Kr2maja3okjsk2xQYUELgfgPwrJiu9G8VAru8q7UY2n5XH0/vCvPjT973k7I9WpX9xezau9uxR1PxPc3e6O1zbxHjIPzH8e34fnWNEGeeMAFmZxwOSea3P+ERuvtOwyp5H/PTv+VaijTPD6ERr5txjnnLH6nsK7nXo0o2hr/XU8mOExOIqXqu1v60MT4jKfKsGC/KC+Tjp0xXKabq97pEvmWczID95DyrfUV6HFr0N0Hh1C3Tyn46bhj3FZGq+BoLpPtOiyKM8+Sxyp+h7fQ/pSwuJpqHs6i0Ncbg63tPbUnr2L+i+NrTUAsV7i1nPqfkb6Ht9D+tdOCCoIIwe4ritM8FWljH9p1uZH28+VnCD6nv9P510ul6jb34kS1QrFCQinGAfoOwrmxEKd70r2/A7MJVq2Ua7V3t3NKiiiuY7goPQ0UHoaBM8hsP+Rqg/6/B/6HXro6CvIrD/AJGqD/r8H/odeujpXoZhvH0PKyrafqVr+8SwsZrmRWZIlLEL1IFYtn42067Sd2EsKQpvZpAMHnGBgnJq/wCJePDl/wD9cW/lXmOjaVJrOpx2kTbQfmdsfdUd/wCn41GGoQqU3KbtYrGYqrSqxhTV7nYS/Ee2EmIrGZ0/vFgD+Vamk+LtP1aVYFLQTnpHJgbvoe9Ni8E6NHB5b27SN3dnbP6Vn2vgCCLVDNLcO9qpDRxdGz7n0HtQ/qsotRumhx+vRkm7NPp2NrXPEFvoKwtcRyOJSQPLAOMfU+9WNI1WLWLBbuBHRGJADjB4OO1cx8R/9RYf7zfyFangUf8AFMQ/77/+hGolRiqCqdWzSGIm8W6XRK50VY2u+I7bQWgFxHK/nZI8sA9Mep962a4T4kcS6f8AST/2Wow1NVKijLZmuNqypUXOO6Ou0vUI9W06K7hVlSTOA3Xg47fSn3t9b6dbtcXcqxRjuT1+nrWZ4N/5FWz+jf8AoRrivFWoTaz4ha2iJZIn8mJAerdCfrnj6Crp4dVKzinZK/3GVXGOlQjO121p6nQ3HxEs0ciC0nlUd2IWpbLx/p88gS5imtyeNxG5R+I/wqXTPA+m2tsv2yP7TMR8zMxxn2Hp9az/ABJ4NtYbKS701DG8Q3NFuJVlHXGeh71qvqsnyJP1MG8dGPtG0/I7KKWOaNZInDow4YHINMvjmwuP+ubfyrivh/qr+dLpsjExlfMjB7eo/XP512t9/wAeFx/1zb+Vc1Sk6VTlZ2Ua6r0efY8VH3RWho2qyaPqkV0mSqnbIo/iU9R9e/1FUI+qfUV0vjPRP7Ovhdwri3uTyAOFfv8An1/OvcqSi2qcutz5ilCaTqx+yz0eCdLmBJomDJIoZSO4Ncf8R/8Aj2sf99v5CovAWt53aXO3TLQEnt3H9fzqX4jf8e1j/wBdG/kK8ujSdLEqLPdxFdV8E5rsZ3w8/wCQ1cf9cP8A2YV6NXnPw7/5DVx/1w/9mFejVOP/AIz+ReV/7uiC7uUtLOW4kOEiQsfoK8alllvb15Gy0s0mcepJ/wDr16F4+1D7NoyWynD3T4P+6OT+uB+Ncr4O0/7d4ihJGUgBlb8On6kflXTgkqdKVVnHmLdavCijM1OwfTNRmtJDuaM/exjORkfzr1DwxqP9paDbTE5kVfLk/wB4cH8+D+Nct8Q7Dy7q2vUHEi+W/wBRyP0J/Kl+HmobLi5sWPEg81B7jg/pj8qdf9/h1U6onC/7Ni3S6M7+vM/Hm5vEYDZwIV2/TJ/rXplch440KW+hjvrVC8sAKuoGSy+3uOfzrjwc1Cqmz0MxpyqUGo9CD4dJF5F6+B528A+u3HH65/Ku1GeeK8YsNSutLuvtFpKY5MYPHDD0I7119n8RcAC+sjnu0LZz+B/xroxeFqSm5x1TOTAY6lCmqc9GjqdV0i11m28i6TKg5Vl4ZT7GprCwt9Nt1gtYljjXsB1+vr9aoad4q0vU3CRXASRuiSjaT+fB/Ctj+VcE+eK5ZXS7HqU/ZTftI2b7i0UUVBsFFFFABRRRQAUUUUAFB6GiigDxKcNHdyhgyOrnIIwRzXR6L43vLDbDfBrqAcBifnX8e/4/nXa6t4esdYT/AEmLEoGFlThh/iPY1wOs+Er7Sd0iKbi2H/LRByv1Hb6jivZhXo4iPJNWZ87Uw2IwknOm7r+uh2KxaZ4hhNxp8yrKeWwMHP8AtL/X+dMtfDkhlJu5AiA9EPLfj2rzmznlt7yOW3kaNwwAZTg4716rq+tWml+RFqCnyrnchbGQMeo/GuLEYV05pR1uejhMd7aDlNWtuUrrXrHSYzb6fGsjjrtPyg+571zV7qFzqEm+4lLYPCj7q/QVuXfhuC7hFxpEqMrDITdlT9D2/wA9KdY+F4oE8/VJBheTGDhR9T3ranOhSjfr57nHXp4vET5Xt5bDvBoPkXZwcFlAPrwa86l3RXDZ3JIrn2IOf0NemzeIIbbbHYwAxrwSRgY9hTLqx0jxPHiRfLuccMPlcf8AxQ/OopYtRqOUlozevl8pUYwi9YnNaL45urIrFqG65hHAf+Nf/ivx5966hbbTNfhNzp0yiQ/e2+v+0vY/55rmv+Ff3327y/Pi+zdfO7/Tb6/pW/aw6P4VUJCPNu3wrHO5z9T2HtTxMaM9aW77Cwc8RSuq+kV1e4tr4dkDlryRUjB6KeT+PalutfstMjNvp0ayOvcfdB+vc/5zTPGEsixWyK7BHLblB+9jHWuatraa7mEVvE0jnsB0/wAKnD4aMo883oLGY6pGfsqS17j7y9uL+TzLiVnI6DoB9BXR+Dgfs9ycHBcYOODxS6b4TjjxJqDCRu0an5R9fWuiRFiUIiqqgcAdqeJxEHH2cFoGCwdWM1WqvXsPooorgPYCg9DRQehoBnkNh/yNUH/X4P8A0OvXR0ryKw/5GqD/AK/B/wCh166OlehmG8fQ8nKtp+pl+Jf+Rcv/APri1cf8OgP7YuT3EH/swrsPEv8AyLl//wBcWrkPh1/yF7n/AK4j+YpUf92n/XYeJ/32meiUUUVwHqnE/Ej/AFFh/vv/ACFangX/AJFiH/ff/wBCNZfxIH7iwPbe38hWn4FYHwzEAekjg/nXfL/c4+p5UP8AkYS9Do64P4k/6zT/AKSf+y13lcF8SHXz7BM/MFckenT/AANZYL+MjbMv92kdB4N/5FW0+jf+hGvOYL02WtfbSm9o5mfaTjJya9F8GjPhS0+jf+hGuC0xY4fFcUV0itGLlkYOMg8kDOffFdeHaU6t1ff9Tgxabp0bO3mbn/CyJ/8Anwj/AO/h/wAKbJ8RJpY2RrCPawKn94e/4V2f9jad/wA+Nt/36X/Cj+xtO/58bb/v0v8AhXP7bD/yfidf1bFP/l5+B5x4LbHim1weocH3+U16bff8eFx/1zb+VMh0yyt5RJDawxuvRljANPv/APjxuP8Arm38qzr1lWqKVrGuGwzw9JxbvueLR9V+or2LVNOi1XTZbWYcSLgN6HsfwNeOp1X6ivb0+6PpXZmDa5Gt1/wDz8pipKaa0Z4zIlzpGpFSfLuLaTgj1H9D/I10fizVI9Y0LTLqPAJdg6/3WAGR/nsa0fHmiedANTt1+eIYmAHVfX8P5Vwnmv5Pl7js3btueM9M1vSaxCjU6o5KylhXOi9nsdV8PD/xOrn/AK4f+zCvRK86+Hn/ACGrj/rh/wCzCu71O9XT9NuLp+kSFsep9Pzrz8cm69l5Hr5bJRwyb6XPOPGuofbvEEiIcx248sfXqf14/Cui8AWQh02a7kwHnfauf7q//XJrgWZ5pmkbLO7Fj7k1IbS7Bx9nuP8Av21ejUoJ0VTTsePSxLWIdblueneK7IX+gXCLgyRjzU+q8/qMj8a820i/Om6ta3YJxG4LY/ung/oTUX2S8/597j/vhqikRkfZIjIw6qwwRToUFTg4N3TDFYp1aiq8tmj21WDKGByCMil/CsPwdqB1Dw9AWOZIf3Tfh0/TFad7e29hbtPdSrHGvdj/AJz9K8ScHGbj1R9LTqxnTVS+jRmap4S0zVHMjxGGY9ZIjgn6joa527+HVwgJs7xJPRZF2/qK7m1uYby3Se3cPG4yrDoRUvNawxNWnomYVMFQratfceL32nXWm3BgvITE/UZ5B9we9dl4G8QSzytpt25chd0TsecDqvv/APrq34/SJtDjdwPNEwEZ78g5/SuS8Jbv+Enstmc5bd9NpzXouSxOHcpKzR5Cg8Hi1CDumes0UUV4x9GFFFFABRRRQAUUUUAFFFFABR1oooA5vV/B1lqMnnW4+zXAOSyDhvqP6is34jA/Z7A4OA75OOnArtRUc0EVzE0U0ayIwwVYZBrenXlGUXLWxyVsJCcJRirOR5BpusXukS77OYoD95DyrfUV22neLNN1uIWupRiCY/3j8hPqD2P1/Wq+teAkcNPpTeW3UwOflP0Pb8f0rirq0nspzDdQtFIOzDt/UV6bjQxaut/xPGU8VgXZ6r8D0W68OyiQG0dXjJ/jPK/41OtnYaLGJ76VXlH3c+vsO59/5VmfD25mls7uOSR3jiZfLDHO3g8D2rEnmknneSWQu2Tyx7Vwwwl6jg3oj0K2Y8tGNSK1kbGp+KLm6zHagwRHvn5z/h+H51jw7nuY+pYuPcnmtDTtButQw+3yYT/Gw5P0Heus07RbXTVHlJukxzI3J/8ArfhXTOtSoR5YLU4qWHxGLkp1HZeYzVdHTVXgMrlUiySFHLZx37dKt2lnBZQ+XbxhFHoP85qzRXmOcmuW+h7qpQUue2oUUUVJoFFFFABQehoooA8isP8Akarf/r9H/odeuDmsWPwlpMV4t0luwlV/MB8xj82c+vrW1XVia8arTj0Rw4LDToKXN1Zl+Jv+Rcvv+uLfyrkPh3/yF7n/AK4/1Fd7d20V5ayW867o5F2sM9RVHTPD2n6PM8tlCY3ddrEuWyPxpU6yjRlB7sK2HnPEQqK1katFFFcx3HP+L9Jk1XRmWBd00LeYij+LHUfiDXGeG/E0mgNJFLE0tu7ZKg4ZW6EjP8vavUsVj6l4W0vVJDLPbBZT1kjO0n646/jXXRrxjB06iumeficJOVRVqLtJGTN8Q9PWMmG3uHfsCAB+ea4rVNQuNXu2vLr+I7VAHyqB/CPz/Wu+i8B6OjhnWeQD+FpDg/lV+78M6XeQwxSWoEUGdioxUDPXp9BW1OvQoyvBM5quFxWIjapJeiIfBv8AyK1n/wAC/wDQjXLeNtDltNQfUYFYwTHLlR9xvX6Hrn1rvLCxg06zS2tlKxJnaMk4yc9/rU7qrqVYBlPBBHWuaGIcKrqR2Z2VMJ7SgqUnqktfM4nSfH8aW6xanFIZVGPMjAIb6jsamv8A4h2ywsLCCR5T0aQBVH+Nad14K0e5Yv8AZ2hY9fKcqPy6UyHwLo0Thmillx2eQ4/StufCt8zT9Dn9njlHkUl6lPwVrOp6kZUu182FBxOeDn+77/0rp77/AI8Lj/rm38qfBbxW0Sx28aRxqMBUGAKdJGssbIwyrAgj2NctSalPmSsjupUpQpckndniMfVfwr29Puj6VgjwTooxi1bj/pq3+Nb44roxeIjWty30OTAYSeH5uZ7jJY1mjaN1DIwwQR1FeS6/pDaNqr25B8pvmiJ7r6fUdK9erP1PRbLWERb2LzAhypyQR+VRhcR7GV3saY7CfWYabo4n4eH/AInVx/1w/wDZhWr8QdR8rTobJT8077mx/dH/ANfH5Vuab4f07SJ2msoSkjrtJLk5H4/SjUfDmnatcrNewtJIq7Qd7DA/A+9XKvCWI9o1oZwwtWGFdFNXPPvB9j9v8QwBhlIP3rcenT9SK9U6fSs/TNBsNHeRrKExtIAGO4nOPrWieeKzxNdVp8y2NcFhnh6fLLdhgV5/8QtP8q8tr1R8sg8tz7jkfoT+VegVT1LTLXVrbyLyPzIwwbGSMEfSpw9X2VRSLxdD29JwW/Q4jwBqHkapNZs3yzruX/eH/wBbP5VJ420fUDdm9DSXNr/dH/LL8B29/wA66W28J6TZXUdzBAySRnKnzGOP1ra/lW88UlW9rBfec1PBSeH9jUe21jx/TNevtIY/Y5sITzG3zKfw9fpitv8A4WHqW3H2e13euG/xrrb3wppF8xeS0VXPVoztJ/KqH/Cv9K3Z3XP08z/61bvE4aprOOpzLB4ykuWnPQ4TVNYvNXmWS9l3bfuqBhV+grrfA+gy27NqV2hRnXbEpHIB6n8a3bDwrpWnuJIrVWkHR5DuI/PpWxjisq+MUoezpqyN8Ll8o1Pa1ndi0UUVwHqhRRRQAUUUUAFFFFABRRRQAUUUUAFFFFABVLUNMtNUgMV5Csi9sjke4PartFCbTutyZRUlZoxNA8PJoT3YimaSKYqyhhyuM9T360mneG7azYSTfvps5BYfKv0FblJWjrTd3ffcyWGppJW22FAxRRRWZuFFFFABRRRQAUUUUAFFFFAGZ/bO7c8VpPJApwZVAx+A71aur6O0thM4Y7iAqgcsT0FZb4s7eW406+QxKS3lNgj3AqbUZt0em3TjYnmqzZ/hyKALNtqXm3It54JLeVhuVXwdw/CnX+pRaf5QlDHzGxx296cbu3N3FCCrysCykDO0fXtWReSfa9Suh9nmmSOMwqY1ztY85oA3LiZbe2kmILKiliB3pYJRPBHKAQHUMAe2ay47k3HhqUt99ImRvYjirunyx/YLdfMXd5ajGeelAEU2qNHdyW8dpNM0YBYpjjNW7eVpoVd4miY/wt1FZLRvJrV55d39mwqZO0Hdx7+la8AIgQGXzSBgv6/lQBJRRRQAUUUUAFFFFABRRRQAUUUUAFFFFABRRRQAUUUUAFFFFABRRRQAUUUUAFFFFABRRRQAUUUUAFFFFABRRRQAUUUUAFFFFABRRRQAUUUUAFFFFABRRRQAUUUUAFFFFABRRRQAUUUUAU30mzefzmt0L/Tg/hVmSJJYzHIish4KkZBp9FAFe1sLayz9niVC3U9zT4beK2DCJAoZixx3NS0UAQCzgVJkEYCzElx6561FHpFlFIsiW6h1OQR2NXKKAKk2mWlzKZZYVZzjJNTwQR20QihUKi9AKkooAKKKKACiiigAooooAKKKKACiiigAooooAKKKKACiiigAooooAKKKKACiiigAooooAKKKKACiiigAooooAKKKKACiiigAooooAKKKKACiiigAooooAKKKKACiiigAooooAKKKKACiiigAooooAKKKKACiiigAooooAKKKKACiiigAooooAKKKKACiiigAooooAKKKKACiiigAooooAKKKKACiiigAooooAKKKKACiiigAooooAKKKKACiiigAooooAKKKKACiiigAooooAKKKKACiiigAooooAKKKKACiiigAooooAKKKKACiiigAooooAKKKKACiiigAooooAKKKKACiiigAooooAKKKKACiiigAooooAKKKKACiiigAooooAKKKKACiiigAooooAKKKKACiiigAooooAKKKKACiiigAooooAKKKKACiiigAooooAKKKKACiiigAooooAKKKKACiiigAooooAKKKKACiiigAooooAKKKKACiiigAooooAKKKKACiiigAooooAKKKKACiiigAooooAKKKKACiiigAooooAKKKKACiiigAooooAKKKKACiiigAooooAKKKKACiiigAooooAKKKKACiiigAooooAKKKKACiiigAooooAKKKKACiiigAooooAKKKKACiiigAooooAKKKKACiiigAooooAKKKKACiiigAooooAKKKKACiiigAooooA//Z;" vertex="1" parent="1">
                    <mxGeometry x="1000" y="40" width="164.87" height="80" as="geometry"/>
                </mxCell>
                <mxCell id="11" value="Hypervisor&#xa;&#xa;Proxmox Virtual &#xa;Environment 8" style="text;strokeColor=none;fillColor=none;align=center;verticalAlign=middle;whiteSpace=wrap;rounded=0;fontSize=14;fontStyle=1;fontColor=default;labelBackgroundColor=default;" vertex="1" parent="1">
                    <mxGeometry x="400" y="40" width="200" height="80" as="geometry"/>
                </mxCell>
                <mxCell id="12" value="AdGuard" style="text;strokeColor=none;fillColor=none;align=center;verticalAlign=middle;whiteSpace=wrap;rounded=0;fontSize=14;fontStyle=1;fontColor=default;labelBackgroundColor=default;" vertex="1" parent="1">
                    <mxGeometry x="400" y="640" width="200" height="80" as="geometry"/>
                </mxCell>
                <mxCell id="13" value="" style="shape=image;verticalLabelPosition=bottom;labelBackgroundColor=default;verticalAlign=top;aspect=fixed;imageAspect=0;image=data:image/jpeg,/9j/4AAQSkZJRgABAQAASABIAAD/2wBDAAEBAQEBAQIBAQIDAgICAwQDAwMDBAUEBAQEBAUGBQUFBQUFBgYGBgYGBgYHBwcHBwcICAgICAkJCQkJCQkJCQn/2wBDAQEBAQICAgQCAgQJBgUGCQkJCQkJCQkJCQkJCQkJCQkJCQkJCQkJCQkJCQkJCQkJCQkJCQkJCQkJCQkJCQkJCQn/wgARCAHMAu4DASIAAhEBAxEB/8QAHgABAAIDAAMBAQAAAAAAAAAAAAkKBQcIAQQGAgP/xAAcAQEAAgMBAQEAAAAAAAAAAAAABQYDBAcIAgH/2gAMAwEAAhADEAAAAa/4AAAAAAAAAAAAAAAAAAAAAAAAAAAAAAAAAAAAAAAAAAAAAAAAAAAAAAAAAAAAAAAAAAAAAAAAAAAAAAAAAAAAAAAAAAAAAAAAAAAAAAAAAAAAAAAAAADzk/z5xbZX0uHT0g6B8YsPP7d3yv3m12yHobG54H79AAAAAAAAAAAAAAAAAAAAAAAAAAAAAAAAAAAAAD3fz89J152jF1WInoeY3MwlKjj3v1Ki6vrv7z2GlCB8YmUxeUitQIzW9PXmz2TPyToWTBKz8H/PNkb56ettchMbxNZ75yW9r1Z22B+/oAAAAAAAAAAAAAAAAAAAAAAAAAAAAAAADJY3c2LW6m77+9c+89howgAAADKYvKRWoEZrAAAAa1j0lV8StgrZ+psPXnY/SwZMwAAAAAAAAAAAAAAAAAAAAAAAAAAAAAADb2odmYdKfh488x8yAAAAAMpi8pFagRmsAAAA8efyV6df/W/Jd29Zhm2QAAAAAAAAAAAAAAAAAAAAAAAAAAAAAAH1Py39/nHY7/WLynLvLgfn4AAAAymLykVqBGawDL7Jkgst4iH9fZOtoCoBh1n8P7/IfeSvNj/1+e8etg/foAAAAAAAAAAAAAAAAAAAAAAAAAAAAAAACe/avJ/WHNPNIa0aAAAAymLykVqBGazaPpye2i+exxPu+N6Ysoc/48A0PvjiiRmofh2v1EAAAAAAAAAAAAAAAAAAAAAAAAAAAAAAAABJFJFCnNZReFBC0wBvbUMsczceW+f5YfTn7/Cm3Fp2mcYZTF5SFi32/pyhb9r93+X1MYt761rnAnJPOgfPwAiylNgktV/0EOpd9AAAAAAAAAAAAAAAAAAAAAAAAAAAAAAAAAydhKu1L1XeddlCm8cAbC16+80zedi4k+6B3/5+J+YnVGvoRPfa+pJ9TeWe9sJpK/dx0rxj/T8cf83BoRAAHxVeSV6JnpvdAt/SAAAAAAAAAAAAAAAAAAAAAAAAAAAAAAAAAHT3MP8ATDp2QGntw8081B8YAHVfKn52JCbpxv2R0P0LjMm/OxI/PRTbQ0Py3gQVahAAPHnn3NtRWc+efHb/AFOGfbAAAAAAAAAAAAAAAAAAAAAAAAAAAAAAAAAA7Ml4rgTjVLkm+RWOZAAfqTCM3KSE/NJyFl+CZC7et5Ob8WAAA8QtSGQhX3rngX/sAAAAAAAAAAAAAAAAAAAAAAAAAAAAAAAAAAADfGh2LWsde1G9JDzvzqGpFAAeMri8pFagRmsAAxuSi0kpvlXTh2X0yGXYAAAAAAAAAAAAAAAAAAAAAAAAAAAAAAAAAAAA9iZqF36aOrth5pbdNA4AGPAAymLykVqBGawA5+z7WvYbsvhOvekAl7EAAAAAAAAAAAAAAAAAAAAAAAAAAAAAAAAAAAAAB9xNbA19nE1Swi0Rvei8KDHrspi8pFagRmsObs+3noSPx8p1f0IE9bQAAAAAAAAAAAAAAAAAAAAAAAAAAAAAAAAAAAAAAAMzLLED+tCBshIrpO6Pw/LZTF5Su1p4wEVP1L9HRRYx1PvoSk+AAAAAAAAAAAAAAAAAAAAAAAAAAAAAAAAAAAAAAAAAA23qR8YJt/5wn+K3Q9maxLHfQyZgAAAAAAAAAAAAAAAAAAAAAAAAAAAAAAAAAAAAAAAAAAAAAAAAAAAAAAAAAAAAAAAAAAAAAAAAAAAAAAAAAAAAAAAAAAAAAAAAAAAAAAAAAAAAAAAAAAAAAAAAAAAAAAAAAAAAAAAAAAAAAAAAAAAAAAAAAAAAAAAAAAAAAAAAAAAAAEhXGV5YrCcx3QOLSmq/X5OwOmO4JxCq36lq8UquWr/EZBU8fV/MH8+s5k5sStf6tl7yUhufL71X0437E27ZHKPOiZWYphJVGrduK4kZl4ijueZN+cbphVh40u3xTFVwHfG4JgpIiq3+bUwpi8fX+K+pFj1v0JYgKrf8LVYpk8fX9+ECnk2pqsAAAAAAAAAAAAAAAAAAAAAAAmSs1cJdimp9+VObZRS55JsbVySxxOJB3OIVXtBYHj8tDS7UHb1hDDxVYB4rJfOEO76Y56/2GpZSiS+GPd2KMZZHrcWRyq5FNKzFMLt1JG7cZqjveIpFlhGdbS2EPa23Wws3lE3Ws1MKxbakejhkfKb2Y6zypPV7Wd1+QvWFK81hkra8P7ZjULGc5NAa7OcZVYr5FDcAAAAAAAAAAAAAAAAAAAAAAdL80WDyeeOiR3wUdrme1fJqOj1fiqiHe84kHc4hTD4/kz53Obb1cVkxZy7xdrbjEtFUtrpMcpClbDpK/aFzn4/WOzivRZIqi2uirBFFarrRmsLu9Zm24aarST56OJTYZJm/BSvue5L9HFdNe/zS0LFkkUbsjx/RTBtrH2VYCyvSaJo7EFd+xAVLo1Jj+DzmK7JFnPCfJ0MLWtUoAAAAAAAAAAAAAAAAAAAAAA9u7vS5lGLMFdLQcYxNVvCvLkS/XGRFp6h2TOJTh6kLPSsL6xaDj7rwcVH3HxnrC0PLpQF7qLhvmu3/ADLFMN0OPEpmLf8ATnzJfj/lVb6ULCmHrrRsndFmKk7IMWF4EOV4/SarsGsp96Xv4LuVtak0UjtR7dRE/M5CfmS+vAzzT88b9sQUu+yiz0rC/wAiz/x/W84TNv6TAAAAAAAAAAAAAAAAAAAAAAAAAAAAAAAAAAAAAAAAAAAAAAAAAAAAAAAAAAAAAAAAAAAAAAAAAAAAAAAAAAAAAAAAAAAAAAAAAAAAAAAAAAAAAAAAAAAAAAAAAAAAAAAAAAAAAAAAAAAAAAAAAAAAAAAAAAAAAAAAAAAAAAAAAAAAAAAAAAAAAAAAAAAAAAAAAAAAAAAAAAAAAAAAAAAAAAAAAAAAAAAAAAAAAAAAAAAAAAAAAAAAAAD/xAAxEAABAwQBAQQKAgMBAAAAAAAGBAUHAAIDCAFgEBggNxMUFRYwMTU2QFARIRIykBf/2gAIAQEAAQUC/wCAOFCsUc4A0sU1ZGx1fxxFh9dXMWH/ABWSNzrHWcRKUtZUirBz0ikb1zhkaohNXKm6ArKQQ6EIqRiQwgrHixYuPFlT4M/C0LE3CnCFQdbTlr7fTrEZw1UpRq0WTolOmUK8rBDBU7UyQyJNdIm5A3YvwF7S2OuJ9hEUcqIIaLmas2HMnydCJEilepF4MU5uGQYYh3D+M/CA6S4yqCnBJWfBmS5+go8+9fyi77q6CAbubDP8or5/yJ+ggzLxgLfyefk/3+kfOgmPL6B64+X4SRvcF9ZcOZPk8GW7izGryemVdBYrubMiLNwpR/giAkoJleLC3MaArILiN28BAo9VYuf756DB1frwj+AKi6omWt7elbEkkFnrmbwyas9SBuhIYXethPxxkbWEy5ra0bOiPivhhQ/3zz4Z2X+rCPQkBOPjZY7Ini3/AMd59GRhj0NeIfYFpG4MzOiYkD48pWFtc3JU8L/FsA5ekc+hIkdfZht4W9dmbFo4QIyRtpRgwqsJmJ5RZx7WVlXP69gYUI6gvvsxWGpReSOXjk529rm3QiJVkQrGtdidG3wjJGrGHJtcUjsip5aET63vrItHnKmpqWvS4bHEQ031JZZ/PwCN1sY2LLkvzZehYTffaQv4ggvyjC3Flx58VFwsmKG3CyOud3FhdGMoaNym0cbbrrr7vHPD96mxdDRKQ+wi3xx2a+y83ZajSWKqdXRIzIHp3Vvrl8CTiL3jLuhrbrrLgQjtKBnxc/3UbmvrVvZzzxxweFXJC4fAkwm4GBXoiGSv2M++O266y4CMrSJJUlFnq2L4MvlnvESdEWX34747LLC0e8aJaqbVeWTEHutmzZlOb4EpmHAoO/PoqPC/IIP2HNiUYfwFitOgSnJXnMH/AKLho8/r8CZz713L0Ziy5cGWND3CWNvxpVkKwYQX3XZLujWd3XMbgEmaAxbPiSAdIwxscXFY7Lejx4gcRlyDjFtMG34RyctwY3Pj44kLj0iwv7kNuISeNZkj+AfSK2hiZ6enF/cOk0Dgsa1YBKyEj48Uhy8kZOFixU4KeleOeeOQOYlLZSJcjck3Y5ujezJD2YVz500LGr6IqQ6S2EstNJVYRXgmL3wsV9N23XWc88888/8AHsO1nkg2HO57LFSVCZpFabsjWEzGVEfc9liu57LFZtQJcx2FEKScH4ueObee0LhCSjy1v0oNc2J00rOU+I1iw7j7JUaxWSyov7nssVIceP0Zv3YwaryYRsjzqlJzG0V86atTZUdm3ueyxUkRcURa5dgLrmfyEOdz2WK7nssVzp7LH8F8DSiE4PlUaRIUyrn7nssV3PZYrJp/LVtpLAUsCuO/Hfiu/YCzArKiNkaUjCz1P4VwcRjzxzbzWkX25288cc8TFrSKn6R8ZHQbdrbbr7oE1ibmhHZZZjs7HNrbnlDsbAP/AJwp0k+763F82eyIPKyTvLqoVDLzqSMdlmKytuQn3kjjs1Q8mO3nji7jaiC25tR6Q/VvBK0ABcmIzMNfQIh/X6bBPtc0phkFsfja622+2cAu4EkqtIvtyplmWT2CT2/Y2Zm7PBWzaeQV1blR0nUNWpsd4DA9qcJva4jaiWd5WKFQRsXKAauQbGRlnCZg2ndj1v0k+763F82eyIPKyTvLqtLgn1dsoFP2s7p2bUry2GI2qECmtUPJi7/VwnmX8K9j2UmFlXgpVhNhA2bE7yIaU4vQvtbISxIonKCXYeZUmaFtsLyJ1rbSOU5QB/r9cQn3Jix7dkrCzwfJilJO1bnhPrjJWkX25U++cVNy5U1uA26e3B6b27E6RNpk14ksa1PROqKZUimO80oF3cfda7kDrS7SlzRItJPu+txfNnsiDysk7y6Qo1DitjsVwBQXKpXjCgDT83yN8gVuaE+zCqtUPJjnj+eFmmEhKVbRpOWXrh5hbhhjkshSi4FpNk5yvVbZecVW8828w+QqCqMiNtxvA/8ArofDLj2RbLLcdm0Li/Y4zTAcio1IM8KX8RPBhOZB7kgUNbhpF9uVPvnFTchVOi8Za/YY7Na/E2xPpo44lMY1OQ8pGZT1J84v8rewh+g6S88e+FbjW3Wyx2RNivwRjJ3l1qsEe9km1t/nJnRlEBqSBUnQqrVyLYEJ9+ourVDyY7SAjYxRs2F2Avk7PpD9WrbLzirjjm7mHR5SLRi/OGNpY/12lYT6NN2fxx27YBPuvJOkX25U1xlIbxKjfB8tOSiA9ZvcRbW5UhJ0I/qHIOAZN6n2CU0sN7vHsmAjiNi82FimLh15FAIh+g6kEuFilitmISXyY2OQSYNCqJddzQ9eUqbCiTbEEmAZiTUsI92Y37P447OeOLuJtC+QOStUPJi7/XPNEqoHmPTJCfBx4HNx6KEo+4ir9pD9WrZiPDshlRLCsrq80H6qK2Z0ra6Qk4pHf63Bgyqc8YCGIEA3Femam/PuyYcZ++0a1HG3T2VGlbWBPvVGekX254Je2EEYySExI7l77hzZk2aBdk2gxRfOubbbq4tttrnnjjifNl2ccQt69W1L4VmtilVirmyy6vlTg4IWlFK0i5tg5Ka29O0tp+W4AUP77RrXfaNahHZxzko0rdIJ9aaNUPJi/wD0dvqmnEkezHutxIv9On0h+reCUZsDItQyCevskE360XfsouQ99KS6L9rJCMRvsRqsyFXi3OkvFiW7jSE4JIwncoidL30pLrvpSXWXc+Tr7CnYeWi3Ffffku7OOeeOQjYyUQbEj3herMa3eB9yYzjYSTzzF8+xvcV7UrFdvJPYMOPeNfxa6buFWfEdS4fSNfHEguMaEXfSkupI2OOJNHuwXI3IRIe+lJdF+05sbDcfbLm0cC/O6Ml88KM1ynOzOy5hduN0ZL/h328O31ri2YyKJVXfSkuu+lJdX7oSbdaS7MS+S4lClQrzf9xP/8QAOxEAAQMBBAYGBwcFAAAAAAAAAQIDBAAFBhEhEBITMUFQByAyUWFxQoGhscHR8BUiIzNSkeEUU2CQ8f/aAAgBAwEBPwH/ADMqA30u04ye04P3FfbcP+6n9xSLTjK7Lg/cUFA7uTk4ZmrRvnBj5a2sfD6wqb0jvKyYQB551JvTaDvadPqy91OvrXms46JOhmS43m2oiol8bSZ7LpPnn76gdKDwyktg+WVWZfaz5OQXqnxy/igeRTHi20pwcAatS8MuYfxlZd3DrSetZF6JkI/hKy7juqO5rtpWePIbRGMdY8D15PXhjBpI8OQuo1klNKGBw60nTdm5Tk5G3eOqj31MbbQ6pLSsU9+hlGssJpIwGHIrZY2UtxvuJ60nRc26Cpytu/8Alj21f68aWkfZsb1+Xdpu5H2s9pHiOR38ibOeVfqGPw03QsWJNcKX1Zjh31PuFCcbwZGqqpkNxh0sujAipNXQumq0HNo5k2Pb4CrzW43ZcTVaH3tyR9d1OuKWorWczp6OIe0tDafpH8cj6RYGvHTIHo/HTHkLaWHGzgRV27wIns63pDeKvddoTWto1+YPb4fKrv3VcnvffyQnf8vP3U87Hs+LrdlCRVuWy5OkF9z1eA6nRrZ2ziKkH0z7B9HkdoQ0yGVMq41JjqacLS9402XabsR4Ptb6si1WpjAea/5QSBuq/N5/6x7YMn8NPtPf8upCiLkPJZb3moMRLDKWUbgMOSdINi6qhNRxyPUu7by4D+uOyd4q+18ECOGIis1jf3D5nq9G1hZme4PAfE/DksuKh9otObjVtWS5CfLK/V5dST1Lv2I5PkhlG7j4CosZDLYabGAHJryWAiezq+kNxqTGWy4WnBgRpk6YUNyQ6GWhiTV2rvN2exsx2jvPKLzXYRORrJyWPrOpURxhwtOjAjRJ0QYLsl0MsjEmrrXVbs9vE5rO8/Acqty7zE5GDm/gatmwZEFeq6Mu/hUmrCu3JtBeDQy4nhVg3dj2e3qNDPieJ5ZIjNuoLboxFHo5iGRtCTq9381HjoaQG2xgB/pL/8QAMhEAAQIDBwIEBAcBAAAAAAAAAgEDAAQFBhAREjFBUCAhEzIzURRhgZEiQmBxkKGx0f/aAAgBAgEBPwH9ZqsLMtpqUFPsJqafeBnWV0JPvCLxExWWG98YetGa+mkOVWYLUoJwl1W6pbXNvGHlXCGLQTjehxLW1cT1Qx/aJO0ko92zYL8+DePKClE1UXXvOvVUtuqn1qYl/TLt7Q0eYULgZj0y66lt1sJgCcCSYphC9VS2vo1nCmR8VxcoxMAAmqAuKXNjiSJCJwU63ldIeqpbXWeoCzJeI55P9i1NXQB+EZ+v/L6Q1nmmx+fB15rK/j730eSaeJUcWJigskP4Oyw8yTZZCipbRQKEU0WY/IkVmpBJMYBrskGakuYr7IS+eaz+ycHaKXxbRz2vbcUCzDFNqCPhjvFXpvjDmHzJEtRDmnEx7CmsOG1Ks46CkVKoHMuq6fRY6UyMK6v5uDfZRwFBd4dbUCUVvlZkmTzjEpNC8GcYwi01Z+Ic8Jvyp/fRLME64jY6rEswjTaNjtwloJLBfGHop0+TB47RaauILSNMr5v86bH0zWaL6cK80hioFE7KEy5kXoqW3RSqaU08jYwwyLYIAaJw1SkEfDDeHWiAspX1La+WlzdNGwTusUelDKNZU134ip0wX0xTWHWiAspXVLa6WljeNG20xWKJRAlAxXuXFT1PB9MC1ickHGFwKKltFMo700WAae8UukNSo5Q19+McbE0ylDtlmDcQiXt7Q00IDlBME/hL/8QAVBAAAQIEAAgDEgsFCAIDAAAAAQIDAAQFEQYQEhMhMUFRImGBFCAjMkJSYHFyc5GSobGywdHSJDAzNEBEYnSCk6IHFTVQUxZDY3WQo8LhJoNkw/D/2gAIAQEABj8C/wBAGzDS19oR0CnTCv8A1mLimu8th640U5XjI96P4avxke2OFTHuQX80fCKfMJ7baoyXm1JPGOxLMyLK3lbkC8BS2BLJO1028muMqrT/ACNJ9Z9kDOMKmD/iKPqtHwSQYTx5Av4YyWkhI4ufyX0BY4xePhVPYPGEAHyQcw25LH/DX714KqRP3+y6n1j2Rlcy80J3snK8mvyRmZttTShsULHsKDEqhTizqCRcwHZ/Jkmz1+lXij1wFzqVTjn+JoT4BGYkGUMo3IAH0HM1Jht9O5aQYLlNy5Jz7PCT4D7YLsogTrQ2tdN4uvwQWX0lChrB0HsFRJyaC464bJSNphM1hQ7mh/Rb6blVGZpEshrj6o9s6/o+RV5ZLh6/UocuuFTWDDvNCP6S9C+Q6j5IXLTCShbZyVA7COwOnd+H0upfeXfSPYHTSP66PP8AS6irfMuekewOmuHZMN+l9LnHN7yz5ewOUf6x5B8v0Q8wsLetryRBZmEFtY2KFjzqlnYIcd65RPYGladYMNTA6tAV4R9Cyl3RKtnhq38QizSUssNCFTgFmk8FscW/l52cmf6bK1eBMX7BKdMf4CB4Bb6Dm08GXR8ov1DjhElJJyG0CwEGgSCuho+VI2ndz1Rd65vI8Y27BW2b6ZdxaP8Al6/oHMzHBaT8o5uHthEhIpyUIjmOUPwp8aPsjfFzpJ55uTGuYeSORNz2Cz9JV9l1PmPq58PKSJZo7XNfgj59w+40RnZtOcY/qo1cu7nhIyegDStexIhMhIpslO3aTvMOVGbOhOobzuhyozhutw+AbufkaSk/JNlw/iNvV2Cy4UbJmAWjy6vLbnm6hL2K2jcBWqEz8odOpadqTuxKl5hIWhYsQYs3dUo98krd9k84mnyA0nplbEjeYTIyQ41K2qO8wXHDZKdJMWZPwVnQ2N/2viJ59JultWaT+DR5+wVqcZ0LaUFjtiGKix0ryErHKOeE6xwm1aHEdcPbCKhIqy23BcYnKbPpuhfhB3iF02d1jSlWxSd+JFOp6cpavABvMCTldKjpcXtUcRwbp6u/qHo+34iaqq/7htSuXZCnnDdSjc9gxpbh6JJKyfwK0j18/mZjTJvHhjrT1w9cJeZOUlQuCMXM6uC+3paXuPsMfuFDR5qyskp3cfajMNcN5elxzefZiyWDeae0Njd9rkgrcOUpWkk7T8QxQmjw5teUruEf927B2mnTZmc6CrtnpfL8QmhVRXwZZ6Go9QTs7RxqnktpDywEldtJA48TlRnTZDY8PFDlTnOmXqHWp2D4mYfbN2Wegt9pPtPYOFoNiIl6lfolsh3u06/bz9jCcHasvoqfkVnqh1vbGO5jmWUV8Elzwftq672fEvzDarPvdCa7atvINPYSaLNKsxO6BxObPDq+IC2zkqTpBGwxzFOm06yOF9sdcPXiODtPV0RwdGUOpTu7Z+KMlLKvLSV208auqPq7CQ42bKTpBhuZWfhDXAeH2ht5fiG5+RXkOtG6TH71atzWeh5ncv3dsLmZhWW44cpSjtPxKkyyrTc1dDXFvVyRc9hSZlZ+DO8B4cW/khMwwcpCxcEbviL/ABK5ybUENtjKUTuEOVJehocFpO5A9vYYME6qvvCj6Ps+gnBOlL6Eg9HUNp63k7DUvsnJWk3BECUmzadYHDHXDrvj/wB1U1V518eInfBWs3J0k9hzdTp68hxs/wD4QJlg5LyNDje4/Glehc05oab9Z4ocqE+vOOum5J7EEVOmqspOsbFDcYE3KHJdT8o3tSfi889w5hfybe//AKhdTqa8txfk4h2JIqdLXkLT4CNxi7RzcygdEaOvtjePic0mz06scBvdxq4oXUqo4XHV+TiHYoiep7hadbNwoQmmVm0vO6gepc7XHxc+uk4OKD03qU5rS37TC5ydWXXXDdSlaz2LXEIpeFBLzA0Je1rT2948sJnJFxLrS9IUnSMap+pupZaRrUqF0vB3KlpXUV9Wv2DsaztMc6GemaV0ioSxlczze1pe3uTthUpLnmuc/ppOhPdGOaqu7cDpUDQhPaHY5lJNiIuf9HyWwnpaWUS80CpGcXkqte17ccfVfzYlp3CVLeamlFKVNqytI345mdwZzWRKqCF5xWTpVH1X82Pqv5sZTaJZZ3B0euDMVukPJaTrcQMtA5U3ix5xL9Dpq8wr++d4CPCrXGXUapKMq60ZavVGcplRlJg9acpJ8otGThRT3GEHU50zZ/ENGKYp2DWbzksjOKzisnRe0fVfzYGDuEWRny2HehnKFlX9mOUr9P5nzE40l5F3NOSsXETNZneZszKtKdXZzYgXOKwhiptJl0JmEBYCnLGytOmPqv5sM03CZKQqYRloUg5STbXjawooOY5meKgMtdjwTYx9V/Nj6r+bGjmb80QqcrFMWphGt1noiR28m9osYmZfBnN5UoApecVk64+q/mx9V/Ni6EyyjuzohT9RpDq2k61s9EH6bxkOApI2H+YyWDkj8rOvJaHFlHXya4laJIJyWZRpLSBxJFsVQkG03mJdPNDPdN/9RknFXO/teirnLGHapg42inVcC6VIFm3DuWkecQ/Q60yWJqWUUOIVsIgIQLk6oZwt/aIwH51yy2pVfStDZljari2QG2xkpGoDG5TasyiYl3RZbbgukiP7VYLpKqPMKspOssLOzuTsPJFY+6D0xiT9ya86seD3+XsegIrn3F/0DiptEtdoOZ13uEaTAabFkpFgMX9oJZN5ijrzvHmlaF+3kxyHfXvTPOZKtIMK/aPgiwGUhXwxlAsnT/eAbOOK53pvz864/mUyNTtwJloWuftjqh5YfwawiazUwwfwqTsUk7Qf5hNYYzSLtUtvJb767o8ib+HFWMCpYdGpGaylX6bOC/6ToMFCxcGKjR0psyteeZ7hekYq539r0VYqzR6PWX2JZh/JbQnJsBYcUB9Fbcct1LiUKB/TCMFML20SlTX8itHyb3Fp6VXnxS37R6e3Z5hQl5q3VIPSKPaOjlEKwgqaMuUowDtjqLyuk8FifBiQlCBM1OZHQGNluuVxQqYnKy+wknQ3LqzSR4tvLCHVVByoS3VszRzgI4lHhDwwzhnUJ1MsHNBlzwng4NackaT24mMF8HJRMpTHwULU6At1xPmT5TxxWPug9MYk/cmvOrHg9/l7HoCK59xf9A4p/DqaRpmDmGT9lPTHw4ql+7tdOmlSytN75O3l0xMUmeTlszLam1jeFCxifwZnOnknlN9sA6DyjTikO+vemYMPNIr0xZK1AdLv7UInFVVU2lJ4TT6UqSobtV/AYp+FTCM0J1lLmR1pOsRU6XNDKQ9LOD9OiMIGesQgeBRxTFHwdqz0rLJabUG0Wtc34oDyK68q2xSUKHlTDOC37RENsvPnIZm29CSo6gsbL7xiOFsoj4dR+Hca1MnpxydN4f5hIMPJyZmeHNb3bc1DkTYRNVueNmZRpbq+0gXgYQVRzg1t1xt7tum6f1WGKRw5lUcOVVmHj9hWry4q539r0VYq994/4jExUpJZbel1pcQobFJNwYkaza3NbDbvjpBivyr2kCUW5yt8MeaJqogcOanF3PElKQMVWnH1XQy8WGxuQ3oEIwUYmhKKW2tzOKTldLxR/HmvyT70fx9r8k+9Ds4qvNENIKvkTs/FFY+6D0xiT9ya86seD3+XsegIrn3F/wBAw1T5QZTr6whI41Gwin4NsC3MzKQrjVtip4QrPCaZUEca1aAImsHZ5y6augq0/wBVHCvy6cUnhvKp6HUUZp3vreo8qfRxSHfXvTMWh2YFRkLLUVa3Nv4IQK7VZVuWvwyzlqXbiuEiJXB6kpyJeTbS0gcSYqtam1ZKWpdYHdKGSPKYrzqtam2z+rFM94a9eLKTrEUauzhynnZZIWrepHAJ5SInaS8LpmWHGiO6Tb+X0zB0pymVuhb3ekcJXhGiA2jQE6BDlCwclX5qYqbiWlBhCllLaeEo8HkENzcvRp9LjSgtJ5nc0EaRsin1adZXLvPMpLjbgKVJVbSCDFQwbmRcTTKkjutnlh6mzYyXGFqbUONJtFc7+16KsVe+8f8AEYmabJILjz60toSNqlGwESFFJvzJLts+IkCK/MvaBzG4jlcGQPKYmJFJ4ctOrBHdJSrFWJCYTYKfU6jjQvSDEv8Ad3vNGvFOd5X6MVgf/EHpjEgka5Jq3jKx0BpzQRIS/oCK59xf9Aw1UZhOVLUpOfVuytSBikMEcHZGZm0vLzzxZbUsWT0oOSN8SOEUpRZ8LlHkOfN3Nh7UNTqUlIeQldlCxGUL6RFRp7KcqZlk80sb8trTYdsXHLikO+vemecXWcIppEpLN61uGw7XGeKBg7g7lNUeXVe50KeUOqI2DcIrnem/Pime8NevFkjbFFoc4Ml5qXBWNyl8MjkvE5VHTZMuytwnuU3/AJfUsPppOlw8yMHiHCcPm8HPKrEsm0vVU54d2NCornf2vRVirVSpdFnH5d1+6HEMqKVCw1ECBLS9Am0k/wBRGbHhXYQjC/DYoeqSPkWU6UM/aJ2q8gxS37PJJd5icUH5gDqWkdKD3StPJD2CtRXkS9YSAgnUHkdL4wuO3bEio0tSZeryqbNrV0riesV6jBTO06blHU6M42lVj2lo0eWEytEaqTl+rUXEIHbUqwinUDCF3Pzku3Z1YJVpJJ1mJzvK/RhEjMKyUVJhcvp67p0+HJtiYr2DICqpIJKc2dGdbOnJvvB1QZKp0yaZcTsU0r2Qw9VpR2QpSVBTzzySgqTuQDpJO/UIblJZOS20kJSNwEVV9w2XMo5nbG9Tn/V4FcmUWmKsrPf+vUjyaedyTtip0NCclguZ5jvbnCFu1q5IkO+vemYMLcar06rMvXCVOqKdB1EbokcKpDpZpsFSetWNCk8hicwWqY4EyiyVdavqVchiaweqqMh+UcLah2ornem/PimKlQ6RNzcuWWwHGmlKTovtEBhqgToJ65opHhVYQzhZ+0nIy2CFsyaTlDKGouHVo3DE5g7Lr+G1joKU7Q1/eK/48v8ALkSzAyluEJSBtJim4MIHCl2RnLbXFaVnxiYfqc6rJZl21OLO5KRcwsMUmTyLnJuV3t40fwmS/wBz3okcHa/IS0tLTi82XGyq6SdWs4nKpLoypilKz6e46vyRXO/teirnXJKWcTP1YiyJdBuEHe4Rq7WuJnCKuul6amlZS1HzDiGyEzEuooWg5SVDQQRtEMYL4aPJlaugZCXFaEP8uxfFt2YuELxwRFzD+CWA7iJyougtuPJ4TbIOvuleQQzU5BZbfl1hxChrCkm4MNpU4lmrMptMS50G46tG9J8mLSI0Q5Uqm6lhhkZS3FmyQOMxTMBcGcr91IfzaDtcv07tu5GiGKXKJyWpdAQkDcInsKZgBXMjZUlJ6pWwR/CZL/c96P4TJf7nvQME8IJNiVzzSiyprK0rTpsconZfFT8PJVPClVczPn7C9KDyK0csSHfXvTMGJjvivPEx+zqpL6DPdGlr7HUjhJ/EnTyYmv2mUlvhN2anLbupX6ornem/PzqlVR4PzxHQ5Rs3cJ4+tHGYewmr67uOaEIHStoGpKeIfy6UwiYZbmFybgdSh3SgqTqva22PmMh4jnvxN4MTkvKMNTiM2tbSVheTttdR16sbU9LGzjKgtJ40m4hLfMcgrJFrlK9P64dkZyn09bTyShQyF6j+OJyTwdlpZxE44HFZ4KNrX0Cyhvj5jIeI578fMZDxHPfjJblJBB3hC/WuFS09VVsMq1ty4DQ/TpMZazcnacdxCZOUnebJZOpma6IB2j0w5DFp/B9lxW9t9SB5Uqi1OoDDSt7j6l+ZKIVJ1Ge5mlV62ZboaT29p5TjRP0x5cu+2bpW2clQ7REJlaqGKqhOi74yV+Mm3lvHRsG0E8U0R/8AWYKaRRZaWUdrjinfNkR/5PPrcZBuGU8BofhGiBhNSZdiYmEoKE58EhOVtFiNMfMZDxHPfj+zVYZlmJcrC1ZgKBNtWtRxymEtIIExJuBxF9WjYeIx8xkPEc9+JvBatSEiZecRkKyUruNxHD1g6YZwUo0rKOMMlSgp1KirhG+xQi3MMh4jnvwuYXrWSo8sS1api83MSriXW1faSbx8ykPEc9+H6PVKbTnZeZQW1pKF6j+OJyawdYYcM4AFB4KNrG+ixEfMZDxHPfj5jIeI578WTJyCTvyF+/CpddS5kaV1MskN/qHC8sKmJpZcWrSVKNyf9cX/xAAtEAEAAQIEBAYCAwEBAQAAAAABEQAhMUFRYRBxgZEgMGChsfBAwVDR8ZDhcP/aAAgBAQABPyH/AIAAti9Sbm+/FTKYaf01YX/RenzxP5pj/TT4rd18j5GnEhfotW03mPmkSz6RIsODX2K0Myb7Z9tHhDr+70ORTP4UdD3Xd9wWthgCD28e15CHvUtPuPcKLQiUZonakkHoh++0mLDlKpzi6eXR9FJJGFE5BQB7tpdv2Ciztmrm0XutAhjKvt+CwabfsJQ7FYT/AG/YUH0yBuv2UrO4Gg7j6FNoC8qZVIjbyjyXg6Tzo9bMJJ5jd3/HZx7ADojH6VY25bIbWKDgihQohHcf/kJZWaYXeH5ThW+h9B2GH8JR+TiVDn98/QZsf0JauD+HZVYzodcKxoEsDo+HBZZelKn/AHz6DXiBI8qvmnvR+F9IEV8tP5i2LAGbVx1YV97fwgfY92GnLqfQkqsql3m+5+Dfy36mb2oMsEKxhv7rYz8QOMMDpfv6Fl+SHvD8CNliuVpGqyosZo3XV1WsQkHvX+qVDqJVxVz8QIMKbCe8ehceaTv4tsXq/wB1LaNsdY4wup3qwxmC4OTHq8Q4Yp9XzcioZ2v1JM1q1EYznwHOr8ZIyyBsePBwC7xPQsu1zfPt+IFpEiVs1DIxHmV+uC/iHSI5VFJBV7m1MtTwTV7yc/8AoM2sEvd8/wDS1GMIosAYtK1Cuo5rnlt5BdsnDPuF9CpHJ3RZKcSeXE3inPgZP+llR+ZQPh3M+EJD49EmSNGnPstH9mTwzuDXmnyD3oIceTn3YyMuEr6Yg/WnkQTwJOYLOrBU6Imc1u+hgktcM8R7w6eOcrrn9izMo851+EcE4MoZntd7CVbzZPCOLdt5zKtMgQr7WgyOEew335bZNWk6obopivPyLAMBOZfm+z0PaHGyJd8Or5DYTp3PHW7PESYSF6QcUE8Lx3N1kN1sUqNyMsMHl7vkKBLV5+7OenUeXod2i5ExEpJBMTSx3YNnxgGRVxIoXh5ntam/FE8Bi1iiQhhgPJl3Z+TCy+5FcdSiqy+iCskZcA+7ePISqgWhC4jqVD1aGGSfqZPCzHvA/wC3Q50AEHkYXayuCMP7chy39EsoYAsiYJR17e1Mmhv7ZeQ9CMvuOo4JSowaErw46wzdMaQEjiCYvkwzSIxs9phulKrEX0Uh5h3dtHV35SZ0aki/CrieRBOryVmvwICWp7rv8p1xPowMSErcs5/WX4JSlKZh4cmbf0a6Mq3ImCUQMw0DJ+/PRDVLZ2ffSlrPUYq5+jkdSwmCZrZoQhiVfW5OXmy0DZF5+BThkPvYekJa+90BpQwwA7/k0fLRoHQ261dBSPU9BkGQekmgrudUGY0dNfFZ9D58ly9gL/4vc0uwcXAZBkHpSbpRYT/zal+iCGG+H+Hiwu1drYl18bOBnpS14ISj6WBPCYNCaJQP3T7qM+MpIcRttcQcjV0Cp8JnDn+7TFz0pVZfTN4F5vOYZO5ehqIrrF2PntQsAkxR7fIl5UzSzLj6Xx9OAXXAlkpE8rn/AMfCByIIUNiEm1fYKaiB0AxSGFm3HDWuKgUjtX2CvsFbQaN+BWhIoprEKeHCYjxBWCibcLA9SLsmiCFqhzSNKxvOdyflVIcEGdDP7uFiW7ImLOrX2CrAH2KQL63ccFi7kBMZMNYKxZWZEawcAViLQFy/CEIZMV9gp9842FAnUtPM44RktneY5lfYK+wUFIbpRcg0wNql3KRWAlbAsyOCK+wV9gpeTZAnvapA42Bhmto501tyQhOn8iM8o+NgK2ErYqPhm5GHxw57KqBU6zpyMJZHxLERyOJSUcZ07BBdKdZoZWRX+QOIlkuU7BcAuq5UZwh0suvc1tzRowwCADIDiiVRFrUaiMR24ETi51g3ZT5A9nHwSYmPp/5hQmiAYAWDhgnmzFY+RZ+OmegAhHBKDoghjKK11jhhFfb6/DdwJNWzwJm9DTwcQLq5IsHo3/kMWRNMpkcuXJwg2CoiXqDK5uUaAcI4I0451NfhvAsz+ACKgla1KY0uz5H4JQp4xYwXilzAlMkNuBjHIczzGNxQMqHSTFKiF/2TgRs5RgC1u4Xu1OokkfQJmNy0ONJK5kSV3OhoaoL0Bs9IhEaVyxOigX6cGQ8kezj4M3a43A9lKBLUAiD+gRtFDpQlEFwWDs0Cbe7b2zjHPimaMaUU6caBVGuRzAigDmDTIUlMwMTOG00LFDHWSuiDWdvs64WYDQVw3WNPiFMqcxKKMADDy6mUWpxDHgAnEFcoXXKnCIY/yGhnDDGLbm25U/w1vX1YtUcBrW12ew58L8UIG63l7PEstx0wTEA5JWm4un9jQtANOj8hq98rYy6MvXgzpim2AjLC+9SKMANoxBMefEvnTYDMeM+QHM4+DdUhxA7tX7wOakt3mhsAi5CFvLT6BZWMwW4hzeFsubhaG86vBxJpkZlFSDpzk1NyghVmBOJmttGplKkyxQS5rm0WaRjigToVjeE5qfAQPaEkaXS02M9e6VqTVhZjL5/j9gcTzXSCG6UfsIAyCmTpBCmQYlNwWjj4OVcnKlWQFZzogjNcqLBhLOypFrlqF8eFZbjmhmIBzWlnDJa/0NOkKGfoBre8CoAfd7cFvNlIk98NFm0+JWwoRuV9Pqq8t+HveBy1IeJ23cacPBmBgky3HWXpwXWA37KkBxUHk7syjpigFYHCCCXEm5WULET7gVpIs+FNbudfBwGaRYStA7smmMg8zN0r7fX4CDIyqApmaP4tU7qLW0C/hk+38fhjhRpA2WM7uCDjWxWGHDJZsLYToZPFZbm7lilASl0XEr1fmqEdZXzkjYeEbEsJQg04Yj6B30SdLsSaL4SbgHBb4twEphfkZ2wnyQXC5xDtSRkY6kkPei2qARimOwMV9PqoH5W2GHqKDd4TLRQS1hWJzNC7tSKWhN7ZjcocbwCssfgNmZOSNQhcAwB0owI2uEJ2qsxqyXhY5PucEHGtjg5ughqXi2nhuybwkzRjRomoiWXxLCohMIpliCTOOW5pQW16CUrhv7EmdOucrVxJqOI19vr4O2Fgm4AJarGMx62AO9HQjmY0PdK5MLixZoEuGGyhTZPofxzIbyJRAHWgHE7we6lCepT5k3QKgAt4blpQXjav9ai0PjTWvIW2GfDLOSL5BrqjxLHZU0OODTq7Y08dPtAZBYFgIoxL0ZNIhcRwaFIJMj2EwJngV9AIJMKwg5qIgDlSJ4DFpF4TFmQcNENzCKtw0XhA5JRWOrSBcHdWvhclpyTXcoARZTyeiis0tUNIeCRXtAkXImytDitPAGCjmCgjI6zX+tR/rUSiuxIM4hCerg83sAXxhtNzcKb2DX0+qrAMk61guR1PN4YNeI44W5Y3lX2+vw2LePyL7zIa7M4TWy7iyt3+OBQe7cESVoOOJwEw0HCCRCFZdbB47PCeIncp5xC44ES62k6xOFGGpw7SWkGDN08RIltqET7hR4DhJGikDmtIVXykrxkTCVbksBCMlQNgKDZv9ivl04huwGeXyqfTYChaIt7JSql4SNhNTrASjpNBMPPk7hUZMzpHZ+asEfEa6AVl3Q/Ixp3Zd6Bu32uSTbCJnBeAm+snN4S2vHHUH1rmAicBNKakv4qg3xlohAtiUyL9FXcpsW1qQK7ROsDgwlTS5AgyEOZa5mUME9FNwbYjGeIxN6ErvpMS7954iRK18yPHerJyIqYaBAvyhDmrf/uL/9oADAMBAAIAAwAAABAAAAAAAAAAAAAAAAAAAAAAAAAAAAAAAAAAAAAAAAAAAAAAAAAAAAAAAAAAAAAAAAAAAAAAAAAAAAAAAAAAAAAAAAAAAAAAAAAAAAAAAAAAAAAAAAAAAAc8cwkAAAAAAAAAAAAAAAAAAAAAAAAAAAAAAAAAAAAAAYnOLAAMCKAUIMAAAAAAAAAAAAAAAAAAAAAAAAAAAAAAAAAMAAAAAAMAAAABcgAAAAAAAAAAAAAAAAAAAAAAAAAAAAAAAAUoAAAAAMAAAABcsAAAAAAAAAAAAAAAAAAAAAAAAAAAAAAABUEAAAAAMABeEAGkAAAAAAAAAAAAAAAAAAAAAAAAAAAAAAABCsAAAAAMASwAAIAAAAAAAAAAAAAAAAAAAAAAAAAAAAAAAAAAMAAPIENY4MABUAAAAAAAAAAAAAAAAAAAAAAAAAAAAAAAAABAABMTNMfMAACEAAAAAAAAAAAAAAAAAAAAAAAAAAAAAAAAABIoABYgTkAABeEAAAAAAAAAAAAAAAAAAAAAAAAAAAAAAAAAAAUAACFaAAADAAAAAAAAAAAAAAAAAAAAAAAAAAAAAAAAAAAAAMEAAAMAAAEEAAAAAAAAAAAAAAAAAAAAAAAAAAAAAAAAAAAACYkAAMAACoAAAAAAAAAAAAAAAAAAAAAAAAAAAAAAAAAAAAAAAYsAMAdIAAAAAAAAAAAAAAAAAAAAAAAAAAAAAAAAAAAAAAAABEQNikAAAAAAAAAAAAAAAAAAAAAAAAAAAAAAAAAAAAAAAAAAAGEAAAAAAAAAAAAAAAAAAAAAAAAAAAAAAAAAAAAAAAAAAAAAAAAAAAAAAAAAAAAAAAAAAAAAAAAAAAAAAAAAAAAAAAAAAAAAAAAAAAAAAAAAAAAAAAAAAAAAAAAAAAAAAAAAAAAAAAAAAAAAAAAAAAAAAAAAAAAAAAAAAAAAAAAAAAAAAABxQAgAgCjgyCgQDRQAhCyhBQAAAAAAAAAAAAAAAAAAAAAAAQDiiggSBDQAihQTwADzDggCAwAAAAAAAAAAAAAAAAAAAAAASDSCijgARzyCxhBABygRSgzTAAAAAAAAAAAAAAAAAAAAAACCjQCABxCyDgAgyDjQzQhygAiAAAAAAAAAAAAAAAAAAAAAAAAAAAAAAAAAAAAAAAAAAAAAAAAAAAAAAAAAAAAAAAAAAAAAAAAAAAAAAAAAAAAAAAAAAAAAAAAAAAAAAAAAAAAAAAAAAAAAAAAAAAAAAAAAAAAAAAAAAAAAAAAAAAAAAAAAAAAAAAAAAAAAAAAAAAAAAAAAAAAAAAAAAAAAAAAAAAAAAAAAAAAAAAAAAAAAAAAAAAAAAAAAAAAAAAAAAAAAAAAAAAAAAD//xAAqEQEAAQIEBAcBAAMAAAAAAAABETFBACFRYRCBkaEgUHGxwdHw4WCQ8f/aAAgBAwEBPxD/ADMiVGEID6h84RYf1b4y1vonzgiVPk5hSDEllls/f7YSRuqV2g98TsA/FmF5K3V9+FRwWkGyntiAgNIewvfEGB1SujI9sOkxt832wCSeRC5KzoLhxLsZdF+cu/iqPEWHfXdFuUYcBmB6k+Q7pe0+Oo8RjZYex5CClxOuFRW8VRxURejGcKpOQGry1xGWlCESaxn+04KTdDq4EBbyL/mSljt4qjgBCG6yxtq8jOYlDGQRtYfUrtlfLhum3IZex5HHpkHye3fi56oHKF2a5XCG84cOtMqTuK5ekOJFChPk2ajcxUYgirzdX4lt60HgEQKEXjTuYL4lAJKtVavHPJkzzcnZenkahc1D6f0HXjP+UiWf3XFusrSdTZt0tiNUDls1fkOy4h4WQ6M6Pd1ZwKRBQjsGqvNXGV/OQtYD51ZfA5nPI5gd/I1E8p9PJzwWsKj6nFHYFSyXHZ7VqYVLJqXVx9O5DfBbCL/3F6j93oKczcjiYUqBz+quKO6HI+a+SOJyh6tnmZO4a+AJn5Gsam5bpfEw6Qi7bag3CaKeF2gJ/Jyc/JTnk4f2pU3xYPzWtj96M+Co8GQNUuo+tjfEf5gGx5Mhpzt7R2f7ifEoR41HGWUoD9Yu4B5uZrP0W638opeWTrts0bYYHVD+po8KjgsOiD3dAu4yv8kfB79jymJ0GhU+zZ5Q54qFKCr6dnPFRjLONWj7djnBnjNKdX8BoHvn5YSFajmYGPHv7o2rvgcdEBAf6S//xAApEQEAAAMGBgMBAQEAAAAAAAABABExIUFRYYHBECBQcZGhsdHw4WCQ/9oACAECAQE/EP8AZgE2KcGpFGej7is7sPuASY9HUCbE4LTAt909xZgne2K6naz4hmbPCrXtwUm/YpFU3vb8ziyCzKT7ntEpGSse6e4ESZ0JArhfBCVzgWH7vzVa9uZMO4Wn80lDKXg+egmYZPxDzVa9uYiU8j46DPMUFFHmq17cUmAW97ZGMSDw2NJmPBCb2JAB0LIxfnmq17cAByHtgZYunaYqVlFxd9srL+PZl4Gb6Ohz26B224rgmXUnrCwGAzXzOGIySKte0UXVHHI3bu8CxBWb0sD6ISpNbVz42qozq2bvQ5UXrez/AHicaSRcYKm/ZgZZgZmH1AtWJr7rDP4+U6sP4M32xfsUMC4+8XklotXos+Z9DpBiUVAxlxOPaezBgbf+nCAFItQt/LHsUPN/II9oBFOYB46JKSsbHvc8kl7VU/XkWjAWpdg7vonlyz0OW5289FHiYwi0XE5Kte3JSiquB+pnApSCR0a54Uf10IDknGrXtxmsqEHLZ2rF+i7pFFho45MOjknCrXtwnwj94iuBq7GXz0qjwUbz+RLLZc3MVa9olJkKqh9uUSOzVVV/mXTFIzG5hCkv5bWXvOBxAoH/ABL/AP/EACwQAQABAwMCBQQDAQEBAAAAAAERACExQVFhEHEgMGCBkUCh0fBQscGQ4fH/2gAIAQEAAT8Q/wCAD8KuKvZIIblwWOaFyGMH5QUJAWxvgn7UyApJ/Cl+M0ijIu/YJZ9qFYRWrXx9EHvbXLEj/AKQgh2fSMVI5GzYsrUuvFqDWYb3NHt9oYOYkVDNd3hd/wDEoQBMfok60JL7B7WLAPFA5pGvkLgdglS6dxHTuX3qmm2gI9kRwRRCtDMdoyPxoo7+yRjYxRYnn3qBE9FTt3GXYar2KJkxK9W6keE1fiOt5CxHFUKGgWbxYg/QhDBggHaZHkhq7nGTLyyL6ENqmFujqN0NPHu04txMWQAj39CnLG6UQAq2tloWZBs0PaaCgQs3xq/dgaH07yfoRrW5Gy8hoXMJh7v9ly2lpspLl4ZuARN/Qf6/d+qcNKUfQbRxzddiX2fqrE1byLF3T0HYin3YR170pB+pUJw0TaT5h+gxQkSN/wAdT5QPo9/YE2zZLiZp2UR34APkt4Vzhm4CtZmEfff99BoUJzIoRpioSXUAP3+iJiAjIWa+q6GDmlDDjBeVNXlutDHt0CDdYlQm+CPCWoyzp+CrlIfl9BiiJkrIh5TJlXeX6EeJliYDM2ofCg4wBjGVdVyrV6csiw3Cmcm5t4oqM8zHns/QoxVSm4MT4+gC2moXjmwLDTLQkWgO6fUXVqG5Mxulto6bml1gelCVOqvijLJNzV7H5+hT1fI9xHi3UBSwASq4AMtG+AllsIjHuFNydiH+2KJyLSpwMSOiId/E0yMJKtWji1ngWjnzTXTyiM/BajQF4Y+Ui+CWmFtXLL24W8ZSADHTS8gk7+hZVvKYFiPcXv4j9vBi5BEuYcjeirICFmWP3WEv0EqI4fChyJVy4LGWdm835x8Fhaj1l3ZppksFbVQJJLrd0MCApiaQgaUWwAStYADWAYNv8UN/GoEtRIFiZAEXHuL0LwzRI29kKGouxmwI8kw8+KSEpeJN0NMr9sUIsWSNy0SwcPQysWCwL7YyPzIxWFuMQtTm6bwYhalxuZQdsH+pQErVuTixDummA7DmVpLdELcGVGrZ4xuoAIMHjUcAeDvvuHLSyL3ZWo8q+howGiZkruCDsHxwi5LiSwfGhuZCny2AD5QWRGTox045LBoXYuFcuFPwlWqRsYFDFCJUoxCaMDmORjSLt1WnyJReMQfky0TE08yKpTKnKmV8g7jhV5SA0kDefoccowMBmPEhJuCoZueJJs1t6f51nYZZw2gsCJJ0OZVwzBkkSE9CZvvc2PrGDd2rClDZcexDd1F18hE0Bdaz4mDKRNMim7j0OeBDyISIlxGiiELEmJwwWhseNaEohGnScmoOdkM3Fsv0NAdUYAMq1PcyQsbvcXl0ng8ieIZjBYeyhxIGtIrysvoiTi3PT1fEJcXdk8hdlUlMEuISJUHM8QKwbuA3MJ0ZCEW3DYpgP/hQCCAseQoFIChlfyWcQb2kuJM9ElKpCppQXESRKgkcaBAQeANoFbpeQHYOAnR6OVWRplJNJJmsyKyNzKj08UlOU/w0LFvJMo4y2w4Rru1iaeoolW6r6Kg8WspiGpkNWBRkM+A2QLIjPkadhE+Si8f4UIvYpp3FzMbzennYwHowu2QzUq2u8J0H0CxdqGGFjLEUyxO+Bo+jXYyBL5QYRpEMVQiQDzoMPnnYsrFJDsPB3vpSnAhVCVLdVuvo4GxHOEdSsjSWKELW4MuZebqcnAhEWTKuuCm41JlXAaDAGD0gss4Zb3ll8jcotwErO9sryFk8s98TLfHlGXXBTDut1v8AYBWA9JAQATrO2b7DJeil0gJcMuVwlzELT5C/DOvCylyyHAbiJ0qnxAFYD0oc0CpBo6KLKslmiU0AYiW2fVN3NwCJJ4VApAZawEOTCIJZbLmpmjoYKspVX+tPSzoHiDCJhGhJAFHAAch7B2gRpI9Lk1MI3GzfrKXAXwBlMAVbBNZwyLMiCXFoYsgWiJZW6vpk0wldIcow4c5JZXiRBjqzwHBB1heo5dpreyEkXO0pKaTJy6S0nSd1K1X04pphNQYRLjToHSplV1X/AI+L2KWLBElw6ocNfu/DUJLAbga9Blm+3XZri4PoyQ5r934a/d+GkZFrt7r7lFsVY2XSsXdpCz4BCJoj1BDK2ApshFk62TDaaheTKCmwPxWj3PZCxj7gFAWNLIHeLrFxr0asB5oNmzLB7V+78NMI4uRmsYlMbQ69Xvei52bASaNqfM6I1oiZEGrbofBRAF1XSjVMbu2W4hjmv3fhoT8FoNptOoaG51X5C52UEUuRxev3fhr934aPphQBLtKR80YgkBE08W0lPQUQjZGnktJTOnoyyXr934a/d+GsDwH3Yx+TUlqV/wDX/AzCmvHKnGioT+RdyDAiG416dEaJHiKHvTTLoFdtIsAzmIMGUCkhPQIRLIm54sIABIhIjkShMsCOGEStogWTpj77SaiyWBCygREaCMgtQQALqtgKgyJEYN7IQsmJMAbJFjkAAAGAKUCW1CJJWSbFBAGjw5G5ermeyqsvyja4gWV+SqLw3NAEVEjR3SFENRaHyJsDgDQAg6ON7iZgeCLxvGTuvAAKCERsiZKK5YgagpAuAAVC6HhrncR3JuBUlkg7NmLcAkuSKC5ZC4AQ/jy0mezMFsoIyT9Cf4XYaZKAUsDkpKiD5AhEbIlkpoDCLLYHEpRDGPBhSL/cn2olN1oijEQtZFDyNkqOg9UrgZIKYJFA6OsUQcN4EalOBDRCx1DxGyYG5Os0AEFJ0vGkU+ggEJIJCjdrS/1nRYStqtEu2Hi3BA4hTkLVGAHoAzWBSENCtwMKCIxdUJIcwCg8movDc1jYs6uyuiqe4UiWAurRQBeBQ4IQIF873rJ5P8qcKFW/EPJKM3HGHVOicIkfatJ/RIgdoUZ/g9kbn4RAt6mAFqD4xCcQvE0AE5hIXxsjkq9GS73D7dLSCdOwp0wJvQDrWJtBiOtNLXo6kYGiBMApAiSVshaT6ZcNESEhL/jwVgy0MopJYgrcADhN6AhMIDAJOhAaqFPcTUZqMuQbAcUM3KusfcUtmu3RXHiYYnJFTDJm4k7Vaha/Fm+1QYmUIANfUcUQTdh7JQLldGayIVocEiUMpW9G0mAoxNZlZgHRpaixUixKVgrJnExmHtQg9vGq8NzcyT+ffkAoN9gkA9/TRdYpubWRIObrHJUNISQ5A2Uma9DbNnwXBIGy6p2z5D5KCNEDQUSShh3e9CSqAxEPJAJFfQpkUIYjZrwpS6qtMoAYHWyK2BeBr706bvu9P1e3SpggGRGRPenliLLiD+wS0W08Eg2jko2Y/jky2E2WdbizptaJKCKAEABoFGls2glWb3iC0aDGOMDDvAlAtRygA4hZko10tgkGo4QXFwml9DARLQN4mRueHDEJ44ZJM1RBQ0EA4Tqd6pbHlBaPdAc0TD8JGNiHddMYCzDtpZYpgCRC7Gdr/wC4fmgZZHU6fQKE0DWCZ+50Uc+CAFI6widzqz0U8isTOprUSejSXReQmI5hbJ6ZLlb4BkgjeCkGKMAkYL1ITWhWdccBgNBCREaw7C2CWHH6ImwlvCnftAFglDcBQYTAxVqnSsilVis2pgWHSv8Aq9ulvQgMqsBQ4l7Q4xwvzDR52gYJzNIJU5/jrRcQJy4ysxqN9Kwwe9cf4/8AKAECDocY+sRhNGpAa3euFUaMo5uAJI0AIgPJYmAG60ny6KOSQDSQSyrpCRMghQT6IAMhNIEmkgpcVwLuTIKVOhpYYS/gCwuMZKBhRdHtFGHCZjuFOxyQQWJHBrM9hrVV1B1IytbSWtHS6gYZCEmV+54mvQ70HN4OXIAjWVC6yPVRiVZtIjo1BaFUqcKCRAVJCoo1egEMLAACntvxhJB29qq8ZrspwHMK3RXTDB71x/j/AMoIsUf8oDqJCVb7WCGzuSyd10TsBCMPtRlb9u+ROCSkJFAcSkFw1rlsXiSyUEbGAXdwYsItxCo2EYxKQ2AwCyNutc1ax7pTjIkm1JrokXdkHKKOedaISCRSRAuGoAIMFCuS3EQDjiYlaTL+OPnUCLGF1UAVZ/7K6GdRA2INKBZitLnjKajhSspVsGxKAXQ6AYvUAUUrmEZdIv0stMkzBi3XI3E+HCsXaEVmpARJC7s8IAY2+w0AtiLHhQMACkHWvElIACCIklAwncpFkGROm4Gow4okS4lDwBwH+6gAdgH9UAASowAZVoGJ4AExmKohS7WVfkfQcoYRJR4TShg8lu4jj6PkmwL96OEAwFispu6K7IDTlgLtWvI8lDmhzekwCD1Q1CZBpinsoUCaG9wkLwPUCBtcc/8ArghSIYBeY6XgZtJFnQhcPRP+m26OuO22Jc7EFg6BGcrzHTc70gG98VdOhVKRLJIrky0zSKL48lhRl1gKrlKUX+NUXZ2SZ1CEBY0oGxSI/EUgTNCZXeLTPV8Z8f5AA0lRffYpQCxLAX0pmiJ600UYdqWQIlaJDIjJYv10aFqjS7sfKDTB4Mj5eZhDJSj9VCHKrdeohjJEYR4aj5dLxIw5YCbUYbFwjuPhxPvTDpA77lxOI96AFDLZy68ReKcOq3VuvQdsCucJI5Gh9zgtNpUitLNVoWnyn7JHyokwI7TwjROZOKjtwDhgRkFo4cqpko6TQhLTgBF+mhWhylVRlFVgCesCVfIfJECRJKSaQqGbUJ2IDSDxTBUAWo1644TYwQyRAzUKSE7lBcDDAQgL2ltWqHPCCmowSyI2aVLABWRjVjVTzVRT0koIixYDpSh9KlhimYZWddGjGIBF2CHyVhh6e4kdsWqzK6ZqVNSuVf8AuL//2Q==;" vertex="1" parent="1">
                    <mxGeometry x="250" y="640" width="130.44" height="80" as="geometry"/>
                </mxCell>
                <mxCell id="I0mVf6kvE5d-BuWw-hbC-3" value="Areas" parent="0"/>
                <mxCell id="I0mVf6kvE5d-BuWw-hbC-5" value="VLANS" parent="0"/>
                <mxCell id="I0mVf6kvE5d-BuWw-hbC-4" value="Devices" parent="0"/>
                <mxCell id="e9BGIbV48YQ-_9oPhCva-7" value="" style="shape=image;verticalLabelPosition=bottom;labelBackgroundColor=default;verticalAlign=top;aspect=fixed;imageAspect=0;image=data:image/png,iVBORw0KGgoAAAANSUhEUgAAAIEAAABoCAYAAADW65MaAAAACXBIWXMAAAF2AAABdgHpzkeLAAAgAElEQVR4nO29CXRcx3nn+7t77xtWAsRCEtwpUZK1W3IkW7IURZKlY2vsJE7kHM/J5OVlnNnyIp/kZTyZ5eW8ycTOyTiTZM6byfaSeBJbthVb1mZZu2WJJqmVJMAF+9poNHq9+5yq2wApWbKhGJjEo/54Lhvo6lu3uupf3/4VlDAMadO7m9R3+wS0qQ2Cdz3RBkGbaIOgTbRB0CbaIGgTbRC0iTYI2kQbBG2iDYI20QZBm2iDoE20QdAm2iBoE20QtIk2CNpEGwRtog2CNtEGQZtog6BNtEHQJkH6VnQ6euYf/0ZHUL4259bn5jydL8zEOVHU2EMWb3GZiqXRrRiUajWIGWTRKIYueS1Gs9mkbql0hjrFwCGhGWiuT0kL6dFMVhwbRVNIBSpF3adbsSjbDVxNoVu3mPNtMqGOEoSUtYBudJY8G1NRiYvnaD5dgUYl8PCDgLxmsqi4ZD0FNJVK6NOtmcz7NglPDM9kOXTowmA5cNC8gEIiyUJKoak2uH3HPNckivhoPFnp5qtTeXzFAEWJLpHMHcL7lJDLkinG0HnFcSBwMLQYl2oG2zSDFxybxVBB/BOf35kJczsK4YlLrvgv923FGl1Im55yPjr+qS97Z8Y+ZKpZEnEVzwtZnFnl468UGC6Z9OgJJk2bYTfOhFqnYOvUcfEI6dWTTJjN9bbOhkZV9dbbprQGg0HiDW1iIXOYLMR9hr5fW5hkQqkxECSY8+vg+eQUk4WYL9+b0OsMeefbsprFoukx4MeZMBrrbZrtkTLj2F0JrrYe5c7Dg2SyKfndJ6fKfGF8hd+ZL4BuRow2CBj2Pf5YNUi8/x8T03QUXcUwDMxYDMtKyJ8JwPc9+XlUFUUR1xyGOvrMvH/dr6/N7779+761qQu26eLgzL256YWV27pzBXYNmPKtgV6DQxcV+OleFXNqlQPdA4z+7TP85I/fyfjjR7h25CC5FV+2XdQ3vN527vEjXL3nEJmiK9suHRrh5IPPyraTDz0n29zReYyZCpcO7eZUq+3UN6K2ysvjsu2KXfuZfvI4P3nr7bLt2gOHqR09Q79rcc3ui2Tb3e+7ibGvRW2V756WbdfvPSzbbrniWsa+9qxsW31xjN4gxg0HLsWdXeb2w7vYuyuHaSh0ZDWuvKSDO/sLYDvguOB68rVeqjCtZOnes5/Mrt2kh3YR6xtELXTjJlPUTYt6zMJOJrHTafnaTMRpxHewan3wvfFE4vG169SpU7+1qWu26ZzgzL03PDbuPv6BIYPxeY3Cwd/i5LP/N5fvafLMqTif+GdPo6kqDS0g5ik4Bhgu8j3P99/QZhtgttqCMETXNNlmOiFNPVxve7v7VEWRnGC9zVexW/e9ZZsWYnpv1xZgesob2i77wHv441/yqdQDls2fwqBKn/51imWfwT9dINQsfLm9Q3KOwk2pDj5/329vaBof/PrXmF9Y4LLL3kNvby/d3d3rbcXiEmMnxm684+47No0jbLpOMOcq0Q9+E3PxYVJaDdCwg79bf4qiYAp2GYZomoJpqjQDe1PH/E5JVRU0XUc3DBTFI11+kEqtCkM6QqRrvoKmgOMFEqShEzIXeFiWtaEnXXXV1YyOjfLaa6/y0EMPMTc/x9DQMFdcfjl79uze/O+z2R0+X4/juCFDfQal5QfZt0uT73/lrM/Bgwf45L0/I3///f/8u5iWyT+658OM7Nwp2/7JJ3/ufJth8HP3/gw7dwyzd+8efv6Tn8DzPH73s9Fu+tVf+RcMDw3J+z71S7+4ft9a27beXtn2L//Zp0gmEvz+7312va23u1u2if5F22//1n9Yb+vu6pJtP/nRe0gmk/zmb/zaeltnoYPrr3sv9/7sx1nRNE6OVyhkfMz4MkODPqbu8uLZCnbdJmh4qPUm2C6KGxCiyPFv5Orq7ubaa9/LT//0x7nvvvv43Gc/x+GLL+b4Sy9t9nJJ2nRxcNep7OPDk0v86mGFbZ26ZI+fP+JyrHYQfWJBKmol3aUztChik7BDmqFPoEBej7OsueQCg1nq9JFksVlBNXXyaoxZw2aQFGeDVfqDGItOTbLbvkSGacNhMExwjgq9jsWiW5OsuzeWZkKpMxQmWophUrYJ5a87kWGcGgNhgqmwxoCSYtGtguuT0S0WDZ9+4kxRZ1jPsKy46I6P7oXM9Vuslif5k5t1dvVF+s9zJxp84m+WmG143Na/k5V6lcdLs2TQOdDRy199emPi4Pjx47zyysucOHmCaqXKwOAgIyMj7N69h6GhgX/44oCMyu9Wk7z89RozsYCuzh18e3qSL93wY+y7bTuJZIJEIiHZvGM72HZTmoXyajRoNBr820f/mvrEMoFd5MFkg4OFXQzmuyhWikxYISsNj+mUxZnFGTobPmdDh1dKRXACkukYzdDBDwPJmhGSw2vZaeLyQzCU6HU5jGZAfM5HihwBgIvT3VhBjdCBmlnnO7UFLMWg2qhKM7LHjLNwwmFwWePj3yhx2/sP8+Tzxzm052Ks6XnCoMKVuzJU1BjfmjxLoJio6VAu6EZoaXGRkZHdvPfa6+js7Nz0JXozbT4IhDDUNfYYCtO2zmjVxnU9LE0jCHxKS4sUg4AgCEhnstRrVVzHIeJH0f/pRJxaSiefT6I0bJqKz2hpBi30pT9ANTRemX9dLt6EpZCiCYEKaRUlroGnQ+BDuKaIKJHpJchUWqsuxhpGlxOCpZFq+NQ1lVUlQFMU+hQDxQ3ZoWeoTyyQXFyl99AIl5hJHqwsYrgejuvzwKMvUa3XWSy+gNeVxmnajE+fpaYoKK6GovgEjku1WtnQFB48eHD95zffk8llNmGR3kibD4KyL3fkH+hxVNdjZzwFqib0ZFzHpdG0SaVS5PJ5zoyOke8oEIh1sG3JCaSDxTJ51q/wLHVpM58uTrUWLoCkKoQY+7qHcQOPuu3QY2YpxstUQxtT0wmCOt25bmbK8zhOg45Mnt5EjonGAoV4hqrToFha5lD3LpzQ5dTSWQh1+hZt/K4kJceh7ja5/Yqbabz+MtvSHSw1ytS8OFcXhhivFQl1jWosoFmvkk8k5fiV0KCuCwVWI5PuAM8jcMcJjBiOAMEGOcHU1CSNZpPdI9+rBP5ogCA87ykLYgarVCGpEBJixWLMTE2yra+PyfEJSsvLrJbLDAwPUavWUFRFiomQyGEi+zJabFp0GBeeOB8UlarQB9BRfINQU4mlk1TqLo4X0hnPUq6tYIYKvqrjuC4lu0GSJKGj4tSFUyak6Nap1asR9xJSYkcvl/YNMbq6zLGZszz00rfpSGXo01UpBsIgQFFV3OUKqqUQrzh0FApcdGAvzz5/lOuveQ9PjZ2knI2zbds2/JWSHLOCLjdBZcMgmObEydd5+JGHcRxH6gR92/oYHBikb6Bv05dsS9zGkquLjZsICApJxIZuMWBS6QzHjhyl0agzMDjEwvwcp0+N4XoeQzuGpE6gKapcaLk4SkDCNNGIuEnTCfEJiSctAj/g9OosDjlW7FV8OySlx1n0qnIQGgq+4+JbBnPNeUzdkD4HMby4kWB2eWadwaCHvKpVePXccfm7oatcfeBSvnryCDVVoZpSWK2GKPYSXqfFYqnIYGeWpdIqT5x4HSeh8thLx6G/QD2m8OkzRwmCaHpVVcV2BSfYmDgYGhyS1xrVajXmFxc4evwYV159xaYv1xZwAiItKwNKLKSilOTvSgsGY6OnKRQKUkRXqzX5WqvV5USJnaLrGiYRyxccRVVUvDCg7vuSIyRNi5prk46n0FWNit/kYMcw5dAjbSUxVJVzpQXp0FHDkJNzYwz0DDC3Mk8mmSeVzLJaL9J0mjSqzYjTOEJRDCIdQo/0B1dR+ZPRZ0lZFrN+je69Q0x36SzpHqFlEdZ0zlGGkVh0L/GIY5k2aMb6XKjiuwjrJ2TD4sC2bZaKi5RWVuTPYqyKqjHQv33Tl4utAMGl+Qxf6auwXc3gu000q5OpcAlhik6cG5dg6Ojs4Lobruexhx5l997dGKbBS999iaWFJXr7erD9lhInJtXQhBtPsm/k3arcvcVmnZiusezUeHLyJXxV7F4DS9Wo2nW5ALlEhlCDk4tjsrvySgWqgfBdRWAVIsf2z3OuNQtCsH+h1OkhoaVw33s/TLHZoCeWxgk8ak6Tvz76FC9PjYFurSu0shMxZjFWMWYfqQCjhpKPxWIbcxa9cOQ7uK4rRUp/X7/0eWwlbToIKsImM0Matk3ge2zT0uAiQSBY/p79e4gnEtIpYsVjVFYrdHR1kM6lJTcQFKzJDlXhyjDF9GqDghEjq6gc1YQ81xgvzUWLGQNLNYlrgvmHaIpGxkrITd1o1gnVC/0gYcT6w5abTHx7U21ZEYpUDoWJGAFCjQbiQ18qT0w3uLx3J0fnJtid7+EP3Qfp6x4g5vri6xHoKopQBFWVmaXZSC8SD1JC6naVmzs7SCYTG5rDWz94y9u21aq1zwPHfpg1ejNtOghqtgLL4Gmh3AW+Y8uAShiEdHZ0UK/VqNfqrJRKHDh4gOLiElMTU6TTaTwRcCGSBNGOAr3hYxDKGIMVKtwaJvmi0pCTLu19Kb816tWGXFcrbtJwbAKntSPXACU6DVvyX1HRhHgxwVcUEp6Kq6kc1tJ8fHg/5ZV5XlTha9Jq0FhqVrm2b4TXlqa5bmA3rxVnmamvcHl+O4/ffTv/8cH/wZyZ4tPX3MgH/vaL3JTq4kC2l/tPvcakppGLGagLY7zw0JdI+XWmO9KMW3n2NYtUJ8p4rs++zhTfCHRMw8QULmldx9B1dm9T+eBlI5+vN3f/jfgal19x+bfYZLVg00EwI+Tssk6PlqLgKjSX5+gyO4RrkmwuixWz6O7pZnFhUZqKInxqxS0JGOE8ajYb533ZYcjRhEvcM1jyGnJn3aR3k64LhVFHaYbYqi/j/rep/XirNZ72a2iuLgNCduhFyiXh+d3fslwOa3H8ps/xsMFPJXu5v7HCnq5eHjp9mkqjwlI+Jn0N6UySAx39PHDmKDcPXcRvv/g1/s9LbuaDI5ezXF7mQbHQocZ0EPLA6RP4ZoK853FpNssTRoxp1WDJjJFIa5hLr9Lfm+A/lhpU7XmOKAG/mXUx092cKi5wpGpIX4iUfC0dxQ7i3HyFPnbbh/7FpoeQ12hrrINAwfny06xWXfJdneRu3StNRGH+CX+83bQxTVNqvUEQYlmxiGt4ESfwWn3kjSSf7L+IPjOBpetSzCqGyU2+H5mTQSCDOIamRVJZgTtDaLo2j5Qm+eLEcdCNN46tJftLuokmRHS5yUnLwK76nMHmQCJBLJng6fIZVOH0KkQRvJFCPw3P4X0DF2H7Hvu7t/G5My/ymViCV1dXwSsyrsY5V5xmh+OzYGky4KVIsaDx78sWvZ05FjyNnnQH2ZgvDBJ+uVykUCtT9ixiUgKpqCJSqWjogS91HKEUbiVtCQhu2L6HE8VvoQQKBSfLPjNL0FrgWDxGLBZdQk+wLFN6FCuV1UiJQupR0i6PufCzN91C0jSpVso0m450utTrdZpNW/7eqNeJxU3iibi8hFhJptM0Tll8cfTFiBMYeqQEKuG6XnA2rIEdcs/AXtLNJk8p8O3lKc5pJncGaW5UCjyxPMMx7yRLF68S13Q++9JjfHLfdbxanOX/O/ZNCShDNzHUEF+EvEUiiRLS2zXEyMgh9OKz64ptBwo/pvk8X3VZCCuoQSi54z5cDloejwRxYUmTDhTZZgQBVqBgSFVY+QEz/sPRpoNAZM48vziHJcykwJP2drLSxPO99c8IBVCIBaEDOI6P49hcGMgSOxDDILRDspkUy8slytUGvpDjYhl1HTOpoZom6UJOyk/Rp6qpUklLdxQY3rZdZucIXUQmd4g+9chlvEOP0XB85lSHL86clQrlGjh2ZNPcPXItTzz3Na5JdnD7jffwn156kn969e3cs/MyClaC52dOUbGbCJPk3Pw5qfAqAUzNnyOGSlWDZ5cXKMdUAkNH93x+NeZSbuS4pb+H/15coqbrFMKAf9LTx2jV4KpCwN9UbAwvkKlxgksI4G1PBiSVrU0F3XQQND2H/WGO034oU6c+ec9dPLkwzp8+9yjpF57kqu5u/tIpEeqKdAgGYRRHiC6ZhsHRxWnwInNLBJZmZub50//2p3z4ox+RLlkBhrVXESHSZFwikEASPw8MDUnfv3Ay1YR637I6pLLphxT8QJqhc4r0TaJp6np8oV5xmCqXmHAbJDWTs8tLfHn0BR6eOMXPHr6WT4/+BdPVYtRnoLJir0hdQ4i77bbKwdUMX6uf5pHGEoEeJ1Qh59lU9Rg/8fO/TGehwI9pGrqmo7bE2FUChorCR4S3VMzD2oYQ30ddJVT9W0dPjeVaU/y53XtGVjZzzbYkgLRdiXFOTq7G9t5e9NlxsrrF6dNnmS2WecqfRxXmeVwnjGktzT2MTDWBDJkzIhQAjXq9SXlllffffBOl5RW564V5KV7XxYeqrnMJTdewm01pZ6tCniqh7DLW9DANTU72TOBSFmzaiZREXzp5NN6jJ1mym/zikcdx4yqq6vGXo9/C1zUqzQaf/843UIVfQYgYU2sFpdY4mIqSNChpJmG5ZWqqnlQuq5rJak8/A/sOfM90KW/x+kYNICveuyUO0m6sVis3PXD/Ax+/4+47zm3Wkm06CBRdkZ46wjWXf0BCUWkSMiuca/USh18vEg8UFNPg5Us6qZrheQeOHUoTrjuWQG360pw0TJNkKin7X+MAUTJvtMPFLhRsXyhhol2AxBZ5frTiGAG8r9BPRtWI2QHZmMnnVybRLQPPaTmLBOcSVqdt8/FcF/+dpZYuoUQroyCBfFk1Rt3SOEmTFaURcSyiiOXJyjwnhQvS0qOF9AJppsatOC/4GvFYbENz+LnPfZYzZ87ImMHA9gEOHz7M8PAw8Xhc6E7vBYaBf7ggEF/8vHyPFsZRI/N8VHWkRj8wOUXF0DFNC7yO1kQH0qkkF00ToX6PHlWVLuVUKinNSVq7fo0DvBVFIAkkJ4gcQIpk1w/XFqVb4a54B8cUV5pghh+5psUyik8/Sw01qTOQiEM9cvRIti/AEKqUVZvHUz4dFZXepkZ3oKEqmlR6A/ENW+an74KespgIqjLrWCiAQs8xN5he9n/9apRlPjY2xrmzZzk1Osr9X/kKfX193Pbjt276km06CEJPWfeWCTAI9ity7QJTZ7cW5wPpDE/sWqZRreMYBlWzxf9kUh6R8hYqeIEv9WIRXyh0dcldQCvnUIJMYT0eIZ/bAl4kGjwZOYzeaH1G6IdKyF83i5h1hcNGkq9+7Jf5f194mMFsF7/z0lNkGwFFM2C0viIV08iiiMRSxA00yaWyRyfw6rYcSxANSn6FtbEFrotiGSgHekWMnMBKSpEjLJl3Qv19fdKpJnSEPhGV9Lx3dP9GaUtMRBH0WVsUOXfCplcVaukUf+xUaV6yLWINaovPKq0sILXl0VuTJUEgOcHAcJJ8If+2z1sHRouRlJZLeE6LEwQtb6F4VktBtJyAw/k0P/elzxNqGv/19DF6E0ksR8O069xZyPP7tXpLRK3JNZVuNUmn7eOG5zWB70ehEAeKJr+WH/gbDiX//3/+Z3znhe+QLxTY3j9AX38fF198sQwnbwVtCQiCC5J35IvSStdGIZdOMddYbqGjNZtCO19z8SqRfBbmZRBGkcVCR0FetHb82qJHjpg3U8jCwiK2cFevgUp9w2BoxjSeVhxk6Mf3cfyAiVpFgkQzQ54Q94r7xJj8lmwPIw7VKDfQN5CXGXm+A/kdA+FHcPwNRxE/9KG75fVmEia1qRk/6PZ3TFsCAqXlvlOk6dNydYSRc8S+QO6v5/atifhYKw3MX3Pz6qTTkS7gvQNWKOITrnjQGgBC2KUn6RYMIZlmW+DxZbuEJ8q+HI8P9QxQtz3KdpN9uRyrzQavilwACaLWQH2fHckkV3d38Mir01Jyff85CBksuyjbMyzWHMnKN5pP8P2oECv80H28mbYon0Bp/RheWI6HFUth+jalugrxC5I/1za0WHynxUqCSESk0mmZulURrtm3oQvFgSAx2SIOL0mJ/A2OEtLQVearJc6FYnMHcpHv2DbM6PwUgWbimSpfmjwLhoq0YbWWf6EZ9bHoeDy2Ms9G4KipGjlfxTKSLKm+NFer1Y1xggcf/Lp0fHV1dctQck9Pz3pboetHAQRrYr7FC6THLgilOKj7dmS/iwQyEW00wojNai3W67YAcEGCaDqTXs9GfttHvkEnUGR42vXc8wWhok7QazAZriWrtDiEBV+tTkJKjLERfTDXSjUSCQqeGo1NhZ3xHO8P0jybqMu3f5APT6ShvZAKCEuLMgwu3NwbFQeHDl7ESnmFqekpzp07R7VRI5lIMTw4xOCOwQ318U5oC8SBWNTz3Yo1EI4dW1QFB6HM2An81kIIZ43aUt7EzgxbskSmlgUooQBB5geCYC0PITJJVVZWSiRSCfYms5z0V6lofiuC2BrfehbJGidqjcNvjUEA020prMJ/a0QcJVQ1GdzhB+gEEShbv0i9IsBHxEc2Jg7EfHV2dMpLkNg4U7PTMsVsK2hLdAJNvVBhU6RbVnyxiZUlGU9hzRe+tihhuM62zyuMKmrMkJxARB6l6eX72I4jPYJrwBA5icL0ajaa1Bt1apUq2XyOakxBLzbRUmvfUoELh7WWAaS0spbCaLEijtQCgBisHqIaKheFeRmQvM4o8GRLar0diQip1GEEN1I1wtCV0UExxo3Q6dNjTM/NsFpZlWIlk83Qt62fns7uDd3/TmmLEk3D86pBi7ULJ5EpAjxCQVSjsqyIgvMyRD2/OcWvc/Yqf/PYowztHma2WZWBoAVHuIQd6QcQgHBtW3oHRVauuIRnMVm3+croSWKdGlWvtSXfAIAW4MLWTlVanMjzo/oFcY9MAjqf6fQVZZyDWoF7krk3dfa9JJJBhGXQm0rzsW07OTU7heL7JFMbyywSeRe5Qo6e7p63q1/8Bx47UKJMH7Ulj6UrV2gBioLrezI9XHKCC8zIdTGwtltbjEL0cWz0NZ6afp2xRllWBp8UZcVrcp0LtE611VEzymySQUHdwhfFJuucZ03fiIDRlSzQ76VJN0OMmM5T1dO4smjlgkVeG2sYshTaPK3VqF+8nXnB2kPYX1VoagpTisOIrbCgib4sFuNCDwqJ23PEnQr9hkkqmdzQFB488L0xhjWan5n7iTvuvuMfdnqZIOG2DVu1AsLbJTTd6LeWG3dt9cO13a+cz/NbsxZEtE+BU2pN1glYQYhtadHnhBtXuWBx18TJOiJo9aNFvv21iEzYApofBZqyVpL0c6dZOHMGK5nE+MAgrgxEtfQD5QIRoajM2zXmlQp0WZDVZFtHopeaAqcXpylkuml4Tan41psrMg7hug30hEWiusgf/rtPc9OhHfwPv8FLQZwdgcsvJJO8cG6Ow3mFf+/HMDRDmpeN0Kfpe9y0O8Gnbtn1z3/8tj/43FasFVsmDgxd7nwxmUKOJ3SdknDjCnbbMrt1URMgC0zEW6F0JEkhImVyICf47qE93Nw1zIvjo1zcv4NvL0zw2dlTYLaSRFDW/QARhRcobUGrTYlSlc7LJwmCgWwvB/LbSKWLLKzpo/5aprB4vhhk0DJXW9xLRBBbhSiRB1LjEXep9Z3hcXuJDj1GXRS8mjopLAaH9rAwMc5f15rcenGBR22HSqybEaErBAEP1+fZu93kLx0VRZxpEPoYobCqFBKaSFjRpaWxlbQlIPhC6TR5kVqlqhx79RSVvMqt+R7s6XMMWV3YisehHcO8WFvgj+YnWTttQGbaNDxurJky3u6cOs5ceYyzkzYUJzktXPdeSCgif5Z6HgDrYkW5QA95gxKw9oTIOSVCcMszqH6d95vRBLthQGcyS60+u77AMsVpfYaCaLoaLhgBfZlOZspL615PUR9577b9rNZt7j97HDOZwWs0+bNXXmO1XmXcC/jzYkBMUTHsVQKhLKsqz3sWzwUKnuuiG6EUnWL8ovYiqRl0WfFItP5IgUAUWYQ2KQLq9VXu/+YTHLjxElYXR3nisRdRXZdULk/QbODJsjOvFagRIsRnYWKR+4+fIZvLceV7BlE1C0P1UBUdTQ0J10xKt1U/sLYrL9Qv1nUFpeV3UNbcmBFpKsOxDJe6CT71sx/iuaOvyOabU/18sbhMKXBkPaWUVZ70LLHXzLFdUxgY6KOgWBQVh3M1l+96VSqBz0WpLoaz3bzYnMS34nSIBEYDJlwHG5U0kcgTmdOXOA2WfY/X4xlSVkyKj5QZk0UqAiQiziAUS8UPUD2H2I9cjqHaYp2tVbE9j9lCgiXrEkLzu8LolfLb79lGZWmeu+ys1BsMy+C1ZolJz1/vqn/kMP07D7I9+TpXDu1HKc9w5twJ6nWXqfkyxvZutncWMA2LuBGjJ5Gm7NTpS2QxVQXH95hcXeHJ8VffKCpckeMQklKixDKhvAoulHY19LBVAykAID2YgQRBn2lhTBaZeum7LMocNoPeQgZdxBkMhXG3zpfOvsKx5TlR8MD+nl38wmXXoku3udJKXFpzgl1Yg72mPCtRepzrRhHUluQyDJ/Vsv5LX/zCF+9qfXzlwx/98F1sIm1RtnGrikcUZlgas77Lv33lGUa2dxGuNEl35vjm0ePUXx+VEyDYnXxVNS65ei/FVY9UOsXr9WXqR57i6Rx89rsPMqJZ9Cw0cdAZ8JPEenZwxa495GMx5l2HZyZO8oHhg9TcGqqYVgV25HoiEKzXMkTsW6SfiTXR1POAFTI6E2qk43mKzSqFZIZFty6BELg+TUceYoAlTheLWZTrtixuyegxCZ5XSvNRSbzjoqsGqew7d/G+zYLsMmHXD7ss7/CZPyQpKnMfvVZOuMgJeP7w9ZRiKs9dlOczEy9JBfHWBYOxNz1F7JjGwDaOFiJ2/kc7DuDPvsrIviv51PPfpKcM5nA303NLTDaqVM+9xhsTnHAAAAziSURBVCPTp1CtKF9PpGc/MzXa2n0hCcOg5joXGA0tncAP8PQQD389S0kqsWHINsVkZ7aHV2sOg7E8j4iqZTfg1MoKMd1n74ERuuJJXivNsVQuo2mmfF6lUccQ/douWqhIh1kmk96qddtU2hoQqK1EDDHBPpQdm9mqQyPjR8qWyC1Q3yo7KIwCOy3HUc1zZPJJ2BB1hzpab5reRB5fs+lVQ4rZLl5rLGO7Tennb7RYvt+yAkRoQmQyS1rXFSPTUgYyFZHTHymGMgOq6bBweg7/yIQEypHcPAxnZKSx31Awqz7fmTnLNYkse2NxTiRUTFWcYFLng/k+FN3l0flzKI6NZVjS5f2jQFsWQJKaVsvC+ubKPNmqz2P2JEk7Ss8WR8O9FVlNl4zvo7owbjcw9RgT9WUsX2Gg5uBpDmq5zmu1EtpqjFv0AZ5tTLCsu9yU3kbVcdiZzrJYq2KjMJju5s/nxiJrQomCQ5lkCl2ANIgWfx2CfkA1oaOICF4yw4K7gtb0CW2Ppt2QJ5OETYVvBkU6XItuVWEl9GS0cFBPUUl7NBZCUmEgGU86+y7lBAOaxVVGnOed5XXXrDDHTEMlPDXFdXM2iZjFKaP2PfcKTu1OL3LpuSUs0+KoP0ZHPs3ji5MycpfuG2Cp0sBfKNOXSrDq+qyKE0jFjbUmyUoDr1ohkTdIVqp4ike2M0bSDbGF30iNUs4v7t5BZWlBOobeUO8g8heTMZycRVk1CIshuVDjkoaL21zgVLYTXRyz4xkMofLL19/IUwuT/N7oKzwwd1oeqWuqOq6VoGo3yLxbOcHlPX0MzRqMryrMlecRBxh+rGsnq8Ecz0w8z9w5UXyaoXloJ4eueg+ldCw6n1DVGa+t8OqZaVJnz5DJ5tixs5ND+Q6+NHsSQ6zicokjkxP0hwHdySSJTJYn589EDw7hO84ijhEwXp2WZxo0lZCSPYcfhNw5tJ/Hpk7TUBxWahUSqoEauNHxsa0gljj0QhR+hJUq5mrAr1x+A7u2D/JXX/6ylG43De3jno/cyS/82mc40ZjmxcwRTojTznCZUnRxcCHZeIKVWglfFLxs8pHBW0WbDgLVc7E9n+FEB3NFYS55TJ1+mnKpinNBdlDQlWM0E8epN7jcMXlYX6FsBHQb58VEXPdxa8tQE2VeIWezca5NHOBs8RVm6zXMFZWP5YbQLQtF02Rdga4bMotHHGAhXsWZAP78NKNnJ0iLBFQlYCCWpOGsylRwYdKK8xQFiXtigcouPUPDrHNw717y2Ryu51Op1ajVG+zYuZPAttEMQx5UGVWPihdHWjSNcoXQsaU3vLHBqOE7pdzbp1v+nWjTQTCtwIuhx/MLp1txeuFSTZJMmyT22vRs7yeVjPFQPMTz6uxNxrFiSfJOk7htk05ZDBzYK3MK53M56mq85X4OuH/yFL+z92oyAwN8qzKLZQu9LS819EQsJrOM9VCT1U0iBOuJM+g8lZXpBW4qDHDlrv18ozrF68uLJNyAmhf5AoSFIMxTsdiiDtDXfMaqK5SXy7hNh7t+/CYZzn3km0/whT//AvFMln5D5/D+SyhOn4aZsrSIhRbsCkVTcpRA1kz+KNDmK4aOTUdgkMtkKa2WwDLI7XsvStPmdPBNTgStfP7W/JyMNWUhx71D+/lHqTyvv/I4nZ27qMQ7+KcvfxuqK+eVTRGMqttosQT3bH+PnHjPEaeA+sRNjXgiLXdjPB7DaTap1moyUfVfXnUD41PzVFar5NIZFidOMqgmUD3BAULJMUQyqHDzBiI8LRw7ns/zL7zA2alpfuPX/jn7Duznmedf5C++9LdouRRTvsdnH3uQVTWkH59MPsnJWpURI8mKq6I2XZnr+K4EwTbdkjUGt3ce4s8qT8t8vZ8+9lhUV6DqUVROXGtPFsI2DJmtlHnNhROiCLWyiuWrJE2FGq0zBoSZ4fnEkiluuP4gHV1ZVitVFhaWJNvt7euld5u4tsmcApGvX1xakucgiFclDNje28GzYy9TqtekZt+8sIqsFbwSXuITzSgDSOC1WD4fuq/UKmSyaaaqq8STKh+75Aqq5SXiiSQ7Bwb5qWe/JquMqoaOFgbUNphT+PdNmw4CQzPJxFM8PnWydexcVIwi6g7iyRRJ1ZTKlzjjT5z9IzKOys0qR6uL5JZdRuM5NNflM0MXcdOei/j0kcf5zuJs5IoWgaG+DvYfHKFUKqPW1bdJO38jCXYfKD6xfJ5Hzp4k44Sk4sjahGCtWjqMrAPhMV6yG3ShUi6X6evuWu/rI3fezl994X6cik+YNDlXr1AWh21XqriVlCxYeamxgqaHlDxnw4mlf9+06SB4sbbM8YUT/F73EjsKCsUG/MqZOBNKN7tSXSzXq+zP9zBdLzLDCrsyvTw98Qol32FGK+Mtlumvx3i28aIUG8uT0xD3o4ogmZ9w/llCTxBlZ+oGQq2uLEYJ6TBi7Fr26ckkqDdteUiGTI5XoyppRY1AK+qjxSHbXd0d630c3L8f3/2CPBhjKWXy9UaJn9tR4s5D4lDvV6XH8f95LZRH34iD7t+1IFj1i/zRxcuMDJwvvnxk0OXehxe5Rs0zU3bx/Rr9SgxP7cGZX+bG9D6K069z66WX81ztFV6eXuRMfRrXD4iJlTGDKMYvShPM8+lWM/ML8khc4fkTYHgrWiwu0xTH5gpPoojKaSpeJkE59LGUKLCzdi6abuh4SnQsr+pHuQq9veerflTLZHx2htRAL1pc57euavCT7z0Pksv2JdmeXubnH4WCoWw4sfTvmzYdBHdRZmTAlKebzzg30m99i0JW4zPXXkTv8EepVKsyUXRpcYl6tcb0zCzdHR3UcjmWJ46wKpw4no4a12WeZuTla4WLhSu4dbzd9MwMExPjlFbKHNizT0bo3iwalpaKnD13VtYhdObykWNIVXg9EbBNCxlOxc+Xhqsq9ZhOYBkYnsG9e/awWvLpKGTX+0skLN5z6cUUcmnmwnPccWlUH3liboC4Os9Qt8MHL0tjPd2QKeLV1XcpCPKtFK7JlWEuufGTnHqhRoEjJGIZzJhJTyo6tEocWyMWR9dUGnYd3Uqy6hloRhxNcXH9EFMcC+e3wtOtnb4jHZ3VUFxeplccgLW4KH+Xxa8t58za6+pqmY58ntmZaQkCQR/edYinlmcZW5rDVUMeePwZfFHy5sNzlWlWVJd0zOSW699HLTSZm19oiZuoz4/cfRfT05PsnJkhlVCYK3rsuOw+bLtGdfJfSc+oZWn4uvGuFQcrK6Ehj5460DfBiaf+FTu7ZfIWy02N73douxczuPTK24n3nuP0g0+QSWclE/BrTchGfyhKpHeVmk36gfHxcUZ2jsj4u7tWgdyiNY5w9tw5mbsvEjxFZrIQGS8tzpDPZGksTctj8I6dOoNlGaiagW1Z5AsdMqNnRtfpE86kuaCVBxD1mUhGYu6kpzC75Mm/6TB+5Bdl+9A2cYahy2oszmlL5ZZtPVvhNCxvdoebC4Kdf3Ls4vDXF5587VT3+w7E2de/KCfn1KTDMbfAnu9za0NTeN9Df4xnaPzMbZdy3zW34tg+X33g8yDOBxL5fZ7PQhBl/I+OjXHtVdfI9O6l4hIDQwPf0+fY6TEuPnQRY2OjFJeL0kp4trrI9YUOPE0hiJkUGyXq9QbxlIZvGjTsBgnNwhHH3wQBb/dHQToz/fzX757lvhtDhrZFABEi8NeeakI6w7eby3z75LdaHOz8QRdC9xgOPRohzLXahlMFCnqMPj2G49kUYhlCz2XJWeLXr6vM33D1H2zpkaabLg4G85dcqezngcdPTw9mVE+vo/pLmY7ydakgI89eeRs62F0r/+XHulYE61eVaU7Y/01+8A9vT0KQkGZl4Dkc7A2EPMjuGIoOgB4eGmZqauotO+3pioo1Cvm8PDRT0F98JD2OOsP/cXWBmGZyelc2dubkYCyXN70rb9aqTTcJvkd/qpk7drycnZyelvmDTdeRHGFmelrmD/zmVSvjqHkemWrGC14zqRJQjMdWPnFjt/cJkTqrRCXRiiw+OQ+kMPBQ1Xh0cAWqPKdJbu4wOodAmqp6EctM0JXQ6ruzOz+22Wv0Ztr0v4v4djQ2OvaZbC73r4VfQOgE4lpqvcbjFh0dhX9z6x0/8Zkf1M/C7PRn6rXavxZ+guLS8oacRQvz88zNzrHv4H7uvOtDG87a3L3vkDhA8sfWMp/EJf5Sy5mxk1ub+fm/mLYmqeQtaGT3iFhgucj5fI49e//Of9VL5N9v2eme70b6X8YJfhRp975Dl4ig3Vtwgv+tQNgGQZvafzW9TW0QvOuJNgjaRBsEbaINgjbRBkGbaIOgTbRB0CbaIGgTbRC0iTYI2kQbBG2iDYI20QZBm2iDoE20QdAm2iBoE20QtIk2CNpEGwRtog2CNgH8T621bVw7gwzsAAAAAElFTkSuQmCC;fontColor=default;" parent="I0mVf6kvE5d-BuWw-hbC-4" vertex="1">
                    <mxGeometry x="240" y="540" width="153.81" height="124" as="geometry"/>
                </mxCell>
                <mxCell id="e9BGIbV48YQ-_9oPhCva-9" value="" style="shape=image;verticalLabelPosition=bottom;labelBackgroundColor=default;verticalAlign=top;aspect=fixed;imageAspect=0;image=data:image/jpeg,/9j/4QAYRXhpZgAASUkqAAgAAAAAAAAAAAAAAP/sABFEdWNreQABAAQAAABaAAD/4QMtaHR0cDovL25zLmFkb2JlLmNvbS94YXAvMS4wLwA8P3hwYWNrZXQgYmVnaW49Iu+7vyIgaWQ9Ilc1TTBNcENlaGlIenJlU3pOVGN6a2M5ZCI/PiA8eDp4bXBtZXRhIHhtbG5zOng9ImFkb2JlOm5zOm1ldGEvIiB4OnhtcHRrPSJBZG9iZSBYTVAgQ29yZSA3LjEtYzAwMCA3OS5kYWJhY2JiLCAyMDIxLzA0LzE0LTAwOjM5OjQ0ICAgICAgICAiPiA8cmRmOlJERiB4bWxuczpyZGY9Imh0dHA6Ly93d3cudzMub3JnLzE5OTkvMDIvMjItcmRmLXN5bnRheC1ucyMiPiA8cmRmOkRlc2NyaXB0aW9uIHJkZjphYm91dD0iIiB4bWxuczp4bXA9Imh0dHA6Ly9ucy5hZG9iZS5jb20veGFwLzEuMC8iIHhtbG5zOnhtcE1NPSJodHRwOi8vbnMuYWRvYmUuY29tL3hhcC8xLjAvbW0vIiB4bWxuczpzdFJlZj0iaHR0cDovL25zLmFkb2JlLmNvbS94YXAvMS4wL3NUeXBlL1Jlc291cmNlUmVmIyIgeG1wOkNyZWF0b3JUb29sPSJBZG9iZSBQaG90b3Nob3AgMjMuMCAoV2luZG93cykiIHhtcE1NOkluc3RhbmNlSUQ9InhtcC5paWQ6Q0Y5QUFDRUQ3QUIxMTFFREIxQzhDQThGRkUzNDZCOEYiIHhtcE1NOkRvY3VtZW50SUQ9InhtcC5kaWQ6Q0Y5QUFDRUU3QUIxMTFFREIxQzhDQThGRkUzNDZCOEYiPiA8eG1wTU06RGVyaXZlZEZyb20gc3RSZWY6aW5zdGFuY2VJRD0ieG1wLmlpZDpDRjlBQUNFQjdBQjExMUVEQjFDOENBOEZGRTM0NkI4RiIgc3RSZWY6ZG9jdW1lbnRJRD0ieG1wLmRpZDpDRjlBQUNFQzdBQjExMUVEQjFDOENBOEZGRTM0NkI4RiIvPiA8L3JkZjpEZXNjcmlwdGlvbj4gPC9yZGY6UkRGPiA8L3g6eG1wbWV0YT4gPD94cGFja2V0IGVuZD0iciI/Pv/uAA5BZG9iZQBkwAAAAAH/2wCEAAEBAQEBAQEBAQECAQEBAgICAQECAgICAgICAgIDAgMDAwMCAwMEBAQEBAMFBQUFBQUHBwcHBwgICAgICAgICAgBAQEBAgICBQMDBQcFBAUHCAgICAgICAgICAgICAgICAgICAgICAgICAgICAgICAgICAgICAgICAgICAgICAgICP/AABEIAjACcAMBEQACEQEDEQH/xADWAAEAAwABBQEBAAAAAAAAAAAAAQIDBwQFBggJCgsBAQEBAAMBAQEBAQAAAAAAAAABAgMEBgUHCAkKEAACAQIEAwUEBgcDBwkFBgcBAgMAESESBAUxQQZRYSITB3EyCAmBkaFCIxSxwdFSMxUK8GIW4fGDJCYXGHKCwkOT0yUZGpKyozQo0lNzs1Q2Y8N0lDV1hhEAAgECAwUFBwIEBAQFBQEAAAERIQIxAwRBURIFBmFxkVITgaEiMhQVBxYIsUIjF8HR0jNioiQ04fFyggnwskNTVGP/2gAMAwEAAhEDEQA/AP38UAoBQCgFAKAUAoBQCgFAKAUAoBQCgFAKAUAoBQCgFAKAUAoBQCgFAKAUAoBQCgFAKAUAoBQCgFAKAUAoBQCgFAKAUAoBQCgFAKAUAoBQCgFAKAUAoBQCgFAKAUAoBQCgFAKAUAoBQCgFAKAUAoBQCgFAKAUAoBQCgFAKAUAoBQCgFAKAUAoBQCgFAKAUAoBQCgFAKAUAoBQCgFAKAUAoBQCgFAKAUAoBQCgFAKAUAoBQCgFAKAUAoBQCgFAKAUAoBQCgFAKAUAoBQCgFAKAUAoBQCgFAKAUAoBQCgFAKAUAoBQCgFAKAUAoBQCgFAKAUAoBQCgFAKAUAoBQCgFAKAUAoBQCgFAKAUAoBQCgFAKAUAoBQCgFAKAUAoBQCgFAKAUAoBQCgFAKAUAoBQCgFAKAUAoBQCgFAKAUAoBQCgFAKAUAoBQCgFAKAUAoBQCgFAKAUAoBQCgFAKAUAoBQCgFAKAUAoBQCgFAKAUAoBQCgFAKAUAoBQCgFAKAUAoBQCgFAKAUAoBQCgFAKAUAoBQCgFAKAUAoBQCgFAKAUAoBQCgFAKAUAoBQCgFAKAUAoBQCgFAKAUAoBQCgFAKAUAoBQCgFAKAUAoBQCgFAKAUAoBQCgFAKAUAoBQCgFAKAUAoBQCgFAKAUAoBQCgFAKAUAoBQCgFAKAUAoBQCgFAKAUAoBQCgFAKAUAoBQCgFAKAUAoBQCgFAKAUAoBQCgFAKAUAoBQCgFAKAUAoBQCgFAKAUAoBQCgFAKAUAoBQCgFAKAUAoBQCgFAKAUAoBQCgFAKAUAoBQCgFAKAUAoBQCgFAKAUAoBQCgFAKAUAoBQCgFAKAUAoBQCgFAKAUAoBQCgFAKAUAoBQCgFAKAUAoBQCgFAKAUAoBQCgFAKAUAoBQCgFAKAUAoBQCgFAKAUAoBQCgFAKAUAoBQCgFAKAUAoBQCgFAKAUAoBQCgFAKAUAoBQCgFAKAUAoBQCgFAKAUAoBQCgFAKAUAoBQCgFAKAUAoBQCgFAKAUAoBQCgFAKAUAoBQCgFAKAUAoBQCgFAKAUAoBQCgFAKAUAoBQCgFAKAUAoBQCgFAKAUAoBQCgFAKAUAoBQCgFAKAUAoBQCgFAKAUAoBQCgFAKAUAoBQCgFAKAUAoBQCgFAKAUAoBQCgFAKAUAoBQCgFAKAUAoBQCgFAKAUAoBQCgFAKAUAoBQCgFAKAUAoBQCgFAKAUAoBQCgFAKAUAoBQCgFAKAUAoBQCgFAKAUAoBQCgFAKAUAoBQCgFAKAUAoBQCgFAKAUAoBQCgFAKAUAoBQCgFAKAUAoBQCgFAKAUAoBQCgFAKAUAoBQCgFAKAUAoBQCgFAKAUAoBQCgFAKAUAoBQCgFAKAUAoBQCgFAKAUAoBQCgFAKAUAoBQCgFAKAUAoBQCgFAKAUAoBQCgFAKAUAoBQCgFAKAUAoBQCgFAKAUAoBQCgFAKAUAoBQCgFAKAUAoBQCgFAKAUAoBQCgFAKAUAoBQCgFAKAUAoBQCgFAKAUAoBQCgFAKAUAoBQCgFAKAUAoBQCgFAKAUAoBQCgFAKAUAoBQCgFAKAUAoBQCgFAKAUAoBQCgFAKAUAoDxDrP1B6F9Odon37r7rHbOjNl0y5p9z3PW6fRQqo/vah1B+iqk3gRuD5y+ovzm/l1enep1GiPr/pevNbpG8vVaXpbR6zfzHJj4C+ijKXw5NX1NPyPV5vy2PwOtma3KtxuR6gdU/1E/wAKOhOq/wAG+lvW/VSQX8ibU6DR7Ss1jbAavUEj6RX1srozX3Y2pe1HTu51kLbPsPXjqb+pDgjmkHSXwxaiWDjHLr970AIB5sIJRw5gV27OhdU8XajifPcrYmcZaj+pD9WmZ20nwzbDFp1Is028TlshPv8Agm4d3GuX9B5/mXvMXc/y1sZmf6kD1jzS5fhr6cKIVMbHd9UM0Z4t/G+yt/oHO89vvJ9/s3Mj/wBR/wCsxzBPhp6cZ7gpfd9UAY74tjN9lZfQWf57feFz+x7GD/UgespzZPho6dJJAiH831XiHM/xsLVpdAZ/nt95fv8Al7mTJ/Ufesy5hH8NfTcjLio/m+r8Q5kfjYW76n6Bz/Pb7yPn9m5kH+o+9aDJkj+GrpuQWBX/AMX1d3uOX42Fu+q+gM/z2+8ff8vcx/6j/wBZSZAnw29NNh/q5/m+rHmNzA/G5Vf0Bn+e33h8/s3ML/Ue+tJcD/hq6aMZU+XJ/N9XZ3HFRebC3fUfQOfsvt95Vz+zczVf6j31izBX+GvpyzIcjDd9VjKPu4zfbRdA5/nt95n9QWbmB/UeesTEqvw29OXZB5V931QvLfFf41P0BqPNb7zT59ZuYX+o89Y7sr/Dd02GCE2G76vCT90/jdvOq+gM/wA9vvH36zcyh/qPPWdbF/hs6aVVOWZv5vqzle3u4TY+2j6Az1jfb7yff7NzNH/qOvWYMv8A9NXTkaAfiFt41RIPIDLNjftp/b/UT89vvH3/AC9zLN/Uc+sX4ZT4benCAT+ZP821f4fYP43E1X+P8/zr3l+/WbmVj/qOfWh3yn4a+m0FiXY7vq/B2X/Gxv3VP0Bnee33k/UFm5mUX9R361sQsnw19MoxZrj+b6vwoOBJ877Ki6Bz/Pb7y/f8vczqT/Ubes6mzfDZ02ST7o3jV3VOTH8bgafoDUR81vvJ9/snBlJP6jr1ljUlvhp6dVgy+A7vqrhDxY2m+yqugM/zr3l+/wCXuZC/1HXrM4cJ8NfTmcNaNf5vq/Eg+/8AxuHdxp/b/P8APb7w+fWLYwf6jr1nsSvw09OM18FG76okr+9/GwA76P8AH+f57feT7/l7mXf+o49ZQpCfDV048hAMf/jGpAYcScZuAp+gM/z2+8fqDL3Mo39R16zZm8r4aunJUKg6c/zfVAyG3i4zYW76PoDP89vvL9/s3MS/1HPrQYidN8NPTjyeEoG3jVANc4j+NgR31F0Bnv8Ant95P1Bl7mUf+o49bbt5Xw0dNMLL5RO8avxt94D8bC3fWn+P8/z2+8ff8vczWT+o39Zwy+X8NfTbIwGVju+rGZj90fjYW7TWX0BqF/Nb7yfqCzcyW/qNvWVUe/w39NZwLp/4vq7E/u/xuPfwrb/H2f57feF1BZuZB/qN/WlLZvhs6a8SArbeNX/EP3P4321n+3+fHz2hdQWbmVi/qOPWllLP8NfTQUCxcbxq7CTkhvNz7af2/wA/zI19+s3M0/8AUb+sasBL8NvTiBlJX/xfVkhgfdNpqf2/1Hnt95Fz/LexlP8A1HXrKChb4a+nMn/XH+b6oZDbDjNzo/x/n+e33j7/AGbmX/8AUcesgWNm+GzpyzfxbbvqvB7fxqf2/wA/z2+8v3+zcyn/AKjj1mDLm+G3poxknOw3fV3Qcrjzsb91X+3+f57feZ+/2bmB/Uces4yLJ8NfTaOb+Z/4vqyEXkTabn2VP7f6jz2+8r5/ZuZH/qOfWcMQ3w19NjgT/wCL6vwpwLH8b7KfoDP89vvH3/L3ML/Uces5Zf8A6bemijMeG76sEJ2m83Huq/2/z/Pb7x9/s3Mzk/qPPWjzJI4fhq6bYg/h33fVi6fvH8bhU/QGfMcdvvH6gy9zN0/qN/WcoWb4aunBdgIj/N9VZlvYsLzcBU/QOf57feP1Bl7mZ/8AqO/WfzHRPhq6cn8Vosu76oZ15t4psAO+q+gM/wA9vvH3/L3Ml/6jn1oCOE+GvptpSf8AVz/N9UFkF8T/ABri3fT+3+f57fePv+XuZn/6j31nyyEfDT025FvKcbxqgrdvGa4qLoHP89pfv+XuZI/qPPWXE/8ADf0ywYgQW3bWXYniMZuIqvoDOn57fePv9m5lz/Uc+sw8wf8ADZ02ctgjDd9XZnvioPncqv8Ab7P89vvJ9/s3Mr/6jz1mALH4aumyrXWL/wAX1QJl/cxm+2svoHP89vvKufWbmQv9R36z2Af4a+m1ktin831eD/ufxuPfV/QGf57feZXUFm5mj/1HHrMsoH/DZ02sJXxMd31d0e2Cn8bG/dU/QOf57TS5/l7mYR/1H3rOxVZPhr6bjNryf+L6s5T2YTc6foDP89vvH3/L3M0/9R36zjy8/wANfTaFjaWM7vq8yHkDabEmqugM/wA695Pv9m5lh/Ud+smRWf4bOm4zj5qnd9XdDyv+Nz7qn6BzvPb7x9/s3Mg/1HvrDlRv+G3pxAbmUHd9UTHbhe02N+6n6Az/AD2l+/Ze5lR/UeesxUX+GvptXIzEfzfVkKv7xIm+yqvx/n+e33k+/wCXuZCf1HnrQRGW+GvptM18y/zfVnwj7wtNwqLoHP8APb7yvn1m5kf+o/8AWQKxf4bOm1Nz5Y/m2rxX97+N9lX9A53nXvJ9/s3Mgf1H3rNliP8Aw2dNkknzFG76vFAPfX8bh3cayugc/wAyH3/LnBmv/qQPV8Kjr8Muw6pWYAmPeNQtl/e8c2Ao+gdRFLrWX79ZuZ5v09/UhbtM+XqH4YFZb2X8jvemBcDFiPzEp4d9Yu6C1Oy61mlz7K2pnPvTv9Rh8PepfTL1X6G9X7Gkqky6jSHbNxVWXiAI51Psrp39Fa5YJP2o5bed5D3o9qfT/wCed8vHrmTTQbn6kbt6ZzT5PMPU+wbhtkMTOctmmVZo+PMNXzc/pvXZeNj9lf4HZs5lkXYXI+jfpX8Q/oV64aAbl6Q+rvT3qNozbx7Tuuk1jC+AukTlh9Ir42ZlXWuGoZ3Lbk8DmSsGhQCgFAKAUAoBQCgFAKAUAoBQHTazWaTb9Jqtfr9VHodDoo3m1utmdY4oYo1Lu7u5AVVAJJJsBQH5WfmGfP71+g6o330R+A2bQ7lPtLSabqn4h9VCmu0UUqnIy7Rp5QY5bEECeQFTxQEY17TknSV+elfm/Dbu2s+Lr+bLL+G2rPzX+p/qd6ketXUUnVXrJ6ib36s9U5jLHvu/bjqdcYmJv5cEUzeVAg4BUUACv0nQ8p02mX9O1J79p5vP1ebmfMzwsy6iMPHn8lGAJUKFAH7th+mvpXODqYswbOyLe/4ZtHifDf2/ppFY3G0WIT8QkWuLKQP7YVEvcGzcpHiAMy4eWCbWBFyTerKboFQ6c+VeQoM2J8o8kvzIPEVGgbiB1cmNs8aGzyEYEkYkVpUchqhVyHcOT5Y+7lOIrMSLdxYKEJdFLBxcxEg92Yfsq4OQb5SodlGRmF2QcTfs7+6jUkMowoCK8fmPf3ufcbdtLUityMyuwUsxYXziwCtbHHsqvvIWBLKUQXdh4cwsGvy/u0TpDK6k5CpBYZxzXgbEY+wd9V4DEsGjFxHHZ7eFiMCOzu9tZTUEUlI3LXaSMs4GNsCR2WqorxL2zsMoOWXwohHADlb9dE5qwaBhHmCr4Bg2F2GH9saswZZa5waO9uItyB5A0QtEhjAF3zth5fOz/rqtlSLMLoASUeTB0GPl/tvVdTKZWwDZScxI/CY3IBt28z3UUSVEeEsHWMxhVxbiyG1r/T2Vhl2GiWjUCIDMQA3O7nmb8+6qpEEZQCWNpGawULzPffn3VpEboCgGKvmLYupwAPaOy3ZWWCcnhQqzKpwkkI95+/soysEuVGGVhYYYH6eynYSACXJaSYtlwdbAX9nYO+iulSSCqBHdsxzCwAQ4E2Pu40UQJJZGuhylsRcqcFUHh/lot5ZIlUn+GpupHu43F7/T7aRUqLhCS4lscQVIwCqT2c6qQkr5YK3DNka34lrgY8Lc6RvJJJQDzZLZo4wAq8SPZ21Faw2BFGJLZLo3O/uN3d9ZQkqVe5kL3dcFwuAvM95q1TDUgxgmPAqxH4S3wB/ePb7K2rVJU6FQvBMpeZ8c5Fr/AN6swEyeBUhczYZlOF7c+72VIBVhbKpcsOK3GJN+zlVnYCwUnG1pB7wYEXHabcLVPeGzRIh4rOZSoDKw4SHnhyAqztEhiQoLMC8t86AYWvYDu9tG6kgwKk3UII+FmOBIBxw7O+ja2FTNiqSCy3ylbxt7oy3x+nvq4oitMmRQt1jAKiysxuDc0RWxlYguSIWwABFz9BrKwISyE5ELr5lrSXxsL8iOJrTWwJFWiIMbrx+5zIJ7e2ooLxFGyyMSI72FyeSm9vpv2VIqTEoy+ZIl0LOowjP6z+qijEqkswjN28swocAo/evx9vdUoDG2Qi6s/mYkCwF78+/urTdQ2y/jszJjmPucGblf+6BWUytkKoV1WYZ898jg2zN+qlrQkyEjgXjAGXhcC5xxwqYkbILO+UIDFIxvIL4PjYeyrJaSAhCsFutnJsBjfsHd31EpJO8srgu1s4DliXtcGw4VXiGjWLWTI9ldwqXMSE3BHYL1bb6ho12jd9y2LetF1JsO5anprqHb2B0HVW16mbbtx0zA3Xy59G0bgg43vXW1Wlyc63hzLUzlys2+xza4Pth8Fvz2viI+HPeNk6S+KHctV8QHohNJFp9b1bq8h6t2FGOTzfzIC/nUHvMst3NrK1zXhOcdFWRxZDh7n/mfd0fO3MXn7LfR71j9NPX3056Z9WPSLq7Sdb9BdXQCfZd+0cgdGHB45F96OWNrrJG4DKRYivzbNyrrLnbcoaPR23JqUcm1g0KAUAoBQCgFAKAUAoBQCgPxx/1G3zL+rto9Stm+Xj6N9Rvsm1QbKnUvxN7zo5GTUT6fUBpNBsjshDLFIgWecA+NWVThe/qOluXLOz+K7C2p8vmupdmXCxZ+bDoPa5NL0ntTauRZNx3j/WtzmUWzvL4lXDgFXAV+wZNr4KnkMxqaHl4LMBdbrJgYzyCm1cuNTCcF1sFmfzC4Sy3OGA5Y/pqq0Gj5VSNPMIQiwduIJ5GrUkSySp80/iWygZeABtyNEoKmWbAuWObubxW+nsrUIQHBJXyhlMYsxHFfrrNX7BabKCXBDZZCLtlN8pHH6O2qnUzEFWRkcrKFUxgDMALXPAisw0WU0W8t4FHhJF/dXEG/P21qGkQmONcwDkni6rwOHDKTzo1SppoyBdrqRmAbMMpAZ+eHeKcSaDZcOvjZ0L3xUWxYjstzFRJTUjNJDnUA3JlIu3ep594rV0AGSRj7/wDEYKHI4qDYg99JfsKoJ8tHV0Q2uSqL3j96raiFFTyy7jNlwAcngeFm/VWZhjE6ghjd7FSFsfb2EDlUSJKA84L+GMVW4c9oPA91bVahpFopXUqC4z5cDbAN+yog4LI6h8xUOVXDEXsTiR/drUl2EBspQXzoc3lW4rfkD+mpKJGwPhljRiFAuigXIueIqpbCMlcoyMy5j91gcGI7O/trOCgrKQl7WyAEsbi18/PDvFE6Bo0UeZaTwAsxCyA4XHd+9RhEFG/EfKDYgFSP02599aCRDeZmby29/KHubg+0DmOVFOCIlNS2QRPIhBZWt5xPAEDC96kNsXEIuURquCm5dGxYdoP6qqtQYZUdmGbLYeBGGC99+dHWhVREujPkRLLIVsUuBx5+yorWEZiN1yqWZZEAuB3HiO6osC0M1F1jKsWFjkI4i3t5UhhnUKVZEuWMSj3lwNzyHd21UZkzCMxRWwJPgy8D7KNlL3AU5FAu1iBgcw5i/OqqsNMpct5JYZCT4RY3PK/tqK2GUt4VUxvHmSM4nge366Qh2lbNlW7Fb2yMRgO9u+hEytjmkEhsLAubcT2nvpLkqRLNd2VlYqQLs2AAt96qmpJsLFvDIFLLIVAUnhlHM/qpDxCSIF7YtcOp8xhxIAvY9lTYGyxQFYbZmBWxPEZf2VEWu0jKLonmEcRG2Fygx+qqrYII2zxZCTZsMt7E5RwF+Rp2AhFF4iW8zObWHK2NhekQiJSZEMklo2/ClPgkONiLggdlSDTLRgtIFixCHwqbcRyHeasIOhEiFkQN+EsZLNybPfu504GG2RIJCpEilEwckDxYcr8yay7VIToWkZWuUTxXTywTwFrkntNUI6VywBYA3OL8wOwm1ZuptCLZQpYXu2XxPzy/3rfZVhQSSxXKykyEFlsbWAy8i1RhIztcEFc9sXF7XsOXKwrUGiroLpncEEXRgPf7L9wrLSidpEQWPgJHm3FnQHibcu6iYaIJkN1i8Ij4WsSV42HdWo3FZRi4H4YbAjNjgyjkKwk4IaXsVWIEWxlF78cbL31eFlaMpXyGTKAjrbI4FypPHMO2s3kk6bXaLTbhp9Ttmq0/n6XckaKaMm6+MYNYc74irdEQVPae5nyhPmUde/AT8UHp96f9a9Sy7j8OPrd1BF0p6rbTNK35Tat21Ey6bQbzAjG0ciZlSfKPxE44gV+bdYcsTsWavmVGel5Pqau3Zif0cwQwDA3BxB7q/Oj0JNAKAUAoBQCgFAKAUAoCGZUVndgqqCWY4AAY3oD+Ut8a/qh/v9+YR8e3rF5z66HfevdZ0z0/qPEyS6PaNT/KIxc8AY9MLcrV+mdIaaMl3RjQ8zzjMnMS3HlUax6WODTaaC0elREQDkkYA+uv0DA8+0Xs5YzAjOLAY+FgO3vqtyUkySNluCrP4QSAA1+RtWlKQRoqqrPL4i6WVCcbLztUJtLXygFVLu9wG42vhje1WdwbJVZG8sklY0AAVcbN2NfiK04G03SUK6PJHldTYWHhzcMe2orlBEpCR2IY3iLg5xyDHA/5qW7xJY3yoM2cXOdLc7cRfj7KtccTKxAABN8wdsUIvYC3b24cKjWBZHjKqv3pGLIeVrcB7aJVKmVCICc0bXP8VRzB7COBFEG2bIodzj4Jf4bHAkAYX7KsiIRbIHlzk5jYqAeBNuYHDuq3MFVBVigi8TAgG+FuNj2e2joJRZUJCuGIVrjNhxHG/wC2jQVCcokLMPejNo07jxJvxFFUlYJVVBLFiAhI8wXIueVS20FFsEJykxi4MXMN2imyRMmgYor4ZAn8OTAlfZ20wKqkyGMgqIwWbxFuHDiR+yqRGgXMGVGtfxMDhcdq9/dUnxDxKK6m5N2zCwYi3unt5HuoGiTnZb5cSfAOAw41VWRUv5pd2vGcVwbAX5fRVVQ6IjPa2RrN7rowAzDh9ffSaCKkZDnJF7cMx425jv8AbWWqgsrjh/CGAP12w7R31bUypFgAAFfOsisM1hfL+29LcTMEqoU3IJkQHy3bGwvytxo1hvKjJUU3WXHL4h3HtB/VR2uAjVQVsGAAIzSH9BH7KUEFEMmQCK7sbZma1gB97225UdzE7iqBgxJu6gDC2UEntrLTdQ4KtZSJHHkqb4k28VuNhwq3XT3hUNGAzBw5tIAezh+gVvEFRxLiIhuAY9/b2e2su2Q8CFU3XjnXDMSSAewd1TbXAQWC5sxxEiDF+ePAAc6tpSGLoSzi1sFjGIBtxHaasQiGbswJDxuARiRY8BcVHa8SpmrxkyJnGchfBa4ygj7T3VEpIijEGM+XdvLsUF+zjc9vdSAZ5r+JIxZmzS24Akc/2VZFS+A8Nmyk+Jb2zHl7LUb2EwBKZpJAuXzLAqx5gWFWCwVdUa948vmYLe97DhfsFZucsFCGfxSnAk3ZcOGAvb9NG2Wp1AkAJfLmJFlTDLjgAB+utJwZ4Sip7yhjGf8ArJDh5bcBbtHfURalSwBTPdwgILW4nu7ajuUVwEeJY51CkMTluQRjkBwt3mkvYVQYsMqrI9yQSUwF1x/TRsy0UiDFmubEglk4YH9J7qiSKyUGQMVA8eMN8P8A2v2UjajUlcGYPbLIxuzHAf8AOFGkCMslpFaLKkmKuPeLDD6BRIzcZCN2VsyXVhgVPO/Psq22hI0cLZmJzOtlK2xI/YKiUqpWZKEZmYoxIFnC8eN6NIFAGkBYllHJf3b8LfRWeEslhdXBJwAFnHAEnv4mtGWjPwAqEAMouCx90g9naaztKiMzR5R7505z+wE9vM91Lio9OfiA2saTbOt9Zpc8Wu2LXbdvu2stwRJEyubHkbrxrzvPcnjyL17UfR5fmRmW+B/Vl+C71Zh9d/hJ+G71ig1Y13+8Xovp3ddRqgc2afU7ZC8tz2h8wPfX4pcoZ7VHs1UAoBQCgFAKAUAoBQCgOCvie9S9F6N/Dn64+qm4SCLS9BdLb3uTSE5QH023yumPLx2qpBn8nP0J/mfUe19PdR7vJ5+5+oPUG5b91LK2YM8jSNOSbjG7NX7R0/k8GmtW+p47mOZOa29h7jDM8vl5SAbmwPvjs7q9LU+WTisuKhV90gHgnYe+iJRAAZYmS+WRmVRxIH94Hh3GqyEh5EIyEsoayyEe8x4g9w7aza6yO83zZ1viTCSqm1rc7d4760nOJWiPMe7BDkMVjEDiD7O0UZKEhQ7yKwIKtchfEDfG4quqksssgIszeJeJUdoPve3upNSHUeYrMsTQkGUZ1e/EjDC1JmgRFhmX8NwPv48LHspHuBpnjkvIwLKcQgGUeE2tjwNaxKmVJAN1uFkNmJwAHYf21KIklY0lCWIugIEQJGGPDvHfS1yiM6gpgAt0mjI+q/A9vtquAZ2WygZo/wB4nE2vww4ilCuTQsIwWXxLf8K2Nm4VlOCGZW+UOfKa1weJ4n6/ZWhFSR4VdRgxAJYG4PeQOfdSClrGRGEb2D2aRvdU4fprKhi2UZlY5PGQY/MNiDwsB9lW5ISXxtInlWdgAzXwA7D2e2ooFZDlgXj/AIYYeEdgHfy9tWBBIka9lFwmDhrY99v11bnUiJeVLFihcxkg4nhhh3iiwBXNHmNnY2vlsDb+wqSUtgpC8WXGN/ey48B21raQuWKsFZTkkPiucQb8P8lJSDgjHPkjXLH94nEceX7KMOpe5vkL57C4U4BhfDGkSTEgtkALNmJNxha47O61S26hYkgo74EZs+OIsAL4VFDEwA7lhlBYN4GS17jn7PbVW7Ergt5RSJzHe0bAIlrHHD6fbSCUQVfLMpMgPlAWB4A2+2jkFCQ6eNM5NirceXKpsDRNvHHFkYDL4SDfKDxxNakrNbIGtiFRSfDjcgYE9/dVdTKwM1TMseZjabxGS/u25W5eypiGwRGSb3Y4YX42FseyoUq0UZBJlZyy+NDhewsOHCrCFSQC4BzsVPhY28RFuHd7agLsQcuNyTZkHEqP2dtVIjoUAHuSJkJbBh7vsHf31HjIRDxsrARL5QF8vME8799V0LJQraNhgQPEvE43t9NYVsorZFrFUgJZgC+ZgCEv/bhWn2DvLMDIisF8IuXt2jtv+iiMzBLMJMmUBLXMjjhbsN6KpUUUXkAKFvMIGYeEG2OPZRVZSWy5pYzeQvjIDhccB7KtERNkB2KqGTMgsJH4YDgO721HUplKsYjaRWZApHl5TiSeIH7atApLm0lymbKmUFbYgEXNu099YEbDTy0QOAMzRkFnBuBcYgdpNVQ5DkxdMpZFICDxRMvitzsTzPdRolSbG4URZS3ijdsRcDn9dR4lSK2Z/EzmNzhIG91cvMWqohQrGrhgHCv4rAYkgcWB4VH2lTM5GRlZ+bAX5Hjx9lG6BUJkAUhnl/iC2YEYk4WAHKjoJMmRUErX9/wyJjmNsBbuqOJLJEqxHFWPmAZXUjDC2A/bR3STA6YJ42C3vf8ABPGwOBHfUTKy8ZthG11jurKcbN3dppbVkuaOIPU3aY90k1e0yx506l2TXaeZbBgJoAZUN/3iK6Oss4k09qOfJcOdzP3Rf00frE/qv8p70U2zW6oz7z6T6/fultwiZrtHFtu5y/lhbkPJdbCvwnWZfDmtHvMq6bT7711TkFAKAUAoBQCgFAKAUB8N/wCox9ZT6O/Ka+I0Qa38juHqmNs6O251bLIz75qwjBbY4pE17cr1z6WzizEjGY4tPwP+mHT8ey/4W2wyGRelun9MrR4fxdbZiMLdtfvOjyuFWpVi1HhM6/iub3s5uU+OQhQTgpxIx42vXexOtsLZVkSV1GZbDzCPu2xsaqgsFjGzFbEqtuHE2vz7RRz7COIKtF5alsQoNiSeXIkdlIFDYOp8tBGUZTZrm44cqJ7SwI0ZmXIQVxDKcGXHiD2doqIlEXACu4Hjy4ZVNrjgWFq1DI4LRhS4dLknBlH7xFgRWlgWSq3jjkTLdyfBJwvccO6s7IGJqhYMCSZCAPMJNsSOfYRaraJLsgu4JzrIM0lzjc8vs40CJCjIXYHwrgrY8R2c6cLGDJiywxxkgh8cnYoOON6lswR1LF2zGw/FYEZTiABjhW2XEsc4jzX8sAgJHcFiL8VqKhlmeQsJSpOZThH+8RzBGANDRLNmSPIRGwtYX8Rbgb34GiJtByxK2W+aI5mA+9y41FiU1v8AhhWIkd7EsBz5Kf20bABykIxDvJYkkYA8Mvt761wvANBYi9/xLMb5s3GwHAjnUaJLCLdUZE8JwMZxAw7eYqxuDKZM4Dm4LEhML27SSOI7qy08GJqaeEMgNrZSMqkeIAcR+ytQIJhu3iubi4EZwNiOHdVU4ChCeEyyKLsmBbgVPYByrLNST5QBKglwDmMhPiZieAHL21IkzJowW5VLhwSREbgD/L31prYE6Dy7ls7qFlPhW1yoBH9r0nYTAkKwOKqSl7Nib4/bQQZLKzSeTdryWXIcSATz7qcJe41KDTlCsoBXBVBuTjj7aspbSINIFBsTbMPewNjyv+qlWMCDEcvKXTJY3vYk93s7Kyk9oTJAKqSPeU3LEWuLXw7KqZXKKWGAfw+YLgD2HA/to1QqHl2SQLIVbFrWxAAFRQkZTM4VdrBmypMcxkb7thwA7aJmmiyIYGk8JCPcFbXse09tWNpls2PvebYhypCnjiOffWrsRgQEkYM63JYHzUvxHM3/AFVmCyjNHJUMMy5LANYXyg8+wd1JckcFGAKqgUv5ZuuPHMb27gKiWBTVgiSM2I8wALM5wve9rDh7arcGSqlpT5SeA3vHcfWB+2pCwK1FSBHIbsimRh78Y7ewdtThLJnGygZX93jmB90/rvU4QwrBTCyoI2Y2HB1OF8b86uCLUzzhY2vmD3Il7Ae2/P2VbrjO0m0QZyyEMQAF44cifrqPE1IymIlspsvvXODgdvsorUSSkhzMz2OVASG4A35d1RuWVF3WSyG3EHKAbHLwsO7volIKMgzp9xWHiYYgEngLfpqxBCwjKSCy3SS5IBwHevfU2lKFlLKGJKSYk9ljh+irxraGVZ2kZii2ilIuThlIP6aj7BCKszMz53ZyfdYdl7eL9lG1IkyusMjgeOJgBJft/ZVCMnCZyxYSFLBWsVzYXqTAxNQ9nXMmZoh4WOBK9vsqJgoWCg5XtIbkjt7h3Vp1RJ3kE3WJwwQE2Zrc+QX2340ZYZmyMWjjDKp8RUL923ae01xu0qozxTqmDNN0vr1jzR6LXpHqAAQcmpTyiCeZrObWINWuKH6Qv6TT1KbaIvjt+GbV6gyN0n1Roeqdh0zEAxaPcYToZLL2NIgNfiXUeRwaq7vPb8vzeLKTP2RV8E7ooBQCgFAKAUAoBQCgPx+/1ZvqZJreiPgi+GbbZs+p9TOstbvm/wCluCF0mzQQxQOy8wZJnH0V9zp7TepqrV2nT11/Dltn5nemNMo3bq7W5kkRtYukgdVyr5WmQKBh2EYV+35dvxM8PfceUOS6+Ywy2LLgcLKbEEfoNbuT2GC4IMYs1kVgM1jduRzCrIwZdnzOSbqymxa+PZe3ZRyVCwY2ucy2fP22w58RSFARu9pInEdrixyg4g2ubGrLgneVJiurxtnSSxyqeF8Lis7CvE0jIXNkGFze44Hj9BraXiyOpLWW0gkKg4rIotmAP3uw99IkiLA2Pl/xSouU7r3u3fV4qlSL50NpQQY0Pu/dJ7zxNFbtJJdmAOUeGIm7EY3J9vFajdQmVlCxFCrtZcWt2E2soqulQ2VVlSysM6g3AXEgk9v6RUqWTQZcwsSb3JY4fSDy9lXAzJRA8hD5coe974Y8jhwNW7tNOpoUALCItlK+5z4Xv3HvqNEVUZ+FiXylgCApYWHD737awt5UbPG+RpGcGNffPFWOFr29tcjaRnigjSqUd0y+NiQoOOB5HtFZTNNMvnKuwzkKjficDw7L8qqmTMFQqsc92LIATc4AX5EfopJo2zArZI8WswcYADhh2VqdiMwFJEbIrkl2HmEYEey/Ckk2k/he95WZD4SBxB7bfrojTqXUOMzsAXAtG+BFiPesOffUgy4M5GhI8eY5LDjjYjnbjUKGW2bLIXIXDDEAD7aRUrRuMqfiFLRAG1jdg1uBPZ3VWTEyACqoxynxYjELfEDu7qOoTKowc3BIIxj5EC+Fuz2VJLijRpHRmvHkDYGQjEjtHZVdSQZPHJAEZgUeQ3KkDwjkw7L04Q7txpnfBJjnDgHEcr8+01OKCwUdQciGN3ygXIGAsL37zVrtCoaWQlWSUsoF0Frlzbg3bR4gofAXx8QsWuTfEYi/6qmDghKquIkcte7Z8LBbDAe2tYIre0qwHiRYTlYZrE2ygcMeVS7AEAlXZlZlJ4gm2HAW7LVJ2C0lCS2DXUHHtuTxA7e+kVBbIYy6tfNI11tfKATge80aaImUZcxAAaGFB7pFyxvy7akwVMvGpbMv8WUYq5FibezjWw3UzZiqxhbZWF5lPiN/Z2VEooIIzOrq4uvhJbkQtri3Z7KzxDAY5y5BCZbhc1icL3PZ7KrqRGV0GOVlDjxki134cOQommag1ZI1VWyoxN1exJXsw/bVZJKKFkdonOZQboThe3Z+2pa6wW2iLkXsWFiosDbE48+2lTO0zUZScuBS9i/AFuN+01IjA1EBXjawtniXmcASTxPb3CqrhwkeUSoUEOXF0kOGN8Aez2UWBEwl5MsZIEj4u/ug5cfoFRuHAZRwSXbxZTgg/dtxPspeVMxYQtiFYSkWFrlbL2dhPbUkIouYIy3/ABGvZRjh3X4kVaSHiaooDAMc5XEoOYItj2mptqJOnPu5iQI4yc5AuDjhc1EVEKI86rICsb+MA8Cxwx/UKWsQS6kpnDNa5FiMSL/opBJkiwyiwJbvGIF8fooqpE4iqMJLoSXBuunGGHM41EkzTZUMpWxGV2Fh+8O5e321qIB491bEZunNxOkdmbQouojA97PCwc2I4njXFm1Qsoz6Yf0/PqfB6XfOJ1HSI1C6La/ia9PdbCyBiEm1e1RDdYlN+LFojavy3rjJSz1ctqPVckzJsjcf0KK8MfcFAKAUAoBQCgFAKAUB/Px/qFvU9PVH5vfR/Qv55Dsnw2+nWnM8GbCPc9zkn3Nib4BikkYHdXt+idNxZ/FuR8XnWY1lxvPlj0hG69PaN0jZZdwMs0tyDczSFgD2ix41+q5dqVsHlLsTyK4VPJKhVUAO3NT2f5a05YTLtnV1z+KRFvbkqntHZ20baM7CsjLg6kszfw1SxIBHO/b2VXUI0JJVACTMo/CQgYAYkX/VS1BG4UgL5b5BfMgFuHG9VQGUdUJssYYzEeWwwu4N7YcLVJ2EZMbllaIvlznNKSAT4cLUVCxtLgl0Jchk4Sn93sFqqJJEaMoWIy3kxvKB4gLcCDyrVu7cVnUqFtGGQgKD+HfELbkezuqB4FQCMjKokc4RBOSkcV/WKlEgkWV8lxfMY7+SnIE8Qe/uo4jEjqAkfll1Jyx3JK8C5N+HKq8aBFgGZld14XzjkTfC96NCaFmuRnLFIfdkQ4E3Phv+2tNsQUQmPxHNmA/Fst27AMeIxqJwU1bOVJlBygAGNcco7u2rwiSlvLZkByh7EjitrWwPb2io9xJkOYzmAls6W8tF54A8eVHDCQBW7srjM4JjwsOFzhUUvESWLMqKz5QL+GNeNzw+mq7mV4kgWtiVD4u1xZTfgakrYZZck+Ybv5bNgyYEjv76rp7CFyWQq4cK5Wzr3X+29UsSjBxd4yoZXAt5QPBOOYHs7qQU0QSZBmADtbI2FiPbyqUG0C6PxIKgiEjhe2PsqEgPluynFDiyqLKHtj9PfVSLBJOLLiqMD4jxuMR/nqupDN28xbopMjW8xcfCRwJtxqbCoupkkAGc5wD5gvfC/OlYLckbI7PkZ3DMvhBY4FL8z+qqzDSKsrKWRmszEZF4ki/2CqsCrE1UTOWCN+KgsqggKRbiDRCEdOpdHUkdpjAtYG3IcqzxVKkaMS6m7K6DxMVGCntNXEJFA+UyuY7Rv7xtfDCxtzoqYEZe4kdiZM4kXG4FhyAt21OGKlRQl2V/EGYXV7DH2/5KQyFQxI90tlQgFfDhUo8DREYDKrZmeQABARjfjz5UVtBJZfMYxWH4j+4t8LgG9r8BWkzJN3WIq0hVUbBwMM1j4R7e2piFBU5i6hFAQgGQj7rAdh4mluJqN5WUFCyuwLXJK2w4cQO2qm5IqlPBIzgm4k9/lZRwv2msyNpu7ZzJLJMCzWRgwALKO36KrdSJNGdiQql1FgBGoT7t+fdWo94mSjZFZQxFmwik92x/ZWGkykJK6yRRgWZVOU2vY43opRWkLswctfywcQcSrW5e3tpD2kkm8lljSyljZu6wvRxtDM3993bBWwZPeuy4Zu+o+wB2d0cEZM2BsB4gcMf1Vt4QWSc5yuDYyKMjowygoeFZSQRRfwjg5LlfDceHKe3sFSJoZZWPNJkkUhXxuxwIAPIdnfSTZR7Yyuhg5I/3s/dRGWjNXMasgwsLulvvWvgDUtNMt5ZSNs7GQDGViLgYcu+tcOwzaVOeyRknM5wJAuygcTTYahIrJIl5ChsRYOn7/LE/TWVDJEGJ8Qfx5Qwyxi3EnuFIclxRU57LISA3ugnG44AEmonvJJm8UU+ll0vCKaOSNwBwzqb41GyTB234TvU5vQv48fl4eubs0Gk6b642/p7q6fOVZdBrtcNDIGY8fw5rn6q8J1jpldp1ctlD0XJr4va3n9U2ORJY0ljbMkgDIw5gi4Nflp6YvQCgFAKAUAoBQCgBNsTgBxNAfyw/i79T5fXn5g3zG/XNWXctJr+rtR0z0/rixZUj2iRNkVYweQGmwr9Q6NyOHIuuaxPMc6zE70hpoTpdLpNEHCfkoY4hMBiGVAv217+21o8/KJW6xhhlVcS5P3T3UhFZbwDxYXYEggkC3bjRPfgC0ajzC0bhi1jl+6SKK1FbLXUMFKhG4k8iLm/040ucPtIXLJcO5ZjJ4UUe9YcsKWwQrawks/mEEGXt4cMP1UwG00UC5DDyre8nNcwuPrqwhIEZ8SBcubE3Nzc486RsIaR5h4bsAbhLA4WN+PKiZQrIot/GMeHhOD48e7vpKEGw/DDx2DtIboV8I58TVZViFCRowJBZwMmoJva3IjtqtKDM7jQEKjIWHmSgHPfN4bcxRyS5TQoGMistvCFOeVbHLhzpKZqC8ZJRGOUOCfCccAOyopkOCXcLJHZScS0akjgeNrcqrZCXJiuVBATGMcSTzNuVSiZal1Bky/jXuRfkCezu9tOKpEipUMxRGUMhwYjA2OI76q3FmAbOWZlJPK2NsML0uTkg8rzFQCy4eI4XC2vetSMDRwmYrlCBlPhOBtl41GRGKKysQSGEa+EAHge89lR0NOrChmRSBmDk5GHaP0VtkgHMFuPFl957kZjc4CscLgJ1LgkPkz+UAB5i8R/lqRUGpZGtHYlQPET936D+mrCIjMRN5ojEgEsi3KjBQLcT31McSstJZbAMSADYcbgc/opxVDJDyFjJ76sAMPC1jzqqZFyQdESHJFgEuc1j4iW7aUYqmSCI1iZYVythiLgm/LsJp2MjJulioPksfcW2bgeHt76uwqdTMsEAjbKmYYlcSo9nbVwFS7BZS+W5dwM/M2AwJPaakoYFUIDFSMgBOe+Baw94241FciNPEkZ1JYNcgm044ZcMQtWKFJZbMqi5aQkqwFs/7KglmADLmZQFiJsRwxJ4GmAk6nNkKGO6qLZVGKgezv5GjY2GaEFiCtlbEY4qbczVSoRhAhGX3RY3zYg2B42+ykKStFgxAGQWViczXv7PZVTZHBk0fjOVsQbpMMQeGDWrKKmWc4F8CFxQcLY2o0iWszQxMVJYqACLWNwS18KuIdC5RXLu6q+UDLJfFTx4dtZTNSVWRljZiAtiM6i91P7xquYkkVKXOZvNIAa1ktcgcm9tGoAc2JIYki4hF+NrcajQTgN/D973sbsezspAqVUeVmS+cNih5G5xHdVSZW6BWtlWTDKb5scwBPugdnfSdpESZB5V/LGW5LAe8rXqSGgyhUu8ZfNYm5tZre9jR1LAQhoy7Nd1wVcLXt/lq7CPEyKZXWMkMcS6nG5sOz20pgRMyYyOJI3KylTeMkY4Ww+ypLNYlmlEqpIz3scHFspxsPo7aynsIkZkpmS9kzNdkU2AJN8L1TRUZioDOynNZQLXS2P6qikQije75YAjKsMzYHLzJ+mjdQZyeWxLNYMp8Z+63eLcaMRQsy3ZhbwgeAr7r3HEnuqKtTMl2Lxrp/LUSmM5XY2CyXPA+yriEepvrtDr9r6F3/fdtkdNy9Puo9v3zZtXGMNOfOSa5twsy157qHT8ekuW6p9XlubGau0/q3/C/wCp2k9afhy9DPVnQuJdN6h9K7HuySKwYE6zbopWII/vE1+JNQz2aOdqgFAKAUAoBQCgFAcJ/En6jaD0h+Hv1t9T9y1Y0Ol6E6W33czqScuWTS7dLJHY8iXCgVUD+Ut6LDXb16d7V1XuUiyb36v9V7l1BvKXvITLqZNQ+djxuzEiv2rp/TvL0dq81TxXMr+LOe49mS8jqWcL5pJaQ3sFYG/6K9GsD55HlowUtgUIPhNluTiSDzpQzJvhFlXMEI4ZhYEDAE34VUWZRndirGRlaWU+G2AtwxH66nDSWGjZCjFi58ZGLNjytgOYwow2LF88bkZQvEC2UcbKRVLBMQ/DWRR4L+FRxFsePbVmaEbNBIuJYXeLFUFgbE8Se3uonUjRqUUhY3YC1mUnA5uF6juIuwRTFR5Je6scZOLFhhgOyrUrLgqx93y42uAeRBGPtvVgFFEcjGON8gjACqRfjw9owqMG1sgDFSGjB8txY254/sqp1JiQwCqudwPM8TJ2G/Hu9lVhOCyqIVcAgh8ZCDcWvaptBfygcTIrxe8r3sSeFLbpCZm7IjZs+a4GQjttiL9lW6ERskSKSBIC8jm8YBsFuPdvwPClzLwlvFIAzpjLcNH+6e6r2EwZKgOhBQZYhYAYFSDg2NFUsly8oNswylRjwxva5rIgoEVkQixa9weA9taaIzQ2K5AyyAgnJzYW50apBEQTKxxcSAWC5TblwtSHtKmXRAHcyzKIwCBlFsuA7eJo8SlSbBWRgARmFx7uPE95qNpsiRLMchY+BR77DEm7HEdlaue4OAyi0LsA6WF1U4sBzv21i4sbjMyKPKZJMwVbq9sbDt9lExHiWjlDgKhEgJJkIwzA42BPKt0EF3bNMSHFk9zmF4YE9tZakQULkqfMlMdySQBfnVc7SJEJJmZLkCNb+UnaRzv21G94ZcXAxYrkxta3E42NOEprGS8bLnWRThHKR4nuL4+yibG0owdHLZQuS3DEMSODDso4mgZWwbKuQKTxOPG4NvZVMoswU3USg8QVHHkMKOEUqTIWSJSFkBGVxewF6OYKiTIr5i8gQLwUcHJN7ipxSSDJVEaXR8y4Mi2xIte59nZWpLJbMCfeDBv4jEe9hgKx3kqQCguqsY42zZnB8V/3R3VqUxVkA5GW4ugUiw4qT291YTnuLO0qwnzAeBIwB5mU42vwHfWpfsZMTTJ+JgWGbFS3MftqpIQysnmsYyzhijA2Fvd43uOJowQxMkolBBCclwHDA1NvcVmJ8RZvOyqT4W5E/umqnKBKmTzrykI175gLALw+2pKntJsLtIPMEZQAtfxAYgX5ftqopOUXjZiLMMRx8NziO01MMSMoGSNgYj4WH4kZ5E43qSHU0aWQrhi+AHDNZR2/qqtrEqodK4KoSGHmvcMeAHZ7KysQWujEK2Zo3wVwcV7rHherQrL4K4sfLjGIPNRwvYfpqoyjp2tI7Shcqg5lQYMxH3hz5VLkjSLzOCM4URscrAfdJ9vM0l4hLYVCrCzgMEdbEA2Jc88KJBYGaymRyHQSn7yGwuFwsTy9lRNiChvMWQjxMeINsova1+z20ubdBJBBhUDOpDXzMOIF+A7j21lrYVYkIqpEUAy+Ycyjkg43HtrVrSUGcR95S7ERSYeWuNsOItxqNwSTPLYKEKjISMuJUkY3x4mjxNs4y622OXfdu9QumxGJ16o6cneGEe802luA1+3DhXU1GRx23W70cuS4ae5n7vP6cr1jb1i+Up8NbT6o6nXemEe5dHa1WN5EPT+sbTIG5+4Vt3V+Baqx25jXae+y3KPuVXAbFAKAUAoBQCgFAfED+op9ZZPRv5S/xLy6TVfk919TYtt6Q2fUA2cT71rVJC/3jHA4rn01nFmJGMxwj8GfQey6bYts9POnF0wij6Z6dik1zYh21GsUPfuxNfv2ly1Zl227keCz7m7m97OUDfJIWQXSxeO3BeGJ5Guz3nAkUiMZDZrfiDgTYXAtzrKg0zbzCYQH8aS4qGAJuOePIVriSJBLJE2dL+axS4kHHLxIq4oiK+blVJDhFYBVGLFb2sL1U0DZGUmS7eXmHijGIKg4Zf71Rdok1kuuRVChWHvLwQnDxd+FV7iJSZRhs6KqogUAnPcFrcSb8u+ooTg1J1BkiYoSwQSglIyMwBHPtseVW66SQWMalGyyBbggNhnuMfCOYorWyK4hrqieZiCAEbsP+amBZM1Vb3dCXHhEoawGPDCqsSSb2YEsqrluBKSbHLa1yO0GpXASRIqZVSxZbAoPbzY8arUF2EgrgtxxYsRiL8fqo61IZhfELEsR76Dhgb8Oy1Gg4LsgcqGbyc38MD3bjmP104YZeImM8Q4UKcSqnAWuL+2gLliVdQQFkPhbmuH66tVQzBIYFC1vGvuEm3hH7wqSWDRSJMBjI2by7kXYdmPIVZmpGUV0YqmTMGtex4EG3hozRqI7S5st3fKruD4UUYYAc6ithjYAb5oXUZozZyvEriRYjnW4MxQ0c+GzfdFyrEYC1rn+9UdSooMoy5gWWTBUY24C9zWWg0aZLFTfwxk2v97HDusK1tIpMowSBbEI98p5Hhh3GrwlbJaMIqvIAnmWzqDio7R21lkjcWHgIumUR/wQBgCwPLtNWIHaZkA3DXXEjAeG3Gx76bagmNUEbkEZwTlUnG3K57Ky8CtFmDDy1VwGvmOYeIm/LuNWQmniUOSzszZEdgTY8COAAPKpEVEsrf3vMOVlGIGGNr4Vvh8AbksSALXADNIBYYDjWcSQ5KsXRWcJbO1g975ibVaAqwIEUiAEcI5CMSwPA9/ZUZXiVYSlksBcXupOILE8bcKsORRAIcpJtIq2DsLXB7Dfl7KluIbKmNspc+BrDMb+6DzFTAsI08UmT/7wE+Ejl2jvrRGV8R8tbKShJRj976O3uqTQjNWRlIUWkaYWJ5A3v9PsqKtBEFZY0uFY5UNsz3++OVaQbRVnJUSFg0YsF/eGFjWXJUqFT99GN3Bu9rC4IsAOyqpgvcQGjyOsQCtwjy8ByN71cSEORHg8YcuCpI4Dv9vZUuSkTLKgLKiqJLhSuR2443PjpDaECVDdWzEyJe9uZ/ZS6ZkTUtHLkS8uVypyycimHEX4UT3kgll0582PPfIAWcizOLW8Pd31XEVKioyAL4gHcBUJ5qT2cb251IjvEmcloGBS3mNbE+IWB59pqAguRnyKqkgXBOBB43/VR7izJnciRBgigYyc+HA9gqJyA2UHLxdcRLfKDzsDyHbS6CqtQ5jdpI1ZSLBiQLKG4WX9tVqTKZ07q4dyQZThc/ugmwse21IqVpEgeUQ1vMkuoBOAPP6TUiGWZD2XO0o8sta5U3ubXGbuqNQChMoytGIxkBBY8W5WP10bZmK1KymFEkU5gCBmA4+wD9dSDSbkoLB2MYzKB7l8ALWFq1IkjKjBs1kJ45TdTzuB21EoDR2fVNFpt96X1E6v+U1Uku36yRMbLq4iFve2OY1huqKrZTP0t/0mXqW2k9N/jW+GnctRk1npb1xFu3T+hPvfkN2gdJnI4D8ZBw7a/DeoNP6equXae50F/FlJn6+a+KdwUAoBQCgFAKAUB+Qf+rR9TH1Pph8FPwy6LUGWf1Z66n3vc9rRrM2n6e00cUbsOzNrWAvzr7XINN6uqtXadPX5nBlNn5ntCYtT1V1bqwc2j08sGg0H/wDDXSRAMrYdvZX7i63PceGuVO3E74xAZi6+FQQpvbA4EN21pukEZmIB5YdgVKnwpa5vxBHd7ahZOoYkAnIrt98Ngfb3eyrJm1jy5PKDMuRL2CXwZef09lQ1Q1RxmTOAUAHlA8TxsDW7nJmTPJ50qst41T+I3Egn7oA/VR1dC9hZrN+HEly/uC9gp7zzvVqZk6oohLCVlOQAzY8Be4tfs7KrVC4GkjxveOMhioHhAAJxwIPIe2o0jMbTAq0zB4yPPiBE0h4thwA7u2jZqINgrqysBZHGMpxzXGIt9HGk1IoLsI1QvfyhCLA4Gxa3Lvqq2BMszJC5CykgY+YbEr9HMUTcUEmpCh8kjBClmRr3zC/vf5KqEFmysiWUOkp8ajibDGifvCKGQlw5GVZBhlxawGIPCs3FMwmctlHvlrE3ORTyHto5Coy+SONFkLp5kZswGIBHC/tvWrnDJFSVVXkaUxXkAzAk2UC5x9lSkk2l7yMFRkC5x4QcA2HHCqtxcSqeXe7jFsCeZsOX7aiqVbjRXjynLGrRuPCL2uQb4GjCbLp4VdnbIRgCeAx4YcTUShGZIyhUsowisWkB9zvPM3rT7Aky0iXbLIuZZbZQPeOHPspBZMfEfKikTMVv4ObC1xjTARJoHvlUuFRyR5LXObC9u6lzkPEvkDeGxiDEAOD4T4uXbWrlNBsKBMjqpbOyjwyXuASbWIrKTkIqWsiK5JdBdLm1ieZ/ZSRBo2ctdlOQ4y9hAt9lajeEpNG8pCpMZlTHLyzA2932VHchDOnuC7MTcDCOQniQeC+ys+8O00AvYraze8LZsb8KrQmAM0dlkHiI545Ba9RSGySXkCiNckbXAAPE240U4LANIq+JOIJQ3yXJ8II5dtWWJAdZUGBQt95jYMQf2U4kxBIIYFFJKHHOBa5uRxNVpkkzcNGpJyRgkLl45RhxHbWG4ZV2FmUwmTAPl92RjiDyJHZWogKWQTe6klZWJIccTjjl7BS2hEi8SJlzMMzagkq5OUm3P6LUtW8Jshb5w3mgl18LDAAi+Htwo7UsSyV4+YGN259ii36amLBGQlVcoBNFcpGOAXt+mtNEwGXJCYliDy3LFS3iUX5n9VRlglDM+aXL+KCBHawDITemIZDXd7jwrbFBbMxteneUqMzEOoDQgHO/3ieFiOVEpI0JGVWVR4WNyq8lGAsfbVb2FRIjVlcsFDxi7rxXE4WPOpJO4kMj5SR5y4Xfnftv2VU1sEFQis5YDM0XvvgS+GbA9lZpUNkSIze6i5X94HE4DgaRXsCKsfLWQoqkPgsrYsLWFu6kjEyzZWDqgjW2LE3+qlRJV+IR7Mgs0a3uuW/HCjuEpFjGF/ESMPdhlhPE88wtxtSGWTM2MhAOdJhmwPvFRjSaiDJM7BwoBdrs7E3CjgFx4GorXgGYxgB0kkNyws1jcAE4YdpqB1LAxowYY5FN3PugdvtwqJJMVLKLukhUW4xZsb3HG/M9lLe8Ug6WJAAVMIXxHNITixA52pRFpBszrYi4KCyva3vcgT2UwIePdUlv5M+qzCKbbdVp9SQDjaGUMfqHOstG7VU+tH9PB6mH0r+b56vemDyrFtXxIen0mp0GnzELLrNpeLd/NS/Fskbg9xr8q6303DqeLeeq5JfOVG4/fnXiD7QoBQCgFAKAUAoD8Af9Qv6mt6p/OC9JfTbR6pX2X4cfT+LX60N+Iq7nuU+o1ki5RwbyxFxr23RGROp4t1T4vO82MqN58m+ms0myLr8heXeNRq9XqJOBvLK3Dtw5V+r2REnlLnU8iOZws7RiaGPEEG2YcbDsPcK0/EiJj8KhhIVS5yscV48O41mjCkPCsYs6YzWMeN2J4HMDft41LlFQWIzKEEflA2MkRJJGHHHiK1CM2plkVTMJHBcupvGDe5tgbfRVtUIrbKqDxR2ONlZTa+PAHtxpEIKCxcghGDXQ+CS1hcE24cKpqJxLxoAGdj+IMuVj7oI4hr/erK3GXQmOWJnUiIo8t/MUm1sL3PbRtN4Fg0jIQo4BM2OUWuQo5k870lwQs7CQuEbwmwCXuLXxAPI1p1YTJswQtlVkWwimvxAuCLdoo8RJdUzqbW82/gkJsFuBhbvtSQU82PMV9wC9gccptex7jUgF0EiBrYI5vMeVr3rUSJLIt1dvMLknGSw4HDA91S20jNwoDCNpPNJW0JXBFJB5jnVLtMsqMqxmMZoblwpHvcvrrULaQgOVZlK8roOIS9r37aiCRYjJIuLE2JVPeBF8L91R4hMlgwjRspkCgZmPADnw5d1TaV4EhlManOp8PhUDw2twFWEEgSyNIU8ci2GIOUXxw/bTiIpNMyZjdC5YeFeakm1mI491WX3CGTnIkEeLoli78ycePbQqUlfMZ1dguMbeLtAtxFSZZMCoDql2UeW2KOcTISBgOyrAZDll8WI8oWC3uQSeQ5Go21UrNc6ojShWYNbKvDKSeYqpwZxK3URjN4HPFG8QA7b9lCtG6ObFCzSsRg/cMRw5VZqQxsc65uEoIYDEkC3u9nfWGjUkvmJREjUK2EYJtYXxHdWlMyQAeMYqiobRqL5R7e+rLEUKlksyjwuMTIcRa3P9tZkjobSGygCNZGX3LH3SfveytLtEMoCTIGWySX8dvdaxHbwqWyagLJd1IhvmN7cQpuQbXqOpC0qBUysWYZwVUcAp4/prSTCVDCRcsrmL+GgILtiQuUGxvUdMBiaO1skNgqkBpnPG1+J/ZUeJIKRgOsi5i8Z8RUAA2vxHZRSVls+aNbhSXOXAe8ADiByrd3YEiLXjMVs5j4SD3R3X5mip3kRbMGjdo0uVBGbNY2sBY1lpGoZkCvl3DFWiGZbDFSTbxHsFZTTJ3mvkWHnZQTxeQEk5zj/7Ncl1O4cRlAz5FzKI833Df8SwvdeysSVqDNiPCXT7/gZfDcWsAO2pZVmWDcSOMUPvNl4DEXB7TWlMlhmciI5BDMS3uuBcqDjj+ypBpM1jEt0BXJlGJ4ZsePcKLiMtEFwh5OBcOR4Q4tckW4U4qAKwVWyYi94iRxvhha3CrIgqXZwlgbMSMwxJJ7ajwxLBTLICqEALlGY3vl4nG/E1e1k4jJczOEIUyBTbNwtj9ndWbrmaaIZQrIlhZxdQDYuR2dgpV0AfwAtGwlJBtjYC5t4TUS3GcRixW3jdABYcMTfla5rUIswSpCxoc/izZZFHvG+J9tIjEm0oxQBz5V1SxJ+9bhj+yo0gZstgytH4UYGO3MHh7O+sxNGakiR80auWLeY1lRRiCDytw4cqJ0EVqVJZvNe4IFsoviCb8u3vrVzWwidTPNFGllsHW2cm7BcLkd59tYVEWDoNxgXW6DW6IZXXWwSxgsDdCy5cb9vKl1e8KlTkv4OvU4eiPzJ/lqeuY1H5TQ7x1Bp+kd63MyZUEG8ltlZZT2AajGvCdcZHFk2Xew+9yPMi92n9QSvy09QKAUAoBQCgFAKA/l6fFX6sn1u+ZD8y316TU/zDT6ff5emekyoDrHBtaJtGSM9itA30mv1LobIjKuu7IPL89vm5WnHmhC6XRbfo1jKtDBGpibBfMyAtcc8Txr3VtFB8GDZXEjfifjAHFFwKkYEju9lWN4aNb2CQyki5BgyHkMPo+jGonvDrU1aSSJGsQWDAIRYtc44E8P01qq7wWleyOpv5q2ZpSLqFPEX7fbVd/uEbi5LFFUrktiSRcsvDliTR7yoiFcFSIEAkk5ifEe23PhRKKGJqXcfi5lZhYWLDG5I+wdtS5F4iylBGzNMEKXJIHhx4ew+2tYF2kqRH5gkU+XcXAF7nhfGl07SIRklwjt4T4nNiWUAWx7aJVK5LP5ZdxGp5EriCzdvfw4VYkzIeN1KNMAUlxjUG3Ze4HD2VIbZUWDSJFIq2Mbe7La1iCcLcqJQVGkYeJIFSPMQRmJ5XFsQfsJok0RwyWYZvLZ8FuWJHDDie2rKIq1LJIpAlkmzZCfLgIwJvz7uyl1pYqaNcv4Y7A+JVU8T9HAY8BU2kRnZAR4srPbM4Fr3BvVKsCGZ1ljKDLYYPwwtawHf2ms4iScwujKSXYkkYkDnV4mEgGaNSpc5rsxTiLZsMedVNQKExqHDAHMpA82xsCbcO7CgagrG6MxlGd0W4y8CxtwwqXII2AKMY82S3iA+6pwNv89ajtBQNCGzRsVZmDCHEkkfpFEGdRJIvAPmZiDIhwx4cqrwCRmyuGcvdlygHG9xl4jsrFUSgWyqr43NswwLsOQ7h31ewFgHOYoR5im4S11UE8+2rsGBVifwgVCxjBYRxN73x5iom1gRFbjFUfJGD75uOA/VSDSJRggILE5rHMOOPZ2VE4Jcql5BG2dpBnLYRnh97AWH6a1O8qKZlUCIMQg942wN+WP6ak7AsRHYRPkQDKB4L4BQO/jVtwDVSY8sSZvezFrMcDj291E6kLlwA+QZySDm4A8OPZ3VdkLEEJLcr5jA+Zhm4DnhbuoqINC0lyY3ytbxMwOA7B39hrKcCTJXU5uP4QIBvci/Em/H2UeJTVQmUsQyg4hWxFy3HD9FRVZJKuxRLCUMkhGRVFrsO48KrKkUmcKkismU3szDkbHDDh7arcoIgMBYEZVBIlkU4WNuI50bJDJd80isGUKRYN2jhj32pCYSobRkLlMf4JJCuuJVwSTe/Z7asCJM2kCCPLICUNvKsVDX5Dst21iILRF5LMjrI4GVvGbAk3wygDh7RVSbJKxMhM7SSrGgN73J+4ARgAeJormmW6GUSRM6SEMG4AN2d55+you0bDRg2XOhAtghH3e/2e2q22KGRRlB85szv7wFwxNhw7BWdpETIyYoreYWwWy+FuVgO3vrTUINQURsiugJQLYXYXOJva44+0U2QaIc2iDKcsy2sLe6QL/TUuwMpmUiP5yYeALdjfmcOPLjwNQshRi4jUKyciTZged/u1bZntEk+W4HlOVu+NiOQueWIt2iqk5EEAt4RJHyt5WBUpxubcb/XRoIiJhIR+KYojiMMFAwxPMDvrKcIlxLFGjMcZDhSckhwJubXv+o1XbUiM3LZIxiWUKLDgDe5PaP0VlyzSMS3mFxETlPK33kHEdntFRvaipEfmFjSz2zMCxUC9yABy4nHlWkHaZeYGjbUIvjICvHcXscOeB/TUVSJMiUrnCksLKCWviATe1z+g1XVFDMqOjDAEAomIBNsT2j9FZa2kSk9evWrXbr0x6W7P11tE3m7t6Fda7fuu2FFs0Ai1cepQg9hZeNef6myPU0V3Yz6nK8yM9dqP6u3of11t/qf6NelXqJtWoGq2/rbp7aNz0+oBDZhrNBFMcRxsWINfiR7M5SoBQCgFAKAUBw58RHqHpfST0E9afVDWatdFD6f9K79u41LHKFk0G2TamPHtLqAO+qkD+U16K6jXb36Rbj1duEPl7j66dZbhvWrnbB8s+rfVMC3EgsT9NftXTeR6ehX/EzxXNL+LPfYj2CLBmMZTFmNlewMZJOGPd+9XoW9/wD5HzKsrAzp4CwkJuhHYCLXx7+3CqmaZsEUCQ5wGksSTxPM2tx+jClF3kbIA8qS5W7N7vMML25cPorctFcGgdQ/mhC6xm+VjZRysez9NYSQxM5JMQ4GQEgkA2yE8OPEYc6qaxJgoOrOcgGQhZFHjjJsCeIA7ePsq3oSVswzYkKMQyn3hfgO3vtUBRWEahQBKlwJVOOY8BiOH0VOKoeJ1bCQZkaRWjiF1bAsARexHL6ca1TEYlGVVBlL5jxUDjxuMP21EwBJPlJD+axF3IF2/wCb22pVFg2Cl7XUMrAeYSffPd34cBVT2ho0AbxADzCD4VvYAWGBtgP01tqETaZg5C1zZrE5jha7XHHh9NYaQghkkYIs91BIYOBdr5rXseP00VQaX8w5JD5gbFHOJvbiO2tOAbIwV8mXyopAcS2BA7xwJ7KsEMbgRvGgOSNrxSXuMSMCeXsrBYNAHH4ebNmN2Nx4Qb4G/Ad9W2ayGirKUuHYyYHKOfDgP2mmwzEkoVylr3EoNhzUDmDxv3VXcVlsuXMQwZWOL3tiOXt7qVkskI5UEZCHuLHADEc+yjcEaLyFhZohkIsDnF/Fz+jvpEFmSGVFzOLOrC5y8QxtcgnjUITHlvHC1woxaQ43a5tbtFaTKxnMmcqeHhY8eVrd30VGw0wrZAkYIDRr4MwsBccyOFWBJH4jeYkilFOPljja/YeXfWrXLK5COXQAqPLYWyqbAW/dJ41hNkEisVKKRJ5gHfwHEHt7q1sMlkR/LUWyuo8EjHwkC3vdhrNUaaKhHVyGOC+Jn+8vixt3VakNSUYS2fwrYggY49g4n21FgEY2JZcouoUe6L3OX7b1WpZUXd3LNFkVGN8sbcCb43PbajxEErljEalyGX+JbC2P2VOKkkksZFIR5MQ1/wAMixXjb2VUw0FBDlFlzGQcLXuoAPhPCjkYGMszrYNH5a4lcQRxtgeZrLcUKifEiBh75N3YYhSWvb21ashqHQu/mEESi+a1je3PsrUwSJRkAr+YjuXLCwwuDbmP21i5yaZUqrSxmDiotGwxNxYm44GrG0Ekggi4BkGAUYk3PPt7qqIWxYQqXEUca4ngTYc++ssu0ZWuQSOHhS4DA24nsHfV4UZMcyuJALtlGBtiMcSLcR31HRGmgJMquAL5wl5WHLsFuP6aCpXzXlv4SY8LY8COy/PuNLnPsGBaTKslwbq9742AvbiOR7jVcTSpJJbPf8Y5gvG/G1zY4cPorLiagyV5BYLGSj4sRyPEWHZ2kVq5NmkbrHIkYEkmaSQDIiWYHD+3fRTgZ2HTSlVcFSTZiFsfCMbG/f7axBQWleRc9gikF3YEXBxsRy/RW3vIWVi3mRNH5bE3Rhyy35dlRBopMJfCbXH35BizHCwW2BHaRWLsTUEIJCykFcxJvHgceGB4E93GtvtCKCUlpMo90+Kx8IF8Qb8+41iakaCLGz5wbuwI5qLW534H7KOgZk0siC7EIsYsBzNsBYjljxFalyR2wYrJqJPLAIHmDxxm2IJ5W4/RjWbU8TQU2OQv5YiwVgBhcnC/0cDjRtl2mcuVLeWodj34dt8eePA0cIW1JNpFIHhRD42+8CBbhxGP0UJ3GTMQVsA0jqMgJxKlrYW5W5irNKEZxz17s0HUXR3rR0o7XbetgG46WBQGLzaRT7vsIxrpa3JWZkX2b0c+RfF9r7T9/fyAfWcetvynfhM3ibVfnd06K2aTpbfNSTdm1ew6htK2bvC5Qa/A8+3hvaPfWOUfZSuI0KAUAoBQCgPil/ULetf+5P5TXxR67S6k6XffUHQ6Dpbp2QNlb8xvG4Qo9u38FJMK5tPZxXpGb3CPwR9EdO/4X6U9F+kBeOTY9ifX6mJmuvn6wBhgvPH6K/e9JlenlWWbkeAzbuK+59pyH+DL4ZIgiJcPKvEt+7jxN+YxruUOBlVzOLL+JGcSthhbG59nfUSk26ABvHC65nNi6DgRflfhh20aIWV15Xk81ciqp8VrWPD/ADUlBsRFfLVRYSKSPFwOOGA/VVtYbNEKOhMaKyg2BJHgYHjY4VU1sDLhHMixTJ5kdwY5gb5Wx8RB/XVTe0idS7sjWEwzxDwlVNixta/dUFJI8yKMlYSPy0l1jI4nnY2/VVT3BWkqjI6ogXw/wgWGOPGon7Cl1KXIK3VBeVSTdWIIw9lVVKyyxKJFcn3Rc2vlccR+jnWncZmCzeSSv4doiLoovcMDxP11E6kghGeJCWGRWOEinjiQBb9lLWjVyNvOjaRJCvlkXDA4gYY8cKJqRsJEipZchaO5YSnE2GON6jukJF/MdxF4coJwAwuL2OPEfTRsiK+WEvIA0kbYMOJIINvp9lEVUJZShBUiMMMAuJ5cR2ittETMWfTxsokB8oYlwfEDfjYceNYuoyrA3kUBgV/GVrMeIst+PtrTxIqoz8LMC8mVHHukHNe3G9ZbBvHkKMoUurkgG1he/KrRh7yA2WNS4OWM+GHsa9q1EISwDdFE3heM3VSccQeNGqdoXYSylWRXFx7yE3VSMMR31IgWl7sXCulxJ7hHG47KXQlBKAx2BRzkjFgLe8rA3FrUToNoaU5TLiMp8TEcRbgbc6jKjV8+bNIuaa+IJscvHC3Z31pYkMWXzLoki5xit75b99qJCIdDdUjVTkfy2Wxzk4sbH3RS1KAXeYRPE/hcZTnVuBJAFj30KqHTrYeYZPDIc3OxQE9lVwIoZKit44YyCcZrmxYLzFRpCTqQwCp5TB0nH4KDkbYXPOoRGTeJXd8zSKxUqeKm4v8AXSqCVQWSKzSnIUuGW17X/TUdRDM1UBQrOC48QNrXuDa96nEkaZr5gVV8XhtfIP3rC+XsrcmUoMbZnZnbPI33BwYX4e2oVtGgsmCIfKlH4kfEXPInt76XLcSWwYkyqqxsxQFlv924P104SyMouVBLIRdDyF7Y4cKTLBkgMbyLEQC9rt2242t9tqKhFU0zR+YsrKFSIWJBuoNjwvxONG9rImQBJMAyMMgN7t4jlIH9rGmKDxKOrGWyrcrjfG6re39hS10NJEEtk8vJ5qSWaRh4bWxHD9VS2U4C3mispjVZYswGCm45DlRdpGZR4N+GMrAmwJwtcDHv9tZoXvICuZCrC4B/Ddb4/XyrViDIUKrM06BkBP4V8Qfo/VUoGqFWZswyuEh4Ag/RY/tom947yHRmfLH+IyuQTyyk8Mf10TBUAhpA1mK+9GOzjz7Od6JNFcF7gDzSQ6ZTdcTmPAW5jjVUQZlmZYDMuUBZRfyxxNuV+X0VHjQ0ysE10jsA8QOCHBje4/sas1IQpjViJyCCDiCcDxHHjbvrEKIZayZxgJmy2AaxuTfG1sRxP6KsuCULy+a7KzIGb/7pSQSAf7t/srTdQoMUZWUHyjIigs+mPEkY4ezurFICVQxDIbJkZx+H9B4W+nnV4d5U6lcqI2eRbRtb8cEsE5eIHifbTDELAowIkRWOVW94DCwxxBHC4HAVmCFcokaOKTAPcwA+HhjgR+qjdTZUqt5Y7BgpH4gw4YZe4d9UyzpYdPC3WGwq8ywQbtptdtepkK5mB1EZdRbmPbThm4k0P0+/0lPqY7/DV8Vnw4a7U21nob6hSarR6Jm8f5fqGB5XdVPBc+mthzr8I51p/T1N1vae+0d/Flpn61q+SdkUAoBQCgFAfkM/q1PU6bU+kfwX/DDodQwn9X/UD+dblo0YXl0nTum8oZhxyh9bcd4r7HItN6uptXadTXZnDlNn5otc2nn6w6tljhMei2hdHtm1q1rqunSz4d54nCv3O/5291DwiThF2DrJIrxAFbFWxAPMW7RjyH01XiEVjmZGzWDxyYLJ7gDDiBa+HsvSYLsNleVyczAs3vKLZThxBPA/b3VqGGzRrAlYowSxHmMOJPHG9sR32qNzhsEE5QrgBS2VvxpDixIwy+wX7Ld9V4mUQbkOZLeZhZSMtxjwt7OV6QKSSLXiI42JzDAD+6OOPfxp2iZJkAF8yFM2PC4wN8R295tRKMSyaRMMjCOwZmyhSPCVGGN8f1UtM3QQjKSxEdwo8PMkWzcRj9VVM1Mm92fOYwWVCAApGOI4dn2mqpZIQVMgcBGZQLvfAJyuL8DjzrMgrBK73gUBudyDiO03tfhVrESVo1Y5hIVvISBlJPia2JGHH6KpkmDKQzPEy3wmUng18LWvh7L0tmSsnEMkhGZVBOQ2XG3Ech9NG4CSESSSAzYo4JEuU3wGIuD+k1MUSVBqAoBdEMiv/FxJF72BPPCtYIrRAyrlvdEwXzbgk3uLC36qnDCDZR42EgHlZFUkLLgeAFiOyornAL3aNJPMBmcm+A7TcgDlbvqJFgtldjYsJFNjG3Edlj2kVsiRdtQ5Ay38yIAlwMQCvaOP0VniIoIYKCWW624MDipuPqv2VpOgaKRsrs0gI8xACoNxYcwpPP21lNI00aIoY3Zi2e5YG/ZzB/TVtrgRQSPLlCl7xlAfKBxubdo41aQEy0RjmDeafLdwFcnEixPMcPZVtUiCrXYSI0ZzKAEAIB4cewWrMBNFhOUSWUi4GDAYkoRxseffWXRFM1UlQoFgMSp4lbjiRxrc+BJUmihRdghLiykXvYY8T2VKMrclTIzeGPThES4IuDhh7pPD2car3DhIJ8zGwLkYnEFseY5fTRuhEyTnsAPEIiCV5AE8O/21EgiUZgpjdbs5LSm+IwwtbiPZRN+wQiBIY1IlxAJLHiWuQLXonSBsK5WdQGUDKATc2C8SAL8D7aqBZQiqqvGSyeIk9/Hhy76zBWjEGKUJYm6k5VI944WvbiPZVbTZKHV+YTIgMZizEm6gYm5t9HdTsEHThZJHdheID3nUEEZRyB4D20SBKSSo6KBYD+HILjMfp4Hv4UbZUi5dohc2wvfvxGJtx+iq0RGiKrBfwwRYlrHFrg/X7KJyyQYAnKzFS+XAsRwNh4bm1vYaPeCBNdlvHcjMrqLqsYPO3Ee2lrLBYOUHiIV7+AjG2PPtPeKidBNYMbZI7FVkYYsoOYkkcD7e6omWDVYmurSII3e4VGYMFAOP1d9H2mYMnBYozqYQ91c9luF+y9qPGhUWzFIABmHlHwqOCg8WFsTxqzuJgYEKylSrAMSVJ4HAC5txOHKk0k0kTG/lyMMEiRfdK3ucxvjwI+2iA8Su6s7RrgVmHG1r2HZ7DWG37CMs1pMojxY3yEYFsoy48x9orTxgGaMha0g8uV2ukR4EA8rfqq2sXFIiAzR5DIGxk5442xNr/prKue0NISRlnbMmWUAggYWFuBvwvfgarubrtNGJVnkCFVjksFK4iw4Ydl7VE3IglQ+awUNl9zw+EAG9xa/1i9SWYRQSZUARTHIAcj5r3wx7jWVdPYadpN7qDGGzW8T8SeXE2w9tq5G5InQqTORdFF/dLA2sDiTjj9f11ltwVlcxWAL5WdbHyWAPLuFzz4i9JfsCiTOMkFGaFm80EMTa1wBY2vx9n1UbhERD5gpJs8I7T4jjbH+wo8KYFTJWYsrqPfdRnHZ97Enl7frp/EnCztW5yNphs2tVsrbJr9LJmcWurSCMnt5+yuO+ad5pRB9lP6cP1Jh9MPmufFP6LSanytk9dOiot82WLNlSTcts1kE5sDxPlSycK/KOtcjh1be89ZyTNV2Suw/eVXjT7IoBQCgFAKA/AT/UPepD+q/zhPRH0p0sn5/avhy6BXdNYqnMkGt3meTUyDjgwWKO/tr2vRGnd2rV26p8TnmZGVG8+RuxSS6vRa7ctUzpqt61up1T3sSB5hRfo8OPH2V+qW/FL3nln2HelkFs8jF5PuxjGxva+PEW5XHsraakxILBnkXOPMTBUwEZuvH2/VSajiMiBJGmTCRLHjawvfEcvtqNFTLlGLKqOcTYqvK3hsRj28ca1Ad280XKykFywsbJ98EAkknswrKnaDRJGeGOSR85bBQB4xb93vt7K0nNSdxYBWAkzZMlz4iQHxOGANj/AGvWeKlCzJcyuUSRczKxOYj3strZbY4d+NacoUKkM6sC4yoLiIH3fvYHn341VUcKOoDMsLDzFErKABa1hfEDv+qpxRQy1LIDsYomTwqtwRwIuDe5H7PpquUoRo0BzYEXjH3ScQwx+r66t0tEkNmzZlLEqPfw8JPHDmKNSEABJBHgrL96UG1gMCRw7OGFZTqXbQs4LuhjluoFwhJ8SkXFz21ycZnYXsQ4Etwyi5GGQLew4/5anai1IUKmVFYqynwuD76kY/2NYd0hs1kUqHeJsfecg3DLxxA/yVpsQVRQFBQZPM8SA8EN+P28qi3i6GRG5AkJdkRPe9pNsB3241pMYd5YuI1Uwkx5MXJNycwxNqTt2FZChjmKSBzjYkWPHjan8CSaFGhK+O6SgZMtwThYk0qJRUBBE8JmODZnmYcCMQDbt7ajckg3DA5ZpHyZTgQBYcgorSKlTAr5rKxcqBITZuJBU3GJqQglBldckgS9gSNOW4MSByrTucUJwnUusa2y+/YZx9OJ76St4MkLFiSWCr/DcgYDgT/noUZ1diAMgAAL8iCL1mVghJp5sgDFLIxGV0YYNiBgRwqzISKqhkGTObgWFsCRjiaWuSGUjBHA++osGv4b4Y2pt7So6i7EvHM6qJFvn9nK/fUrIoZ+X5hF/AyWERxy9tjU2iSjxqVte5tYkHE+G39rUkRJqSJCQhtGvhW/bcY1pORdBUeYwIjYOyWzX+nGx5e2pNKAqwd8rRy3fhl4Yc735UT3Bom5jmkK3yHB2wvfu9ndUmsEiSVM5l452ja4YEAZb8r04i4lBa9o5cyi5YkkHEX4Vqdxk0s5R8zAlz4AOXiGGPConQ01U6d7SBQ0nixzx8gBjUtbgI3sWC5XCkgFXODDC1W1kZgtxmiDXVbljc8rY9/01pVLJoXz+JJDEzYef2Lc1G6yZgze0YVpJbv/ANWeZsvO3CsmpJVQMzR5URhgw948se4fRQTQoweQKxOXKcXtcGxv9NSGWR5hSyGVij8SxxJsfq+2tK6MCJkkulnsX5eXfKBwtaqk1QyQPM8x4mIzPj5XI4nnhw7qjksHTrNILAMHEZyzFhxAxsMMeNZ4mVI6j8QFrFVZcWhBucT2mtK7cCryEtlU445WtYgk3I7voom5LwmAeVbSPMAUsFjIu1iDhc2+sWqY1JCLuGEZe1wD4oxxwtw7TjUo12BOBeWNizG4IzGTjmJ5X+jhjSYqabkyBJVM8hicXZguJN8Rc9mNDNDRPNyeUshDA3cADEWthw/tyq3XNorxMCYQmdmJZyQIlxUY99uP0Vm1i1M0F7rE2o8soBkB4XsTbvP0Vu3EiqjFi0ZKFQRjkcnAC4BGHPHvrCVS7CieajMwOeMEZ0HvWPPuGH+Sq7YEzQgiJ2lQzF5nbB+A7cOF/sogrjOS3ByWkjwljH7oFgThwPs+mpIgznljhLAaqMFQMyE2a3A9uIGNsaj7Co6efat26h0mp0e1Qrp9PqoWLbtrbrGhTxgpH7zYjA4eynC3gJSxPYP4FfVVvRD5uPy7PVnU6hIdB13PqekOp5FGVJRuWjl2lFY4DN5kiEV4DrzIlW39h6DkLh3I/prV+ZHpRQCgFAKAUB/L4+L71Wf1s+Zn8yv18hnWfYdj3abpnpTUXLeXp9FGugUK4NsGja/tr9R6FyIyr7zy/PMybrbTiTbIfI2faNIjXEMEZe3vBiucm55XPd7a9wqo+C5OsXNIfCwOTFmvYXPEc/1+2tK2UHJosURAAXzmXxEHB8Te5HMd5J9lXhCLoEZCoUhT4cePHLhwJ+z2VE26FwLNG7JmhXIw95SbFgMfCcMcOz6aiTeBHiXdRE6oJsi2vMCvLC1zyP11q5VIiQAkgVfwwFDKvIi58Rvex+k+ypDLFCXzszMAXgkNkfkWwNrf5qtzaLQ3FljIvlMh/EVce+6kW+y1a2EjaZiBgRmlVY7jO5sML2I7j9BqNbxNC2aGQF2vEz+FONgLX4Ht7caNhIkJ5EYSOMsycXvdbhhw4XtS1hI1HlZTNNcyLgAMBiD9fswrST2iBkJhIP8AAX+GwaxBwNsOH20gi95oEKqsZykshf2kG+I/z1FbIRiZI8iK7BpntkGIJubcBxt9HspLLBoFjcXlPm3F8oPD2HDh9FSmwMl/JLOUVky2DG+FybD2VuSQaF0iDRjLGZAvuA2uL8RekJMqlkmM5WzNnVMSy4qBcYAXBP11IoQuXZmeQFZWOGT7wF8DfC9ac7CRUjOozZSpLEK4AxXAcz31lNTBYDkRMHWa7i4GGBwuDY8PtrVUWps6yBwQxcixUDG44XI51WnMGHWplYG7N4iQTwJxsbWtb6qRU3BUFFGZH8s2uYr3F7jjfhesyiNmpDqxmwIAGZDgMb8B+vGl1hFgRcMFeMXZuTXsTYd/9uys1dSrcVY5muXLBTdrC5JONri163XaIoWQ5i4JyIrkuxNha/AfsqNAnHESHOHGawFg1l425VGyrAlGvmuoAzDKhB8QuMas7xBdbRoZcwQPgEFyMCbe37KOTMmITzGdXXKiG7OT4bmxthwrTxK1sNXCki4MarioOBUd/Z9tZvbRTM+5G0cmcMfCjcyDxsOQ5Gq1QOpdwG80MlmgFljBxvlvcEcb9lSE+8hCyOmZWawb7+AVrkc+RHZRRIKgLGh+/I5yg8Dax49n20LEljErWzXzq3C/cMLD9NHaREMUj8FyyMbEHly8J+99lSxbNouc1MwDnbMwIBy3vYdtvbVrIktIplZWkYKhWzsBlKjL9ntqVLJmoAawmuTiSRwAYY99W7eiMjKg8vzPGk12U2uALEXPC5qWqnYWDYuyqc5BZgb8OC2AN7fZTCjIQCSnmoxD4ZuwG5FgMf11q1tFKiGUkmwEj4k81tjfL2VEmiJlvLVolnRMsd7ML3ZmAtm5fqrK9wKoqESzOfCSAVvYkZuH+St20EFYonJcq/lpJZYySfD4Txve321FaVtBokjlZDJ5irhlZeBwuR+29RpExMlsM3mS2Zgc2ZbgjkRbicO6lsFe8lBJnHmrlyAEFrAEWve/6qJGWiWbNYKSshPhGXC1suPZ9tINK5FGAErhZFDx8VxzEZrkirgVqQVjdQ6vlKWKpcm4t9Fz9VHaY2lHkzsGaxCmyyNzNwBfD9X01HcaSBUIo8uQ5ycxe1spx5Y24c70dKojbkoUZpTMXUWI8shrcBcmwwtjUacyip1Id1ULGqWXMbkY52P6R9VNgrJkWTPmLBcpNmuSAAc1z+y301loVLsIliEubNgcyWs2YDAnjb7aJSIkycpI6PKLK1/NkscCSPdF74dt/oqtSIJLkmOOIrIhX8Fj71+0HC/2UWASJjIXy1kOSMZg4PBu4m2PHs+mmGJluknQyaoed+W0Ggm3zXSXKbdpwCQOALt7qDDC5NTbRSb7zrB0j1ZujMN73KLadItsu26CzallY3tLI17jGxtwp6V1zh4BX2o832zYdr2SMOugjm1GlKrHqJLTEnLlJGbh7eNbttSRxt0O8rBqW1SNIQ0bW8+RQGZszYL2W7a5ZlmT1S9et41vp7sfo36wacmLcPQb1D2jdxMgKskek3GLWLYpY2JTGvKdXabj0U+Vn2OTZkZ0b0f1bvTLq/T+oHpv6f8AXmkmXUabrTZNq3aCZLZGXcNDFqwRbl+JX4sz2Z5xQCgFAKA4s9c/UHT+k3or6u+qOr1CaTT+nXTO+74+okICL/K9sm1ovfvjqpA/lA+jmq1XUHo91r13qtdJLuPrt1vuG5a1ZBbzI5dc2sJzHiSWN6/ael9PwaGfMzxfNMyc/uRz7Lb8xJLFHdAuVOXh4ZSONsO23dXoGoqfMKQzRhjJlL3AtEo4EY2FrduOW1U1BcEq7uiFQ/FgcoU3sAP7X7627veSDMKWuZYyJGHhiubHnmN72P8Ayr1xpCUdXYtKUacmSEDy3/uk24HE+3h3VriqILF3IITBYwMgvfMTcHha/sFq1giLtJUBszFhlJspBsM2Fr8h7LVialaAlACotkZzcwtexa5ucb/Wb1pXbgkniaAeY8khYpIVIVDcBgMCABy7+FFM0DclGRsiyLllc4iIE4c7A8/YLVYCZa+Zc6qWIIyq3J72uOw91EyUwZvKJXjBZgyghpD7pBAv9HDnejcC3sDDNIJXTzVAxUAktwthfEC/srNzqEV8tlLZXGSxFu83wBFr/RajT9hqUIwPKvlLCOxUXtaQWvfkDVaRianUMyMWvlV3bM7EWawPHG9seZvV45xoEYG5z5wIzKoMTkXz2wAw43+qpPsNYl+LBWuM58OP3hjgRy7hSVsK0bxriuVBGUY5WPBHvie69JlmZIJUOwRS1zmZSLE8cSOXDiarSkbCwwJMieORTlcHiuBN7e99FW2pTZSFKlV8pVYDTm97E38Ob9VLXUy2VZRd/EJ3Km4HhC2XjjwNVQhjQRxZyrROWJU3HBsG7P1msyoKmQSzZigOZRfIbjOLEYfvVZWAnawmZbKFGRxa+DZSeWb9VRIuJKoRkJufKNliBAyk8xfhfvrTVCbC02XLljINj4lPhs1+Nuf/ACqmBUTmvcq1mIsJBjiFvy94CrCe0AkZg/EBr5wRY2OOPInsqIhmS0is8UXFhlgJsVwv9FFgVo1OfOQGsxt5qkXuCRjY/prSZlIr5byCQIbgnBQb5hiMDzrMQUgZYhYuyxoLShuOcgWx7OwUlQGWCKjkFi4UZlZuGbttyrTtWwTQyzGxDrnNsztbl2WHH21i6ApLqn8JxhJKPC9yQLC/PjWkqy8RKLEJI5uuWzXRcbZswwuakAoSyMAUCtEfDc2AJBtccvbRtwVlxHJmd1TK0l80R5nDxAc/bWpUkVe4pcteNAHIxUHHG5vieJ7qziETC8atEMAZFIcEY3twN/dtVQgPGBJmuWB4DmoHaOVFQbDEHOBIuMbtgpF7sDxtzA7RWZjuCNM12VJAFvgVU3zWGFj+qq7mHUhmVIgGQgZiChuCvC+PL2VHgCY2MTqscYy5bE34cSLDiD31U9pXBCkKytmEkYu0kRvibDA2tmPsquIqRIzz3CqASjkgHn71rHt9nGsygSr2R1Fwx8SjGw7rnh9N6bRFSzOJWkjZwoTKAV58uHEEdtIQhiVgWK5fMhygRm9/EDfG1r8OVq3cLWV8oqSQALe4GN1ZwCcSeWPCsOjIiju7lHupkAK5GwUYAEdwHK9VXI0y1pBlzMyyRofMTkRcnC36RVMyUZLBFurhgLNYXNxwB5/RasOhp4BlWMmNfExwxxt4rYnh9eNV78STBmpZpAb5mjU55OUZGOIPb33pawyhEp8xLfiTg3seF8MPr4iklgrCiKrRoBZbZkXxF2XDDkxw5WrKUEbkZspMxa6hroLi9zyY2448DVTg1Cg1QZmVXQLEo4Wuym1rnsHtvRWLAzxSdL4kkdicyA/hPbw4tyA/SLUmhpwdJq9Vp9Bpk1Ov1A02kzlUZ2Hie2ICj3j3AXrLhBVJ2bT7/wBRHN0/tQ0umbNfdNf+FdFOOSNsSCPdJpbNypTvF0I8x2nonTJJqBv26PuUr/wYReNUYjAeA3x4YYVy22KKnG7qUMeoJN82LpPU6nofbUk3yOeOJtLFGCIdGWtNMIxbzWQC9qxe7rbfhVf8C2pTXA4Vk3vquXqLQvJ1H4NUzga0uIdI2mXEhfD4J27GwFdR3X8eP+X/AJnJwo5Q6G6j37dtbu+l3GJtVs23rGNl6gkiCHUSyYPp2IAD5OOcCuxkZl1zaeC2mcyyDklJHk/LPG7JEqvm09vCQB7ygcD3muzdJxwcKevPTOo6l9EvWXYpNLDHNqdBHu2jDNmeT8t4yy8lIy2r53Nsn1NLetsSdnR5nDmpn9Ab5HvrS3rz8rH4POt9VqfzO9aLpeHZuojnzlNbs80mhZSf+QiH6a/Ac1Rcz9ATofV6uMooBQCgPi5/UHetZ9DvlL/FfvWl1R0+9dZ7Xo+mNjRWytJNvu4waKRe23ktITblXLkWt3pIze6H4Huk9sHS3pd6C9CJpvLTbNqO57jGVyN50qkg+HEnx1++abK9LTWWdh+f5t/HmXXdp5Oy4kZvALCBAR7/AB9gPsxrsp7jjUkxsx86zZ8cQwAJIwsb4fS2NWCs6izvGzkkTCxCFr5sLkG+JHPsps7RgQZGaZfLcyHw+bKSQbBsMtuFuxazxVTxKmbF3zPkUSC9sxsATl4k8AftrkW0zUlXjLzliIrhWtckqw5MG4/86stiCQrWRx4lynLcnxjt7SMfZQF3YRCMSoQ0YBjkFreKwFsvDhypcVI1z3CRs6+BsxNgLm97Nyvj7a3iyVRL+QWNmIa7CT95rm3A9nfUbRIcEMpR2yTMGst1xDBfe48x9lWQQgLqxBLJG34C4AdmHZx5VnvKk4AiDhwJCGUA4myljfA3wBw9taLBOZ5A4UlXy2kRhg1rWOPEY86KWw0zbKYm8o++1gxBuCuINiMfoGFRuplFFjzRZgDIIywBCjsw4YD6Kt0uhX2lz4SQgUwJityDmOa5Fj+k1Vc8A0WdiI85kyI6gGEi9ha3HifpqN0DW4K+XLIHKZF/BIBxuRgLezgKiaihdlS8YQrG92wufNsPC2NwQMOftrSG0qoikZCFJy4yRng2PGx/SacUsiZozy5bucwY3UG5e3YDztSHgHgVvIrqR4vMUiJ1PurwwI4ewVLqskFshVApkthnsLAKeN8MB7a1NAW/jsBnJsuBYHA3534j21KbCtEIwXy2a03m3VrA2bjgCMcOzhUuIkXCtGzsg8MJHlAm2U2HPlx5VrAraJV0Z1uUzcmIxJzG9weHtqSyQSMlyVXG15ByPhGIB976atzjAE5kcPIEspPEdzd2P0VJxK6ODNc4W6vwBaEe6ww4gj3foqreiIspBADvmF84Y2F2PaOftpMBKpCvIMyK2RmN4uJDWve55/TVTaZDQkPlwM0lvGwY5Qo4qP2VEJhGWZZnZQhjSEX8w4ZR3gcPoolOAJRFYnyZVcpYnMODX42OBHfUclLSOzETtIFfkBY8BYg/vA8r0SeJUFYAhXZksTZePEiwHZVdCRJQuo+5e6kMQMQLHlyPeKktCJLZy0YCyHzJASBbAkWF8eNWU0aMY2MRzNJicJXxZXzEgeLu7DUTRGWiWwZQeGHmEY8O0YqKttEG0WyoHyRsQ0dmMf8AzrXH7aQVOhQESHIpDCQXuebW49hrKu3EIszxoCxVkOVU+/xFxc8u41p7iJkkyq1s5LrfyCfuDmDbhw5UaoVlUKsUfKFzmyrhYNjiAPbxFSZLAXMCEkQqXxlJxDYWue36akEcssSuTI8mXKfDIjeIHjzx+jhVfaS0TLkVTnbAAKOFgRx8PAeyjTKmYlVz3ZbTFvw7DjYg8sD7eNS7ErwNEYMTjkvYOhN7sATiTx+mq2SCVczq0ccjKqEmSduQNvpA7uFWW0HiPy7ZGstlU5UPDiSb2HD2is2okkK0BUq7BkmawK8CwUYk8P11XcmWpLJDd0UkzFgJQTgcbWN8Le2pbaiEHN5gPmkOiZThlNjjh3fZVUhQdO4Uqi+ddVOVFUWt7AOfsqTJWZAk3LErEhK4AG9+7mcPbRSitESq4/AWQwM38SUWvl4437b86zLVCKTZQSFDriFKxuDYhRhx4jhywqojlnZ13bSNuH5DQytu24qCx0umGdUAJBUsPDcdgxqK5TCqzUNWyd/2/ad61y6KecRbPDIWOq20qZZhbw5gpwN+PixFaSvdTDaPLtu6W2rRTrK20/zfcGctpd01RMzRkY3KNcJhgLVuK1UszLO66+SSDUwG3mXIRIoVLPmOPAcq1c3PaRHhXVvWPTW2NrtjPWcOx9U6pBlk0sDa3UaJx4s0kSggGw4GuDN1Fq+Gfiftg5LLLt1Dxvpn1B37SwJrJ9HpfVTpzQyKdb1X084j3LSi+LarbZbOLcwgxriydS9vxW71j4Fuy13PtOOPSDrTqLqH/ePqJNgj6v1Gv3/VS6Db9fq49u3HT6BPDDGdJPZljsLjCupy/U3X8TdZufY0u45s+xKNlD2F2bqfqDdpH2jcfT/U9Pq4/wDnmn00+nQR4gDILg9lfVtzLnRqDq3WpOZO/wAzSodN5WVw6hZZSpF0OLKSOZrbtJB4/qYINfuMOySTN+V6k2/cNBLpmQMrZ4iFU9ndWXamo9hpUqth+mP+ko9U5d5+B/1w9CNdMX3D0I9R91SKBz+JDo98hSeKMjkA2me3tr+feZ5PBnNdp+h6e/isTP1Y1885hQCgFAfkN/q4PVGU+gnwi/DVtsp/PesXqDDuO76ZT4pNt2XTMhFhy83UKT7K+nyfJ49Rau1HW1l/Dltn5qOopo9R1pvOkjgGlh6Z0Og2rSwr4l8yOIZipbDELw41+9Zj+LsVDwVnyydtLjygrx+XGtyc184bEeK+Nu5sK47i1DBk8vOQpewhYX4FRe2XEfRhSUiQT5gTKohzlGzIRYj3r3FsL+zGtSIN43WVXkz2eRgJ+F2IFgCTh9DY1awDN3YNk8wNITcsLg2vexvja3bhWYZUdT5ZYRgOmfFm5hsosMtsRx4rVSZmSMwzIzMHW7EILG/C1+RNxyxqrGpYLZzIrlUVSTZlOI7bHNwGP3qRLkpZYQJVLqzF1ysLnwDhbDG2HLCiqyOSyNcJHgV4h14YHNxHO37uNKyKGhZEVySM5J8dwVblY5sCf+VjUshkhohmLjyy2RhYu2IuvvWxxAw54VpcWBrtLKXjiwCsbtYKDiLg2AGI4/dwpFxINUyR5FlJkWU5kF1sp4EADD9dShltkkhEBZVU5mULexJNiL5vb96tw8SpkZRGxHmsz3sdOL2A93lj7eVKyWCQqNnW6qykFVHBrLfw5ez+7U4adpKmtwVYNldRg0jAXDX4gHD68akNMGCukpUOys7X8RwFrHE3xHD72FVfxCkvIZVIYp5eTCwJxUW4EY/VhWsCosFZhHPmBJuC1gTY37MPqxrLTIyc6LGpyh/LUgOMBiBzPP8A5WNaho0WWRVDHhJwIxvYn67fZUbRlSAwvdXBWMkLHa2Zcndy/wCTWbUUtHL5qSSmTIg8K2AIY5gcOX66qDWwOwjWMjMjSnxAk2vY44/9Kib2ktJLOfCxzMqnPe9wMMcMbezClWO8gEP5hcAoBZmIU3NzYYc/+TSk9hVTARgSAY5Si+FiRYm3um+Fz341qG0RwRm8vPcglRc3JAUXvY3xJ9uFH2lRqpVcDcoQO27XHYOX/JwqKyhCfMQyt5sYupylLC9+4Dw/SMauPeWSrG+ZXsoUgqRa4HLj/wBKmJG5J8DMIw2ViMwIJVuNvb+qpchsJlmAzJGS7Dwq9rKfZl/6NanayK0rER5ciyIA8bXNsvHlfl9eNZcPDE0VQEsLoISFvK5ub4c744d+FEmQXLSHDEG4mN7kgi9rcvZhVgMjzSyLZhGj4En96x4cvqxqSGWD5lNwBlYAEC4YC2LX/wClVSkprlEbghbAqboC3NjiOdvbhSGmRVwOnjOVMrSDwgjC+HhFgAv/AEaiTToMSwkQkiR7FsGa1gGzcuX66kiDNSFFojmSxDKbgr4Tjjj/AO1RXVEUJBCszSHEAhXxvYFTyx+rCtJVoUqtro5PvsDE1hZjZuFsL+zGlyaJbUkshPu2Pi80G1hwt72HPnjUqEihJVvLJYyWwc3wuxHtt7cKzDbCUEnwkLkzSEXkAOLZVvhb/o0abqVGjSeEL7ojax4ZAWNseR+jGtJshVc6xlrebcAl2OFuyzc/+VUaRXBWysVd39+4VlBL4W5DHC/srUkSggA2utlQHC2Kk8j4fty1NtCUgszMZCwkQxrYuBaxt23w588aVaLsM5MpEqtiHPhKg4C/O+Nv+VhWeGWCj5T5RCmMlbhiTdhe91tj9C4VWpNJ7y+ZCIyuKk2Y3GLHw2HIfRjThkRtLEZHZSweK4zkAZ799+HD71adtDKqdJqNRDoZCk2pjhz2srGz2OA444k+yuNtJxJqC+mi3LW5NJt+zy6qeZssbsvkx5jxvK1goFsctW2yaQYfed6g6PfXKZeotwGt0ebydVselJi0sR4HNIPFJ31rhbVRdfuPNNNoOn9lgg2zbNOuhTSDKNPElmK2wYuOINbVqVMDF1zdRNqdDHpdRq9fqk0ugU3GslmWMkBb2QyEWNbucKS7Thff9+6un0urEkadR9MzyRz6Hfek9xhh3/SQxMCqz6aRgJBYWbLe9dLOzL4rVPba6nNZbb/5natX6j7v1RHvu07NpY+q9ncxs+27fK+y9Z7aIwDjBq8nmvcX8N71wXaq66UqrdhcirKVuP8A4HY/T3cd26U23d9t6ETT+o8EeofW7/07u0B2vrfTPKfH5ssoCagclx9lcekuuy7WrPi76Xf+JyZsXNN0/gc063obpjrfb9s6l1W2anpPqkoHl3jSEbbuOmtcKsrQ2Eki9hwNfSu09uYk3R71RnWdztcKqO4wbHtEcuk3fW6CTdOptvjGl1HVk0aJuGohtbPK62vfhhVWXYq4vCdpOJxGw8oJSNBHpNJ5uncIwzSFWHLHu7K5UjM1K5PKjY6XUPL4vHpn8KxuMcozcjyNXgnAzMnYt7j1ehj2fc0MUbbVrYZZgeCLKcpGbjfGsX2xBu1qsn1b/pj/AFET00+ZB8cnw6trxFofVbp7Q9W7Pofcjml2jWCJiiniyprzcjlX411lpfT1lz318T2vJ8ziyUfuxryJ9UUAoBQH8/z+or9WoPVr5wHwv+jkevM23+hXS02qlgU3jh1m7aqWZyRzYDSAGvYdGZPFrLT4/O74yWfJjQaqTXbh1Xuc34uo1G8az8xKuByxkIMwF7YHgbV+sW3u5tveeTahHdLkZ5Ije2Gci9ha/htfs5XrdrcztIkjplEaXZzmjazA3FsxN72+n/JWW2i3KWauuIRzkLYvlPvLbKLk2+21bSWBlIxTO7F1Vo40P4fEHE5j9B+rvrjUqpqTrXyqq3jwiNrAA4kWuP8AJet7SNEjxLIEUge/Ep5nvvbEW52o1SggrmN3UjDLaSQ4NhxHbjmwwrbW8ziaKchVYY2UMqhiCMwGA/VyvWGjSJHmKGaAg3u0lzc44+wfXfuqt0klEIyrKGjjfJJ/FYfdtgSb2wPfan8C7TaOSzeY0RBnGWIcTlvm/t+mmFSQWZ48uVgDIQF5gIeFha/byvS1tVEG5znMXiGVvfiNgGA5+3DnatN1DZkAI2zEFm7bXYDj+upG0tNhtYSKue92xaRj7tsPCRzFuVaUkYEiXkeK8dgcpcYhjjccrn21ApLRIqeIKzWHiB45rW52w9tqWgoJVCkMS8hBs/Hib2JqSOEvZRGh8vMV+9cWUDst7e+qEiZSQWjH8WwKqbkEHG9vooqk2FVCo5ckGSYeJSDew7qzbE1K1AKsGcQN5chA8s8jywrUVIVAiZo3VcoWxkYE3zWrMw6osUHlZi4tmlja7n7tuAv/AGFb4aBsO93K5Mg4XHBiMbD6qy5EGrvaMMV8x4gMy/uG+F+wey9IUBWl/NSRRdCjMPxBwtfHHuuKs1K0UAzMSwzNbwADAnjc9opDIwrGM5/J8xZRhfgOVu41VCEIMUBjWNBzZkIJAHaTR0oILqvmCUOhQj3WB4jjespSJLiwN4yW8wfiyG5YkD3fZW7WvaRlSzErmBDH+HcHALyBHCs8TK0WaJpCA6gDNcNexub3JrTxFpmiYs6vi114E58L8KzwiS4jvESIy1iQxGBvfhfurVqmoZASxRPMYR5SyAjBMO69Eo9oYjc8fC6m4KEYHHjWBgQzXSQGMyZFF1Fico535+yq8N4Jw8suQR5gBhT3S3AcTwrWCBKAM0cZvGSDl5ZivIA/prLtckIKouBUrJKDeLj4gose8VYC7BkDGPO13uMy4gql7kXrLcuoQWPTl2DqyKjHJjiMLcBfjW2kVoIhLlma7YjIQMvEWvfnSGRUIIcFMyCXN/1fMDEc8OdQpUIiDJ5fiYktLcnLYdvZhwpwogsGCDyy7N4lzDKOJN/81OGSoysWIsbSSHLLfHNha96zdWpVgSc97sSpjwVr28Ga4A7q1FAT+KiJ22JjVRbK1iLi/wCq9ZhmYkgMuYlRaI2LOBbx3Fz7TRWyVoqozWfO0KNcMtrk2v227edLZ8BFQqFjJ5kYedfCyqbEqQLEfsrStboC0ds/lN4RcZgvugX7BfHtteolJWiVuMwCCSKPMZJOJzWt/bhWlUkmUksQsskio+oF9PAt2ZjxGQKMxv7Ld9ZI0dXB031Vu+mi3DShOnttiHlmbUFZNcxsbhIlJCt33o8u5pPBDiSZ3jaejth2+HRvDFJu+uZy66nXgzTBnNjhzFxcCrZYo3mbrm2cgywzSwy6eTSzwFredIgtZFHFBhbvrniUYPB+o+qOnukNv1G89Vb0uybYkkem25Y42l1GtlkwSKKFQWeRu4V1s7UWWKbnBuyx3UVTw3ffV3RbDo9Jr+ouit22vYPE+l1GoGmg18gU3VV0xfzWvxsFrjzOYcKlppGllNuhxlu0fUfV3U2r9RunelIvVfat60cCdLene8yvt2p6bRDlk1LaJsplSQ43PPCulmrMvv47VxpqidOHe4Oe261LhdGtu8pHsG07ju2l33V+n289T9c7ZGU2TRwwR7Fs+k1S4LbJJZlVubceyjyrXdxcLdyw2IzxNKJhM5S0/pzqepNg2SP1d1Om6s9R9Apn3jqPTD8nrID5maOGOaDKW8tfDmxvXaWld9q9Wt+/A43mQ/hojzTfN/2HpbRDfuq940PS226FFjGs17xK7hVtGDNg7sByxJrs5mZbbbxXNW95hZbucKrPAto9QeputNfA3Qfp1uO+9NRyxncOut0c7doJtKffl00UlpHI+7hautZqrs1rgtbW908DluylaviZvP1TvWn3rqrQ9F9ZaH1V6nhdJ4uidTqI4E2vbwMrRrPp8ylzbAMRW/VfFcrLlddu3e0zdlpxKhbxofWXpBpYNn6og1npd1BO0cb7ZvETJp5PFiYdWt4nB5eK9ZyuY2Tw3fC+3/M08hxKquw5NmaGRtM8sg1SooyOp8Lx8nZhxHZau80de1wdFvka6np7dtP5eYalGMMzG+doyJA1r8Bapek1vKnDOT/lr+pMno388r4J938z8unrPoH6U3wRkWYbpoZIYb9zTJHevzDr3J/q23dh6jkOZNrXaf0ua/Oj0YoBQCgP5dXz8d+1fon86nrH1C1fnPt0X5HVa9rlidBrNVrFlVb8lUkgCvUdPan6fMtzNidT5nMMpZlrt2nHepm2zT7q+47fqll6Q67VNy6M3aBc+lmMyZniMqXs4w41+w332K6V8t1UeNdlO1HUTaQx+UBmjAN5o8LFiL442PHtB7q1dYxJl5dwXisZF/hi/M+G1iO7gQPbS22A5KqrOyKwAY+7GRY5feYc7fResxsDLMIvIyJIysrFXjtdR90c7fb9FW3AkVNBkVEQXGexU9h94i5t2cDaq7IUIJLEGJomLF2kU8BzVuBOGIBvyBHfViKljYXyIXNpCrxWuLXzhhhbG3LiCfZUhzJKs2ijhDSlhc4ZHJwPaDw7edqK1LEjtY8vKQqsFIBVlFxmHDG/s7PprTyw3UBby2jcrlAzW90i+bC1/svWbbZK5NVdiCubzPNJyG1lDDAEnhf6R7K3wiKGl87XkX8Rm/FBwB5jkOzmB7aXGbVBmYsnmeZITfFGta/G4vjh7L1IqU6lhGpjYXSRuCjFRe3f3dv0VrvEwyjNlMkpPmAgLIpwVQSfEL2v9NqhUy0YZEQmW/l3ETEe8QOI529gI76rVCQXTzHlJRgXjxlAFrgtf2H6CfZUdAYhHAlES2BBu3bdTgb8fptUdlBLJESyGNvLx42JKhApGNuP2W76vAHiarkCk+IWIKyWxtjw4/Zeqrdoioced4swedj4AP3QB9H237qsSJijNB41JRLZSCj8b+I+HG322olUNwiqxylGBBYRffAsR4LiwF7j2XrMAuqlmUFLun8UAhVIZuJ5X+m/dRJzUrdDJQVEiribMGB4Xykg424d9qRIk38oxsuUjzgl8tjje1z/AGFqsEM41zXKWaFDmANiQcfr+s1VE0ILkKAwBcEkRjAm4GB7PptURrtNGBLKUJCn3B+7Zjx5/Z9NXhgjBCtGjBeHvW4g5ewX+y9FYkhJVfMd3OQGD7p+8bN9VvbjRWtsrdDXy3jsBYSEAmIXNhzN/wBtq1GwTQgRj8Qnwu7XvcnhbkP1XrKI2/Aq3mPkyXa+Fza4NziOVvtpDKWJeN75cptZjfCxFze/P22qqyERslHYFiLr5lwxFzZb8h3+z6anC2VshbZSiDzo8t4ifetbHhz9l/ZS5IjqEHm2VYxiPvDj3E4W+m1PYGViEbFiDZob5uWVv0kfRbvpEOghlRn8GVhIZGwcjFe+wvb6L1AqFSHLFVAmIXxMbEAdg4W+u9WMS2tECMOy3ckWIBsQV779nttRVBqLx5Ec5m++ALmxFybj9V6QZLIEUMIwJG8QMmHPs5fbfuo0mhJVsiiIEYMLzgj3gAeN7fbaq7YQZnEwcSFWyOTaNDe1hbsF8L9476zwbiy0FUeVIiyeZ5nvKQADieFv1GqrYoHiWIVnVywJFhGeIWwBxty9tqjtcgoq5HPllSWPiY8Td7eEWv8AZ9NEoLiUyM5jjc/l1veIcSTlvcHGwv2XqqyewyoxIYSC6ByxV8GB4+IDG+H2ipU01U6gr9wsb2GY/uHE3xAvw5ge2rwtEZm+chs3jQGxmAucuHC1/qF6NERdxHCuZmVLqCs1wFCXIuxJsPr+inDAUQdpi1esnafT9O7NLv2v0xytlBTToWXiZGtmwxutYT2W1ZZ37TyLa+ity1Z1L73vCZhkEWz6e0drtmLMxOBHDnXJZlXS02iO9HlWj2zaNujl0+j2sxmEqqmweVwcDZySQF4m1assSwMVZePTfmNI405aTVZ2YTMTkmjiOCC9rHkTU4SzB667/wBZ9cybxrdu9StdqvRnpSGW2xbrtenOvbWQY3aTWqCdPhyKH218vMzsxtrM+C3ZFffsOxbl28Pw/EzsA2WTrTbPzPw/6fftZrtLL/qfq7q90kG1QPE95C0bZjqM+IK5RWHlvMt/ozOy6af+JtNWv48Nx3n1k3vctv2To/Q+qO1bZ1ZAdboxooen52i6m0O6lsqa7SwlSSqnxG4tatczzItt40mqYYzvSLp7Zb4XHfgeXbb6W9QbJusu6x9dRdX75LKs03UXUOhOr3GMycFVs+Rco5Ba7Fujut/ml72qnDfmpqIhdh5hsPp8Nm6y3Hr7qPqbUdXde7zpvyOp3trabT6TQr41gghiuAL8TeuxlaVW5jvuc3NRPYYvzpUJUPMVWQRvHOjGERMupQO2ONw4ufeFc/vMPcetnUvqd1bD15u3R+u3QekHSXT8Mcu29evts256re1cYrp2jBVFHDxG96+RnavM9Z2v4LVtiZ7jtWZNnBOLezcZ6XfZOqJtbsmp2PffiB6c1IH/AINuXT6aOAOeMi6idkxxwsKizPUlQ77dzX+Y4eHarX3nHW69Mjceo9H6U7H1P1D6Rb7uKPrdn9Ht71h1e0bppYD4oY9RpmaSFR2V0r8lO/01c7HjwvBr/A5rMxK13NJrecp9PaL1Q2rQJ0v0J6P7F6ZarTuP5r1HqdSup0sxvYS6dQPNlPOzkV38hZ9tvDl2Kx+72b/ade52OrubOT9o9NY1G4z9c9Taj1T1W55RvMO6RxJt+nKnMraXTEfhgcBZq7lmkq+N8beM4exHE87coPOZNLCNOdJo4QdPpFVY3VswcWy+WwGIUCu0lBg7ZuaarWQNtUSJpnnaM6h7FRo9FGQZZJGOCpYHE8al1VGwltDhH4D/AFB0PrF8774G9T0/qPzfTHRnqP0tt2x6uMfhzrt+tE0kq2+6xS30V+VdWa23PzLuCttqj/M9byfIeXYpxdT+r9XgT7woBQCgP5xf9T16Ywbn8cfXe6HTk7sOnunNbsurVbkBpNesiN2qRxFe85Bpbc7Q3J4q6V4Hw9dm8GetzRzN8vj5NHpd66fCP0/1p6X/ABj6jqxOqNIs/UvS0Kwblsm07iRd4Tp0K6nSvG2BuQDWtL1Jm6N8DXFZuf8AgYzeX253xJxcer3xUfBx63/Bswi691W29UdDpMse39f6aW8BiuQFnWxMR4XJB9tez0HUelz7YT4btz/zPiZ/L82x1UrsPVLQ71t266XW6iDQmQ7aqujaSaLUJqQxsWgdWJsOeYGvsZWZbep3e/uOm01id0hn29nb/WwJFKrLGYpB5QkwViLYDtZTburl7yPebR6ZZZooV1cUhlJWBVYEakqM1ozYB7c8FPfUsTkiwI/LQCGTUNrNPFAZfJeQzLkWW+Xy7twfuIPtqprErqdQ2iSKSZTrYY5NEBJrQ7qogQjNmcA3UG3G5HdVjEKiLxaZZpdPE2rgZtXeTRQCWLNqEA99ACMwGbllorZYZmun0iwrOmv04ieQw+f58RV5CcuQFvvYcCPppwskpljHpl/MD89p4I9uA/Oo8yBoSfF+LdiUvfjcjuorY9hqTQaSF2SBdXpkknQSw6caiJnaMLYuoVhmS3MEeytKx4IK7wJRNMYNJJFvGjaLUuU07/mYSNQ175Ea9i3da/fU4HjvBDQwpFqJTr9OIdGcmqdtTEPIcgjLISxKnHnmFOBpTsMqG+06hdIkksmmbXaXzY4xM2kM8V/LNj5hGf3e8EeynA042hsyhg0epj0zw7rpmGpJGky6iFjqMua6R42a3sB76ispO8XOpkYtAYJdSdz0v5bSnyXmOqiEUUmHgcknK+NrENRZVJRVdU6s6SFXeGbWaYzaNPNk0x1EQaGIsfGQHwW33gbd1cjtj2ETLQxwP5CQ6/TTfzJc2jRZ4WacKuY+XZhmA/5tZVsvvHF7jKSLSZJJRu2mERcRtqPzUOQSBgCgN8H/ALpB9tFluZCa9pdtFCjTLJuGnJ0May6rNPErQqQSDIMxIGHG5HdVeW9uwcSNhBp2aFRr9PJNrELaXTLqIi0iAXzoAwzAXxIy1OG5wlt94lGKjTMkGo/P6NoJG8rTz/mYQrTEkFQb4thwt9NVYB4m3k6SGPViTW6ZV0IvuaHUwjyGOIMniJW9/wC9VdrU9mJJTLDTQGWDRjcdONRMhligE8RdoQPfAD4pbmCPZR5bVC8RITRSx6KVdx0kkWsbytE66mK0sgOKKwNmPdYe2sqyi7SyQYNHFHqmOv02Tbnya9m1MI8hiMFcljlPcc1Xgj2EbNjpoBN5H52FpVTz/L/MRB/JwOa2f3P71/oq+ndMETMoINLO2lkj1mmK7gxXRFdRCRqHTMSI8QG+gLVVrhdodyRS2lUTahtx0loGMWo1J1MIjhksAEdrmzdxB9tZdrSNNmx0qRTSwPrdOuqhUSzQGeIGOFmPjYZyQvfcjuq25bXeSVBZNNp5H06prdM82uQnb1WeK86BLlkswzgd2Wp6Tb78O0K6MSjLo0QzJvGmGmEvkvONRCIzMXA8ssT71/u2+mr6dOwKPaTHpoNO2shbXadJdCofWK2oiBhQqbF/Gco9pPsqqy5P+JJRrBp4PMjji1umm1GrUvp1GoiLSR4eJFzDMO8Eeypbl3eJW0dN5OiSOHUwbvpHhllMKTfmocjS3I8tWJsW/u2+mpwOKYFbNAmljTVedrtOF2//APyF54QYbgWMxLHL9OanB7vcZ4i6QQ+YmnGt0353UI00MHnxZnhGOcLnxW33rj2VeC7DaJ2mEcWjaPSNHuWm8nVOY9DKmohYTORikZBGYnmMPbVVroLrqmrxwRx6qcblpEXbnMe4E6mHLE54LI2Y5W7AQ3tqNY9g4zQ6SAsunfVacTOvmNpxNCJDGMc5UvfJ/ev9FVWOY2h3GCJE/wCVSDW6SQ64lNA66iEici9xGQwzEd2Wpwt4bSN7yrQaeNZ2fcNJFHo2EeqkOphCrMbeBmBsGPZY+2pwNI1xJs0OniSSfTNq9NC8EYl1GiaeLPHFmNnfxkqveSfZW1Y1j4GeOhWOCGQ6NRrNLqfz4LaHLqIrzDJe6DMM4HdlrMNwWYKGLSlJZRuWj8lZPKM35mHyhNnAyEg+93W+mpwuJRcCz6eJVmTUa7TJLolD66JtRCDDGQbPKC11B781Vp+1ElA6SATRQx6vTzSayMy6WBdRDmmjGU50Ae5UdoI9lTguk0rliVyaSWGCdtz0gjeXyYpRqYQjykkeWrA+Jh2AD204aSO4SxQJ+YiOv0cf5Lw7iTPCDBdRbP4jl+nNWna9hlFjDC0kenk12leWRDJFEJYhI0SHN5igPivff6KnpuYLKdTPJppI9NNHuejkh1bFNEw1MTCZ7WKobjM3cAPbU4XCgJpETRabLqJJNw0kSbcyruBOphXyGY3Cym5Ck9lie+jtjuI2dJue5dP7IT/Nt0gg1JAMOkEsck0gYXUhFYmzXwJP0VL2rcS2qTLQ6jW7q2nfbtJFp9HrADIdTOkbJjltYffuARawrK4t1A3B3lOn9mGeDqPcDvSeYXdA8aQRSLbwhUYXPtwNadlK1M8Z5L+c0yaqLT6dookRCYIRIkcYC42GU8bVuIZmS0Gs0sctlmhkdi7JpZ5EDNl/vqeVRWQzTKRarRu+c7iomynLGkkYy5se33TzNVJpwSS3naeXzfM1celgNmZRIlpCvZ4sPo41q5NILA6GXV6OePVwzTQ6yOZAj6eSSNo5EJ5o91NwOysXWvaXBHH2q9MenJtRJuHS3U2q9PtTIrHWabZ9YkWmlhOBB08haNWa9roARXVeiSrbNvcb9d7ankHTPQ3QfSjST7Ho4huMyj83v2rnGq3F+ZtNOzFbn921c2VprbH8KjteJLsx3YnlraqKQlZNXFNqYgMkSSp40K4C97Fu+ubhcQzFGUOt00+WCTcoEhhCZ4lkjDPmPA43uKK5siUEJLoGVNEk6PBEDnmaZfMQ5hZLk499VWtKDRr5+jTSRPrZoNVpi58rTkxywxgHHNmvbuAq220hmUcca304kk1m57nofUfqLZ4d3f8AH0cG4RnTDMMPKVkbIAOFq6d2im6Vdcp7f4HN6tMEdx6P9LOjuitdqd52zRy7pv2qiyz9TbjNJq9xOOISSS+RWJxCgVvI0WXl1WO91ZL893U2Hm8/5RJUh1KlpZSM2pVGKQtxVcwHDtNdhuNhxK6KnaNbuum0MwbctfDoYoW/BkkkjVZFGFru17HlhWL7ksTStbPZf0O+Fb10+ILc4pOgIdu6R6X11l1/WOvlCgo3OKMXLWvhwr4ev6h0unbm6X2VO7kcuzczZC7Tnf4+fla7P6O/Bl1r1PpfXfU7b1ZpdK029dX67URbZt+5FFzfkY1fxuH90KpJNeP1nVefqv6dq4bXuxfez7GTyuzKhurPlN8jL0p0mzfH38D++yqup6g3n1E212KjwaXSaLQavV5FvzPlXJri5jy63T8tuufzXNezsOfJ1LzNSlsR/Vcr89PvCgFAKA/A5/U0bf8AlPjO0erz+Hd+itrLw8Awg1mrQkEcxnr9C6Pu/oZi7V/iee5wvjtPyQen/wARfr98LHqFqevPhq9Yd99H+opZT+bn2vUsmj1tuWq0UmaCb2uhPfXzeZ2riodrT4HvN6h/Mm+LP42+hD6e+t3Ue3a2VY1XX9RbZpTpNXrgthaaJT5bFuLWWuXlmjWb2HFqc12OT1903w+eoeghgl6R6kCzSoCmmi1M2llsxscEYDDnX31yDPtXwX/4Hz3r7J+JFG6b+JbYywj3PcZoNI3kNIupWUZlxy/iXuKlum5nZVNuKYl9TTXbCH6t+JDbmV9RNqg0T+CU6fTmxPGxCi1+6i1PM7FtoT09NBI9TPXaNUfVxiXTPIrl5NDAVzjAHADHvotdzBKY9xt6fTyc4en/AFpvu5s/+KtXEy68r+ceWFU823AMQMR3VHzDmEd/YR6fITpgj3v9Pp/QzXx6R+pNx2dG062jLymNo1GBsRa3srD5lzCmPgY+nyMGe3nRux/AvMkMm97t0ugjIYCXXuoDccxW9r3PGsPmHMe3wOT6bTnsPsnR3yz5vMl3LeOjS+rFtYsm6S2kzYeIE41xvmXM3tfgbt02nOStt9OflOExPqN26GV47or/AM6nBFxZlBzcO6uG7mfM5xfgcn0+n7DyTT+mPyhWj06fzToLytM2fSr/ADqfLFIODL4sDXEuY8ySo34D6fTSdXJ6Y/KJ1iSGTd+g5Rqzecje5wJSv74D4276v3Lmm9+A9DS4ULH05+UYswkbeugxOF8nMd7mzFLWye9WnzPmczXwL9NpuwtD6afKLjaNtPunQMZ0dxCF3qUCLmbeLA+yi5jzPZPgRabTEf7sPlFIkkbbn0CItU3mSxHepckkhxzEZrE0+5807fAq0+m7C/8Au5+UcufNvXQRaUWlY73KXZB90+K5UdlLuZ8zbq3XsH02m7Ch9NPlG6ZFf+cdBQJD/DkG+SrkDDgpD3AI7Ky+Z8zmZdOwfTabsIX0w+US0KyJunQTadnzgjepcpl45rZ/e76v3Lme9+AWm03YaN6afKQmkLPvPQjSy4SH+eTZpARbK/jxHcaPmXM5xdewn02lwoV/3bfKN07ib+b9BwyIpUS/zua6IMCoOfAd1PuXM1WX4BabS4UJj9LflGKsca7h0E0TfiQp/OpSLn7w8f20XMOadvgPp9N2FJfS/wCUUBK0u59BqJsNSx3uYeYDh4/H4vpq3cy5m8W/AfT6Vbi/+7P5Runkjc7v0HFOEMMMh3ybOIyMUBL8O6o+Y8zTxc9wWm0uFCkfpd8ouFNPGm6dCJHoSX0ifzubLEb4soz4HvqLmPM8JdOwfT6XCho3pd8o8eY77n0FaRg0997lIkY4gsM/iPtrX3Hmfb4F+m03YWHpp8pGI5xvHQeaQNGG/nkxJVuKg57gd3Cq+Y80da+BPptL2FF9MvlHiOKIbt0Gsenu8A/ncwMQ5lLP4fop9y5p207A9PpewofTP5RNmY7r0EsU5WSUHe5skjD3XYZ8T31l8x5m9/gPptN2F5fTj5RhZtXNvfQgkCCJtQd8nuYzjlPjxFPufM978B9NpewhPTD5SEeo0+oTeehRPpUI0rDfJzkRsSEs9gD2CquZ80mjcrsH02l7Ch9MflESB4zu3QTqWEzxfzybLnBzZ7Z7XvzrK5lzOYl+A+l0q3HVH03+UkyTlt46DZNyuNSDvcpM1xY5rv2dtbfM+avbdXsH02l7DL/dp8o6JYo/5z0IrwrliI3ybOidikPcCn3PmkzN3gHp9L2FJfTT5RLhIpN26AyIweKMb1LZW/eAVsD31l8x5m6S/AfTabsJk9OPlGIJFl3voJE1q21CNvc1pk/veLxfTVu5pzNbXXsxKtLpuwkemHyjlZHG7dCeYiZIZRvk5YREWyqc/u91X7nzTGbvAn02l7CIPTT5RkCRDT7x0EkOnB8lBvcuWPGxZRnwPeKi5jzPe6dg+m0vYUb0t+UQFfSNuvQSx6lw0sP88mtLJxBbx4t7ay+Zcy3vwL9PpsaHVf7tflKM5A3boN5reWXO9zF8owy3L3t3VyLmfNZxfgZ+m0vYdMfS35RYMQ/mnQkTIxOnjG+TDIRxyAP4foqfc+aJ4vwL9PpuwrL6Y/KIbztLLu/QWWVxLqNP/O5vE62sxGfjWXzLmcRXwL9NplWhqPTH5R4kllO8dCmbUjJM7b5MTIvHIxL4juq28z5nNG/An02l7DT/AHZfKSRlI3boNSi2itvcv4a8LJ4/CPZT7nzTfd4B6bS9hmvpn8o1ANMu6dBAM3mKg3qU+Mn3vf499FzLmeFfAj02l7CJvTH5R0nnPqd16EkeQBNTId7mvIOSv4/F7DR8x5o3PxeBfptKtxkvpl8ofS6iGZd56Dh1MClNKx3yfMiHiq+PAd1Rcy5msG/Av02mwhEr6Z/KHJW27dBWLlo0/ncwVZObAZ7Bu+ouZczWDu8AtPpuwunpr8ouIzum89Bt+YGTVsd7mbzL4eLM2NX7lzPe69gem00bAnpr8otAkse89BkRDyUm/nkxZQ33Ac/DuouaczxTu3YD6bTbINP92HyjnEMA3ToO+kbzNKi71Kpie1sy2fD6Kq1/NO3wJ6GmnYQfTX5R4eZzu/QJaVgdVfepSJH5GQZrMfbU+58z3vwL9Npi6+nfyjhN+bXdvT99SlgNSd4d3HKwJY29lX7pzScX4EWl00bDqz0n8p6OYwnqnoVZkP8AC/nclwT/AM7vqrmnNN78C/S6XsJ/wb8qKO6nqXocWN2vvcvG/E+Ki5pzRbX4EWl0vYXHRfypPLKjqXoZkz3H/jkp8XG18/Dup9z5pvfgT6TSrcVHRnyoWKKOpehi8QZ40G+S3CnEkePhU+580bxfgX6XTbkap0Z8qUFJk6i6FDZCiyjepb+X2e9wra5nzX/i8A9Lpewx/wADfKhey/4k6HkGnv4P55MQpbG5GfnWFzPmj2vwH02l7CD0d8p95A/+Juhi8S5Rbe5SFQ8rZqfdOaPa/AfS6bcikfQnynVUNH1B0MFTFT/O5eeAIu9PuPNN93gPptM9xt/gr5UjJ5f+JOhrAnH+dyZr2sRcNR8y5o6S/An02l7Cf8GfKiGRB1H0KohAUKu9yWW3Dg321VzXmrwd3gaWl0y3HTy9DfKb8x3l6g6E86dbsw3qUEheeDYVFzTmqcpvwJ9Jpew7Bu/SPyrIY5E0nVHRQkkFii71MzEd3irS5nzScX4E+m00bD1u652v5e2l0+o03TfVnStowfwod1lblhcE412LOZcx3vwMvTafsPnR60dTelm26KfTenPU+3skKn8qkEvmgBTgQXGNjXNZzPmW9+Bw3afTnzV37rf4j9w3wRdPbvrm0QLNpZY4YVVhfLcFlNxXOtVzO6traHoaZYwdPJ0v8Vm86bUncOpNdFocROBrY4lsfEcIwO2uazI5lfR3OCeppU4g8d13oR6jfl4926j6qbUxRZJYZn1M+sZSpwNi1sPZXWv5HqGpvup4m/rstOiPbPpr5p/xL/Cl0ZpelPS/bNm1e76WLy9N1XuyS6owsBlDLCrAYd9fG5joLctbzuafO42fO71j+MD4pPjD6v0u+fEv617r6lnQyBtp6blkGl2XRNm8Jg0GmCQ3HAMylu+vm8vXxnZz2kj74fI/2iTVfMK+CSKcK82m6h3HVPbhbT9N68jDtFxjXqep27eXJb2j5nLYeopuP6X9flp6cUAoBQH4Y/6oXZ00nxTelW5GHO+79ATtCL5Q35feDGfqL4V77ou74Mxd3+J8DnXzWn4fevlP82mfxKAzEgm44/aa6vMrfiOfTNwcoehTRru8LsSiIbvKMHueAXtNdvkKi6dhwa/A+pPSscG7aTTx6rULtuqjy+SQrZ3UC+VivEn7K/RMlp40PPZja7TybXDRauGdZVaORHy+c9zHmAtYW49tzXLdDmDjTaODuoYpzDOsE7SaSKQS6lWaxIAsoUdpr5+YnvOzbBxqsOonjkQ+aEY+ZFBKQAjBuAHAg8666tbNykZQJNM76N5Y9OwcyZQwZQ3AopPA8+6opdDWwajakJkdYvPMKm4PiDNexuBzx41u4JnQ6nQ6HVLoSdPHBq9OcqrIngJGIzEfZWG8N4UIflkm8tptvgAElowqKxy3xJAxGPA8qSycKWBu2g2SbV+R/I1KRBm0gKqBmYWIJ9uNW6+WIodGdh2qTz5F0sYkjQh4PKASTL94Go02ipotpdo0M02oU7fBphPGpWcRrYAc2I4EmrbIuoi2m2baixRdPpw6E+bJNAAzN257YdwqWzg2JoVTa9qggkc6WCUa0nytB5KlvCfezW4HlSY24h4lJNo2XV6VNPPtsaPHKHhlSMBgvYtRtNQIhncZNo2hVHnbHBptXo7P5jxpmmvhe44VyN7cI95kyk2fZdRqDq9Nt2neWUiPK8QKMD73h4Bu+stS53mohVMTsmhgGp1CbOjSSG0oWJSgVcQcvbhxFW1NVFDqINq2B4F1Uu2QMY7FWVA0isfuN+o1baVI05OmfpzSQtLrJtDAdFYma6IT48MrKeP0VmHjsLKih1kmxbI+nGoh02njGUITkC8eGQchWolSROsHQT7LowYTPtsU4aPytPEERmPi97Ds5Vl3OKmkbS9O6IwRs206d3i8wO84UYW95jytypVoynU20+x6DUaaOSWDTAQKFaNFXO6j7+ONrcqts3IriTKXpzbtORKNoSWRprqwQFbLiMoPLCjteITqYybRtR1mpn0W26bzbXeCSPw2PJDXG3WViV9p1CaDbnnWTWbRAFCXmVEUkkC2UEdmFwa3xuahKg/lu0zqzjaY0mbLmd0WwVexedVTiiNIwOybTAIHXQQyZ5CBA6KFViPdx5HnWVJIGl2XRSaN0Ojg07BmOSOIeIc8hPGw51bU2t0FomQ+07OIC40enyxAp5SwBGxwFr+8e+stlmpZ9q23TRx6Q6bTbhIl2kn8lVKX4K1uJqtuN5lI0Gy7FqtTBqYNoT8zChR4gigSNzvftHKtO6WoxLVHUybd09GRrP5VptN5g8uWARKWW2GHab1eJKuBIeB0o2XbFPlafa4HL3aZnhVyl8BluOHsqOcCyZybTt2jSLT/AMpSODMS0gjW2aTA2PK1ZlruGJ1h2TY8qp/KYEl1gKl4oxlcDAuL8MONbuS9rIdInT22aTJHr9v07pJJ/q9o1awXAEcwakO3EvFJtqth2lGieDSQ5nYOpUAyGzA49lLk05TCMZNk2955I5NtRtQztLJPHGpy4CwJ5HtrCd0uQsCZ9g0UUi6hds0io2R3JVfMLD7q243HGrcmqoJ0OsHTu3yB9QINO41BJiUIllLC+Q/3hyNb4XMmaJnTpsu06SQZtoiMBXK0zICSWHBu/sqTDg3ijotLtGl09zpdt0sqM5L54wJENrE41iy9qiFDr4tBtiafUSz7OjMr20uSNb4YknkSeRraucE4TOfZ9mfTxMm0Ri9xLKVUvc4nDllqXfLUSdHNs23RedFBoYZxJEl55EUNa/v27RwrOY2sGVdp1s+ybXJHDJJooYkRQH0whGDgYFgO3jWqkMZNl26R4YhHp4RNZhKsK+AKMSykYd9Lm3tKjeTR7M84dNugmGlsHmEYTzFHHKKt2bUxBWHZdkikn1kWwx6vRamQNPFlXLGv3Wxxw51FRzsNNbNptLs2wxJJok0OnPmm8QjiVbluN+yw4VW0iTtMn2Dbpk8hNBp5dJ7jTCIeb4cfExxv31OGe4J1B23bV1CwTbXDEhUeQJY1yEAWANuOao76wDWfYNmlQ6LR7VCkkJD5PLXKD+6T+itPsExVmGm2LY4p/wAvrtDC+qhjykrGgKqThZwOA51hWqa4luwJbY9Euolj0mi05yoySZVFhccTfiK3FydGVQY6bZdueWErti+XHaN2ESiOUWOJP7azZiLqIDZts0c6INs0kayKyxtlGazHBnA7DUXEqEmUdVJ0tt8oCSaeKVvDnMaKPAP3QPuk8RXJwvCSK5SdDLtO0fltXBLtMcBLBo3WIcR4SRbiLca43diipQyYtu0sCGAbVpZNPlGeZUW9xiAA3GktLsFPabttmy+TFE20RySSf/MukYtkOIsDwFad0oRJaXZtnkkUjRJpASphZUV2UcMW76y3LIpR0sei0on04h0ELpFI5YZFLm3HAcQONRNtmmoPKNv0unj1ManUhhMQYZvKzpkOJKgcO81zW41Zh4YHLvT/AOFJHqX3R0h28hcsaZ0nLXsg7CK7WW3OOBwM5S23WAM7SxLfVI0Lxm3hDY4dprvW30OO5UPGerz+R286ZGWLbNUrBIo1JdJVw4HkTXWzqW9hrKqz5f8ArLNJI+qhmXyTpr+XHlucTiGY8SeNeD5w+KU9h9/SLacH9ErG+86Zil8jLnU8eOFq+Ny21cR3c9tI/WF8hTaTrvmF/ClHJAA22L1LrklXxH8PZJYbHuHmV6Hq1xobV/xf4HzuU1z33H9HKvzE9MKAUAoD8XH9Uzs6S+sXwy7pIMqy9E9TwI494vDvGkmtf2PhXuuiXXMXYj4XO1S19p+Df1GjI3PUi12LE9rcfsrj5mqtGtLgjzX0Qljj3ZCwOQEWc/ca983eMK7HI4V0mdaqH1Q6KdGg06yyvHNcNo1Y3D58LsR7pPLsr9G08Ndp5zMUM8u1cqRwSR6pRFIhc6WZfEHIwsTwsRXK3SWcSOD99GrlmleJVhAGa5UeUYBiwJ/tavn3y3Q7Vrg4tkdZHMLSrJpgzPpyzlXy29y/IdldS45KnTyQmYTytEqxqVCKDmyxgYqFXnje9ZdtDklF1mOodERhKqDKdPHfKFtcEkY41VUwaGVyjIkpGqQ4MUGXL/dvxIFaZCzuJ/FEDAJsfLwDPb3seV6XPcXAajVQ6gLpNKpOndbC/vlgOwcTS66aBLayp00jafTlpc76a3nSj3VQcBYcV7aOxx3FtaIMMk4Zo1XOhPl6sOUhY5brh+io8CTvNoU1aJIWI1SNHeWKXKERzgzKO2rWCNoygikVwFJY6cqsYfxJkOOU2opbgNyHGkVG1Ph0khJzTEkhFGFgvYavwwUrmWWWGZ824mMZXksRZStgD2WHZUd09rLg6mySjRvql2+QzS7gt5JMpyhrWKhW4G3OiphtJiqlZNbqG0bBlJ1BARwL+YFHFjyqcVKk4Kmub8CLUF/JhSK2nIAylgwBzgYi/KrexhQ6ZoTDG7qvmtJlbyVJfwnmb8L3ok0aTOskk0jQK4TO6mzaVj7rgYW9vC1HEGYZ0MayCBjOfy+mnsFlAyOkzG/gv2cDUUxXAtDcS5nPmpHI0GWO2e6k2uGx41W9u0kGPljTGHUMVD+957eJTJe4PcD9VZS4WWTZHbUeZqjIzzRnMur4IpI4qBh3Y1cagsdSyuJlI/JhSNVCwtJdxbEdlVOCJGiZY3h8676WA2YobEXFxftFaULuEnRyO+rkDxt5LaeQGMNc5Uvha3C/Ks3N3YFN5oY/MXUPKI0mvlWQHLIwPCw+92UdqVWRNmb6fUNOkq3gbhJGXu3kniUXl31XbOGwsnUOmqaCNJAJVZiV1LFfOUJ7tqkuAiiDJE2plQTfmheQSC7Br2zLbnWrZiXtEkBNPpHhMeq/JM9itryFmsfF3X51hwto4mykY07TSNJGUSWw/PMl0GbDw25GtxUjwNPzeoggTRaNzLptHJnLmxJW1ve4/RUV+xYFKzaoB9EpjvCXzah1F1J5Kb8xzrNzSaKliXmRxM8ckgE07sHhJwygXAUjDKarthkkqg/L/l1kTPDEWLSLit/+Vxwpbak6lipOrMGVI4F8wWAM9szhHNybLxtWr2lREllT+YhIZ2CTx2YR+6ZIeSvbmeINZaajeE0ZMizL5aZWk1BBlfN4shN8gHK9GpwxLJW35GZ41mTTSTC1ypv5ROAW+BPI0VHiR1OoJEQSVlYRMLak2LM3IHLwsO6ibxCW4lGLGWOQqzP4tJJwyhRz9taT2FLQ6iODzpJc0ksyj8q17L32HIipbdRkiTKG51P5tpA8M6ZZFsTnJPI8+GNRLaSFgUWAQGRMmeaViTozfzFB90g/u9lRQl2lKLBqUkdopmRSl1s+d1lviGv2VHa53I1xGusE6yK0g8sqFjvGw8avxzdpqt1IkalEyJoZ4FkyNfzLZXyg+6zDka1gzMGAkji86OLW2L+Gfb8p4HEDNz7qyoNOtRHDpW0jQ6lH0ZhIeKFrrJLlOBJHDjSJVaEbqbNr9VqJfxRbSSKEUkZVAHC5XjVWZNNhOFQIZ55tVqIhHlmWMrpWawBC8bE8LjhVme806IyZVkPkoQxisTmYoym1zfvNHOwhrpyiy6iLUxnT+cQPzBGU9uA7KiglzlGDiV9Q6aSCxTxRZVxaTgbnsHG1ZbftKu0sxkEjZZUK6khZolY5I5ebKOw1qXPeJKzQGd/Ai5YUbwhwSX4Fz28OBqNNsGWnlUQeRFJaJCG/KqCHLcCWviAKiawNNM6n+G8kJ8MJB8gZSUQnkWOIJqsy6hJPBF4wJ4fw5pstxIScMOzvqoNFxqlh08cESmLUZyJ1c348r817KvGlgFbJ0kemlSGfStmZpSxgQCzAfe9h7Kzw0DamS0URMTxKpkWMAnURkxsvI5iftoraQXBnfNjg1cbxhZs1mPmQhgY2jGKgHmK3kq4xc0zlbp2J5pTGBlE342VSMiuDa4HA+yu3lW1OG6hzHpkjmhlWdVfwBVdI8XVeJS33q+gsJZwXHGvWbRto9VHpFfSZAPzJ1JLlQ3cPvHnaupqH8L2HNlHzN9bTL5piYKIwSWAOYm/Asa8BzluT7+jOG+hYM28ac5RfOtufE9tfL5bbN9Ds6huD9ev9PDts2u+Yx6II4zPtnSHWGrbw2sEh0sP/APMr7XWNyWlsXb/gdLky/q3H9Dmvzc9IKAUAoD8e/wDVPbfOdd8Ku66aO8o23q3TPLYYKz6KWxJ4e7Xteim/VvS8v+J8fnEcK7z8AHqXGy7lO2ZTG7GxU8WBPM8q5ObTxGNJgeQejchj3nSsGVLEZy2IAJ7uPDhU5L85NYk7T6q9B6fyoo4J9WNNDqYzIJSMwa/AAn3TX6RkUPN5j2o8u3SEBJtFJE86MmbSyICoFjgDysDzrnuiqONbzibqO4WXTvE0Uqj8XRBhlcjEEOO3srp5laHPY5RxLMTGZw8SI0jA6uTLmAa3AEchzrqs5jtRTwmNc0H/AFikGxkYHjfs7q4u40mdwzeCVobEDIkjhRHdjjfDG451yRiZ2GudmSaKbM0uCOBYIoPBg3PvpLiAmU8mNSscQMMmmJsb8AMWKnsPfQYlYllMkrw5pWkkPlyhVurW94W4moitKDxzfOrOkem5NZJvnUen26cxrfQs4OpDgY+CO+Jrq6jW5GT89yRy25V92COMNx+IvoDSJBDtOk1u7Rxr41aIRKGOD4ta9xwr42b1Rpbflm47NvL79sHiOo+JPbAVfRdDSySRsRAZtYQmQ8Myre5rp39WWfy2eLOVcve1nQyfEzrSrqnRcQd1K+a2qc2Um+Atxri/Vt3kr3l+2reaH4oN3Ll26M0z2jEcd53wt944Y0fV17/kXiPtq3nTQfEtroM/+xULBzm/+aksDzvYfVRdW3eReJXy5bzaP4n90jmMy9GQXYFb/mXviPZVXV1+yz3j7dbvOmT4ld0iQrB0fCt8TI+odmvfttWH1Zd5PeX7ctrNV+JvdlhaJejdKC+LyGdyWa1gThyrX6uvX8i8SfbbZxKRfErr4VQRdGQIbW1A/NSZZcb9mArP6tvX8i8Q+XW7yw+JbWmWKWTojTyeVe6fmXAx4G4HEcqv6tud0uz3j7ct5ofid3WVE/M9G6fUSpmCOdQ9rN3W42wvV/V9/kXiFy21YMib4m9wmiSA9C6WKNBlBWdwxAPM240fV10RwLxC5apmTIfEruKur/4M07Kqqiwmd8hVTcAi1ZXVl/kXiPty3nUx/FBuqEkdF6bw38kCd7KGPAi2I7K0+rr5+ReJFy1bzOT4m9zkWNT0VpiEJJzaiTx34Xw5cqr6vv8AIvEv25byR8Te6LnMfRsETvgbalypBwOYEVn9W3+T3k+2reRH8Te6IFQdF6fyl/jKNQ4LjgBe3AVV1dev5F4l+22ziVPxLa8xqj9D6ZyjE3/MyBSDjYi321H1bfHyLxH21TiWl+JvdZgmbozShhbO3nvmJHCxtw7qt3V17/kQ+3LeZp8SmtiuYeiIFlmt+YkbVyMC18SgI8IPMVP1bcq8C8SfbVvN0+J3c4pIXi6LgUREswbUu12YW4kcO6r+rr1/IvEfbU9pj/xMbsEaJujtOVkLGUidwSCb2XDC1Z/Vt7UcC8Srly3mifE5uSIoHRcLhBYZtVJbuwtyFbXV10KbPePt1u8q3xM69tM2mPRGnWJmzHLqXH0HDGp+rbvIvEn21byo+JneE8I6P0oW/jAmfxJ2cPtourr5+ReJft1u8S/Ezu06oh6O0yqthlE73CrjYG1Lurbo+ReJFy5by/8AxNbmqhIejIY4V/hxNqpGy442w51H1Zd5Kd4+227xH8Te6RmV4ujIE1cxx1B1D4DmoW1rUXVlyrwLxL9ut3lv+JzcTIXPRGnLEhpS2pkYsw4cRgB2VX1dfPyLxJ9uW8o/xM7pIULdFaUOpLB1ncAniDa3Ko+rb3/IguWreUHxMbqqMB0dp5WcsVkkndihY3JQ2wN6q6tuj5PeX7dbvN3+J/dmBUdGacFvf/1h7E9oww76Pq7Mn5F4l+3W7ykvxM7nJqG1P+CtMrMuW35iQ8rHlwNP1ddM8C8SfbVvKt8TW6MIkj6PgQRG4U6h2APAWuKPq6+PkXiRcuW8tJ8TW6vFJEejtOua3kWne0bA3JtbHNR9X3v+ReJfti3ll+Jzc0lMq9F6fMQAxbUyE9+W4wBp+rb5ngXiFy63eYSfEruUpbzOitOA3hYJqZF8F72wHHvrP6tu8i8R9tt3mi/Etq0EcMfQ8K6aO/4X5uQsb8y1r3rS6tuT+RR3kfLVvL/8T+8nzwnR2mVZrAJ5z5VA+ip+rr/IvEn2xPaJfib3GaTTO3ROnXyDdANQ983be3ZR9W3N/J7y/bVGIf4nNwbzAeiILSfvaqRjbjxIqrq6/wAi8R9tW8zm+JndJmgcdHwqYRlCfmHKEntFqj6uv8nvL9uUYiP4mN1Rjm6N0zhTmhUTuAsgxzcPsqLq6/yLxD5ba9o/4mdwedpdT0TBKrAgIuodCGONybY41V1Zdts94fLlvH/EzuxjdH6PgdpAQ0n5hyTfniPqqfq25/yLxJ9tW80h+JvcYfKjXoyJdMqlZo11UgZza1wxGBrdvWF/k95ftq3nWaL4moo2Y6voYBSCgaLU5iE4geK2Paa3ldW2r5rPeYu5buZ3/SfER0PqHI1u06/Z31IImmVUlCnlbKb2wxrtZfVOmuxTRh8vv2NHK+x+onQ/UCR/ynqfSS6wreaGUCCZzbLkPmWv3Wr6+m5np8z5LlPvOrfpr7cUeaCWZFvNGXawaAD3HiIy3zcyK+jc3tOGDpFSND5EcTecpB89sVzkXDYce+s8PiaxIJx83P5rDIrZ7WUXxJPZRVZIoaL5cuoWfxLIqMsjS4FzfiDw4cKlsNk2FTIYtPAYJFcz5mmzsMgKNhmaqnwoved12/SRkq8sLTxh1ZY43ymNziTa/iU9grVts4kuZzN0+Yi0YIWOUD8IEGyF8LX4cOFd3Kqzr3I5L00uoj/JgNfQaK6LZs0sg5lTwuOyu3DOJpM8D62fyEnlidI11CEEFSJGRhhcns5murqUkjlyj5V+sLSncdcxZvKWRll1BvYm/Lu7K/O+bTxPcei0h4H6dRI286YFGYBgpdb2W5411OVr4jk1OB+zT+mw2IS/MI2fXJd4dn9L+qZkvfwmfc9r098e29fU61cZOWjg5L89zP331+dnoBQCgFAfk5/qkdu/2J+FXd2U+Wu5dRaVyBx8zbklse7wXtXsein/ANTcv+F/4Hx+dL+mu8/nneqaqdy1DJYRKzggCwGPK9d3myXE9xw6SaD0kaRd70HlyLA4kUwnAknHt5+2uryd/wBRHJq1Q+sHp041W2aVJmCwvmkVFUurMpIs4PDHG1fpmlrajzWcoPOt1leRo/OZpLoI2VDy5Du767V1Ditk4q6k02nUyoreR5oLySCTPEHAtf6eyupmWqTnsk4X1w1MrwuyOit4YkC2JH3nPJjbnXRuls57YKPEZIpWjMZSawiThICuBzX4X42FY+KoVB5UiZ1DCeaEeXJKhuxJxBtwItVuBZhE+V1cZQoSVRe2B4gdvdVuUsI7H1P1b0v0Jov5n1Hq/wAloySuk0y/iavVMRcqidl+fCurrNblaazjvw3bWcmVl3Zji09LOrfWbqzqOeaHaJm6V2O7Lp9Bp3vOUJ4vIccewcK8DreoM/Nfw/BbuR9jK0dlvaziR7yyNNMx1E74yTyMXdj3lrmvhtTVnaF+B7DwqyEBa3eMaMC/P6wagLW7frqgg4j7aEF/pI/RUgpAIxP1UgEk3/bVAxPL3udQg5dvdQpBAx7uIoiEjC+H00BAvcYfsqgd4HtH20BGF7DhQE2t3g8KAYY8xQoPeOPZUBNzhRAgnC3PjehCeWA+vnQrZFgeGJ5XpJBYYcuRNWQD7ePKogTww+ugHED+xoCOw8+ffagHZ/a9AOHPjxoCb8sProWSBflyqgYHA1IDJtha1WQR7efA1kgt/btrRRa9rjhUIOzu59tCkm9xhw+rsqkAvb20KOdh9dQhB43+32UA4HE0BGHKhS9+wYcu+kERXlaqAccOHbUKxfsqgX4kf5KhCpjjY3ZQCuIIwIPbdaQVM5K6S9Wut+j2ii0u4neNrTB9l1pMkZXsRjip7K+voeeajI28Vu5nBm6Wy/sZ7p9B9edNeocCS9OyNBuemCnV9PzOPzkTBfxMg5x9hr3vLeY5eqXwY7tp8XP092XjhvPK10OlaaWSCdo5YZC8K2zItveOOB9ld52bZOLiZrHB5kMsi6gz/nlZYnC38X6AaqdCNszm0jTaZNIkqeU9g7ZcAeFyfbhUdlCy8Tv+hgkDQwyBUfREYC+W4GC3Hb21zK2cTN0HMuw+Ui6aV3D6iW+RJFvHY2uhI7ORru5VDhdTkzSyudKfJyvpgxU7e4y2lAtmDcfq412Vc0cDtqca+oGtWPbtVphmhjYB9OXCyte1mBK+6oNdTV4M5cq0+V/rFqDqtc+Y+UC5EnCxZT2dtfnXOLm7j0ejUHifplG8m96dVdgM4zKBe4vXFyhTdQ3q/lP25f0zW3PN8bHXW4SsJH2v0t1MYxByfmd+0Jthw/h13OuH8OWuxnDyNVuZ+6Kvz49AKAUAoD8wv9T/ALU2p+Hr4Yd0RgjaHrfc4mY2sfP6a1TAG/fHXrejH/1n/tZ8nnK/o+0/nI+rkLJumuEmdJA7ZgRa2Y3x5eyvqc3XxM62jwOz+laKN1iBiDyKQwYnKMDgT7K6XKLZvOfV4H1g9NQ823RKxvNIgZ5QbIgtYuAON+yv0rSWt2nmc9nI+5Qtpoo4ZNMsi+FHkjezsTxLjHA13LqKDhRwjvZYtLDEiwaWCTKIACcxAvmW/HvFfPzHWmB2UjwTWytKIHhkJzHwFWuodRY5L8Aew1w5ks2jtCrKsn+sRK2clVkLKGByk5cvf28q44k02UaBNNDHPHqs6C2Ur7+nubAG3E8qnChMnZOot827pbYdx6m33ULFBti5zEq2M7tcRxpbizGutqtVbk5bzLsEby7Hc+FHzz6p6r3rrffNR1Dv83m6ybw6fTj+HpoRgsaDlYcTzr8v1utv1GZx34/wPv5eUrLYR49xx5jC9dU5Rbs+qqRIcb27alALY2twHCgSIHG3LnVBJ4i5oQY8RwoUY3xqFAtYDmL/AG0JA/sT30EEWtw5UEDjy49tUMcuP0UgjJ7O3sqIoNwByFBsI587UBPsqhjDHnfh30IRbGwON7VCkkHGw4c+dGBicQMKYEItxPL66Am/fe/EGgHHHl2UKkQAey/dVkhN7kY37KgI7MKoQJ/yVASeAwqiSADw4d1TEotwtjfjVEEjn2jiKjA7zy4iqBiD+qoB2HlxoCBwtyNUNE49v1VAP8/ZVILEj24ioUgHh2CjQJth2EcqIhB78bcKSCe3kKpR3j6qIg7+HKoywOH0fqpIgYHEjH9VAR9Htqgnn7edQSLY3NUE3x/RUBXsJx/VVB1+17pumxbno982PWvtu77ewbSa2M2YWOKtbip4EGuTIzrsu9X2uLkS6xXKHgfQb0+6+0PqH04u+PpYotx0h8retuD5F02o5sqjEiTivfX6dyvmFupy+PbtW5nwNRp3l3Rs2Hm4bSo0y7eWnimT/V9OWyKpXE3J59tfQhbDg4d5aM62KSKQIksRGWTTMvhwGH+StWtlcM73tcmUyoZLrOQHVPuyDEKS3K3Ot2tQZuxOZenXTI+o1YzRPkhjiQAql+Ab9ddvT9p17jkrTagtGUOlaRBhqJhbzFYDwtGOzurtK6hwzJxB1+6afbdyg463VI0kmq+6RyWw7uNq6eqpa952Mpyz5Z+qkqy6t3kF3zG0hGLkYE2HCvznmlzd1T0elodv9KIRJv8ApbEjMVUngCCedq1ye34zOs+U/dP/AExe3O/xN+uusfTrE20en20wMVH/AOp3guCT2ny631y2r8tdg5H8tz7T9sNeDPuigFAKA/OR/Ux7TLrvgw9Jdw06K2o2n1C0JjduCjUbLuEB/SK9N0i39aoxaZ8zm6nJZ/Ni9aFZd51cSgsICwnzNcF744/or7/O38bOho/lPBvThlj3rRsoOaN1IXixubYeyvl8tpmHb1KfCfWb01iefbY/y0g83Tusp1DAqwwtivC3dX6Vo7Jt7TzGficra/To23TvdRrIGDahIwQsivxcZsbniBXfdqaOC2pw71LG1mZoRpJIjfSszfhM/DArfxW5V0cxVmDsWqDiDUu9p5FT8oq3eZyMvmOOAym9jXUdzqzm4TAH8wY4G8sQyghcynzS1r8f73bWbbpLEEXWOaJoBgtvzMGXi6iwBHdTaRveenXxE9TanX9TaTpNdRn0WyqNRroF8KNq5h4SQP3VtXheqdY7sxZWxVfefY5dlJW8W89eeR5eyvLHfH2UKT7MDVIDf6xekFbGNSTKHOhqR7eFWDINuBqQWQO4/RVBGHHh3d9QEnC9WAQP08BSAmOfYe2psDJ7e7nQDnjx7KuwA9t+FJBHeMAeVATY3PdUAtgRwoIItj+ugA5m9gKME9ns5UKD2W51TIFyccKhSAQCbUgpOF+0GqZF+BHK16klIvhfnyqgW50BJva/LsoB3n6KAgg8ePZQhI4HC9+JqQUj9FAOWAFCsnDAduBFCEYfVWhIH+aoC3PvqArjVgkjkcPbUbqUkH6+2gkdtUsVHbc37KQQDhgeHH2d1QD9FGywVuR9NWCSW77YUBJvwtULIAPZicfqoERYX/XVRCcePAduAqFIxBI5HgapCMf040QbOVPRnqh+meu9CkjhNu6jy6PW5hmVXJ/CkKnjlavt8g13o6hJ4XU/yOtrMrjy32HvzrdKUleeGRc6HNGyDMHtxYDke6v0e9Qz4NrRMMkk0quZysahpZV5EWsoB5Meyic1wDR5RtOn1KSpqY4g7zsBDCwGUR+9ZgfvVz28WKM3PYcrbU+nGn2yTUZFSWV2eWEMBhwVuN8eVdqxpwcLtqcqw6eSUS60zLCkAz6fQk5AtxbwkYkW7a7WL7EcD3HBvqHqdI2llEJuNCweN2BDpmwykcxevn6m5QdrKTPl56tuDu2oJhCeY7MrA42biSO/lX51zdri7D0OjVDf0bQfzzRym+VHFgLHAGwGNdrkq+NGNdgz96X9Lzsjf73Pi+3qUEyaHprojSZjybUancZyPqjFdfrj/ft7jXI18DfafsgrxB9wUAoBQHwJ/qNdvXU/ATtOvkQNHs/W+wSuSbWEiajT3v7Xr0PSrjXWe3+B8/mi/oM/mWetkEUW665IE8xXlcrIb8Lkk+yvUc8shs+ZonQ409OdR+W3vSyG90ceWwFyuY2vXxOXOMw72o+U+sHppLFDtiCcyljk8uFSLy4XvhjhX6bonFp5fOVTmXU+ZqT5MuqOmSNQ0nmWZAhxJZ1xBPADlXfhs66ZxRvaRCTVw6OFTooyua+ZmGObMmNs3fXUzVVxgc9rbUs4l1cTT6kS/m4mjkJQBvEublccb9l66Tq5k5k4O3fmmzxuosivlSN1/EUcCRyt2VJKog0jaPSxyLPmn0sUnmzaYL+KcvjzG+Nhara61wCrgfMnq7c33rqzqXdpJjqDrtZMY5u1FbItr8gBX5Lr895ufddvZ6TLt4bEkePXtyteupByNk4cB/kqChH0VUCMLAVBBP0Y0EEj6rVRQj6LD9NCSMOzEcqFF7W5dtQSDj9dqSCOV+Z5UIicSew1QML9lBI+ztqCRwGHA86FgYAHG9UC/PiOVSCA4kc/ppJXiOBv9lCi4vjzozJAA5m1uFCk4+zLwoIoTa1u+lSEE9guaAjiP1UAA5dlUqLYD9dQNEc8V4UbCB7aEIGJ7+2haC3AWsasmScAbG47xUZoixxFseyrBJJN+320xBNrDhwqIrI4f241SC9gTepAJJ49/EcKsCaEHAD7OyogyOB4+3lVBbEcPrqFI5G+NUSPs7DUAuL4YdnfQgH2igF8R2DiaBsYYD7KpYAxueWNQDD2GqVgHhyvSCIc+zu9lQkgY/rNCwOXZaqQC9xja9ASJn00kOqifLLpJEljYYEGNgwt9VFe7XK2Fg+o+i1x3PQbDrY9SHk3DSRaiZfdCrKgBYMK/Ycq7jtT3o8w7YbNYJ5IH8gRoylmCtbMA1sHPbccK1Y3gGqHl+ljUGISsTDpkzw+Mh3Y4EE9o5V2HhXYYbOYNoVY9HHqSVbT+BNLCpUZScSyD9654muzZMdh12ci6GFYU1kWs0rSRiMSJoWF5sxW4JI5E8SOVdqxKMDik4D9SEMGh1Hm6Xy59cA2pctfH7vl25V83V4d52sk+W/qjIz7tMruHyswDBbDw4EHvr845pc3fU9HpUoO8+jK5990CmyiRyqmxOUHG7d1d3kqfEji1qof0Fv6XTbSG+NTeJYisxfoDRhzjdY9Ducpt3eO9dLre7/qkt1qOXkn+0+8/WxXjT7IoBQCgPiJ/UJbd+c+Wp6gavyhIdo6k6RnJ5qrb3FpyR/2lfb6cujW2d50uYqci4/mDeu8Ri3/AFyKPwnLkcbribBq9lz234nuPj6Fyjhn0+ZxvGnENllDghiL2INfA5d/uUPoahUPrP6WBdZoINREWGojyqzOCXzEeNieQ76/TdJWztPLZ6ScbDnbU6PSafR6mFwZ3nZWaBBfzQF95m7a+lSDrTBwx1DH5UTEwtBpAB+KpxduCqOwg9ldHO9x2bGcQ6mN9QZ5lgCth+ZUEZksb8TwPsrpQ2cyaO2akiWbJnyQStGoLGxUWxsalz+KHgVHT7pq5NHoNzdZGlMWm1IgkKXYBYWsuGJtWMy6E+5mrVNx8t1Yy55GxMrO7f8AOck1+PN1PSskjDuwvQoJ5cuYogQO37aEFuF+dCk4c/oFRCCR2HDvoBaxI4YUIRwvb6qsAc/ZUAvxxIvyqgYe3uoIHP2eygROJuOznRQUjHHl31IBGHC3/OqyQnlw7b/TQQxjcEfZQpIxH6rUBB4fpFEQWPZw5GggmwxtzqSVojAYj66CRiLfpqiR7D7BRhEnhcfXURCDwuMe/hVBH0Y0LBNrceXCiqJGJPdahAOOOAoBxtQoN+XKhBbhh+ioUcbX4iqSRy76IPEmwxAw7aAjgbjhz7aiVAxYfd48qogXPHmKBDgeNqBCwOI5fXULBGNscOyqCSP2g0ILYWoUchz7aEGB9nOhRa1GEL4d4qEJtgCPqqgjH9ooEPZxFQE358O+hSvZfHuqhFuyhGmZSfwpBbkalxVifSb0+tP6ddJp+X81pNBGo1ZNrKvIX5V+r8rc6Wydx53UP+o+881kaRXVBCCzBMpAManDLgedd+GjghHlG16aGKOFSTNHLIxliUh2DKBci/7vHvrlVqiDF0nLO1w7cuhBeNtVqHkT8dCQPK5BkHC/O1dzKsXCcd7c1OU9Np7yvqJA86QgHTRRyFfLsgsSR72Xsrsqyp12z129UptRJtkyjzc13aSVhla6nAqDjlr5esvfCzuaf5qnyw9TZM+9albEZL+axOBPHw27edfm/M7vjPSabA879B43PUW2s6Z455Arx298A8for63IV8a2nV16+E/odf0we2iH0++MLcswkOp6l6b0+cA2tptnmNrns8yvjdaP/rY7Edvky/on6nK8kfWFAKAUB8jvnn7SN1+WJ8RhK5m2sdOayMccdP1Pt5/QTX1uRXRrLH2o6muX9G7uP5ZnxA55d/3SVAQkkjqI3FhmRiDx7eVe656pucHw+XpRDPX3o4zDdtMB4XkcCwI5V5rRt+ofTzog+tno5rGO3RQz6hl0skccOpf3XjY4qFDcR2mv0zl+YuGG6HltQlJz1qvLljmjCsdRo/FpkvaLUDL7oK8MMTX1X7zrJnF3UDaPWaWdtLM0X5YEorgMHLjLk9q9tdXOh4HNbMnBe5gxyQFdNmOkKoXYlULNzYc/proXI7KOl1Gqz6cwyxW1SPbznUWKHkQOQ5Go3SHiLYK6yIyaDcdPM/5hjpdQdNKpyhU8lsLca48yYae4tuND5WHB5lHBXkAHZZyK/Hmqs9RIxPsHE0hCSeGA4caDAjH6qEqTyoyi5JvUkrIvc/rqwZRItf2UDIxw/RUKx+kCqQY2GHDnQVAuf10KBz7Dy5UZB7DakB0H6DUIOzlVgpHLD6eygJxGA4dlAgedsf00QkAcOVQqFzy51WRD+xqBoHhiMTVEUH0WoVsg9hOFCNkgEYg3tQIc8RjUBN+7A8KBke3GqEQb2AI+mhCf0chQo524A8qBUJsRgB+uoCB7f1VaBAj6AKBoA9v1Y1Aybn6+FAmR38TjjVAwNsPbUQYIHbw5VYAJvYXtegJNrYj6KgYwubfRVLUgfp+qjIxgb2GNCjjYc+VCST2g8KByRz/VUDbBwUsTgOJOAtVSMu6FLodTt+j3HeX8rZdp1e9OuBXR6WbUY/6JTXV1Ot0+T/uX2297SPvcj6X5vzT/ALLTZ2fHksuu/gjqty2HqPZozLvPS257RAOM+p0GphQe1nUCuHI5vo81xZmWXPsuR9TnH466k5dlvM1eh1GVZvuyr0vGDtMcscqh4nEidoNxX0YPG5d9tyoacRhgBWTckXPbwqkJ4E8uypBaopIbRuRyHGjKfSb00hC+nfQ8bB5E/KRyeTe5W/7oHEV+rcqa+lspsPNaq6c1nlvk6idZQ0lyzl4A/wBxeYvyJ5Cu+02jioeW7MdQ2ncw6iOCSMWbTsgAYDgQ3HNXLLaOK7E5h2RZEXSFjaQtG0kAHjyEY8OFuNd7KTOK97TkcKhgfTjVtCpe+nR/CVUixueznXZVaHC6nrz6njVrBPJqtUJp8jrqmYlsqLwsvAX518vXTB3MiGz5Ueocol3rUssiyCO6iy28IOGFfmfMWuNnpNNgcrfD8ko6i25osjF3AkaX3UDHiO+vt8gXxI6XMH8J/Rk/pj9o/KfDZ8S25sTJJrPUL8u05+9+U2PSm3tHm157q/8A7672H0eUf7CP0w15g+mKAUAoD5kfOR0Mm4/LU+KqCJQ0keyaWZAwJF4N30k2Nv8Ak13+V3Naix9qODVL+m+4/lVfETHIN11YMga7s89xYiQ8q/SOfzJ5vQHq90wH/nEYjuhDDOLXHG/GvIab/cPr5i+E+sXo3NLqtn0nlKJmYoCzC7TC1sOWFrCv1Dlz+BbTzOqxPYvUx6rbdNqYkSOHJEH8uYhggY+IEi+I5CvpS0mdOJZxJ1LJp3KanT6dtOjtaXVEBVFxwZeV+IrqZ8U2HPamcJ7prJhqNXC0is6IY9Q7As8i3urqnO3bXTuurB2LUdPMJhqoFk1cUcmRV0rlfA6BbsWHH2VltplUM1aKFU13nRWk1Gnn8nUjxL5Qha1xzxo4h9xlVZ8qZcJ9WLmwmmF/9K1fjl3zPvPVxQpw/aKhJHG9sL0RRhhRkRGB4fXQMkkdnsoBY37+yoGh+uqS5UHtx7ahpMcbDvwNUzA4GklQvx599QGcjxwo0srhIktnkY5VHLEmrINCQApuLMMDcY99Zd0F4ai47R2caqc4EaK3AzDMMOOIpxph2wSCCBbnwo2liIlEg3vbgONLqYi11IxNjyNW1zgR0JwFrcRyrHGjfptoxWWJ5ZoVlDTQWM8QPiUNwuO+tmYNeWHZjSSNAjC3ZUksEZ1MhhzqZwuYw38QXttQF7E4EX7TWVmWl4GVva1sCK1e4xJbUg2wHAngbGluBIgljYXPA1La4FuUEkG9ufb7anGpNemxck9tuIrV1EZT3FGdUjeR2Cxxgl27AMST7KiuRSVZXVXRw6OAUYG4II4i1aZC3Zb6RUQZnJNFCoeaRYlLBQzEAFjwGNCQdUum1b2KaKeS/wB5YZCCPoFagEjS6wnL+QnuMcvkyXt9VSGagoYNSrZW0sqtxt5Ti1vopBmSfy+sAN9JMtveJikFvbhwoJOlWRGll0+a2ogt5+nOEkYOIJU4gHtqNlg0tfh+njRiCTzFUhHMYc6QXYMLgcTyoQmxA4ceVCi3+epIhEWvwNr8apCeFzRFgIsjyRRQwvqdRqGWPS6WNS8k0sjZURFGJZjgAKxm5ltlruucWqrb2HZ0Wiz9Tn25OTa8zNzGrbbbVLuueCSPtj8K3yytoj2naPUD4mIX1+7biiajafSSKQpDpI3GZDuDri0hBxjGAr+eerPyln597ytG+DL83813duW7af7O/tx/YDynlWns13Uti1Osan0XXKyp2XJfPctv8qeDZ9Y+mek+iOlNFHtnRnS207FodBaL8todHpxkYYBTYElvtr8kzNR6jbubfe5Z/pDouV5Ohy7bMnLWVYlRK1WqFtUJU7Tvu7bdt+o02o0vU/TunbT2A1mg3PQRxMqkYZ450VgDyvxrjc2Os2vwOe263VJcF1uanhwxfa+5qU+0+f3xDfLn9HvWDQa7ffTPSwelXqO6tLoNXpBbaNwkOIj1EAwUNwzrwr3nTH5B13L2k36mV5X/AIPYfyJ+ef2Y9J9Z5V+ZZlrRcwrGblqE3/8A6WKly2NqGlMSfn3626J6r9NurN+6D642Z9h6r6anaHdducXGHuyRt96NxirDjX9N8o5tka7T25+S5su8U9z7T/CD8i/j7m3SvOc3lfMrODUZT/8Abda8L7HttuVU/Y6o8WsPq519E8Uyfox7ahp4mc1xG5BxANqt2ASqfSfoAvF0J0O+kdkm0+gj/NxkHMFsTmUtgfor9Y5a/wChZGxI83qP9xvtPLzp5njLI5WLVHwq5syDiWA413VWu84ZPI+nI9LPEjpq3khQ2eRQC5ZP3QeAFuNay2msTF7aOYenkzaWRYpxNq2kWWNCbWDCwDnsNq72U2k9rOK+45IbVCTTRJPFn1MQbz0tm8hiLDhyFdl30Rwdx64eqbSRQ7hFJP8AmEK+NbWUgYmw48K+Xrrmkzu6eJPlb1yiJu2qWM5CTicbkXvfGvzLXWrjoekyHQ51+HpPN37bgkeWDzUzORdSb43va1ei6e+Y+drlQ/pF/wBNDtbab4HPVTd2GG8+qfUoV+0aXbttgw9leV6qub198n1eVKMhH6Jq86fRFAKAUB6D/NI24bn8vT4utORcQ9F7rqP/AO1Qai/0ZK7WicZ1r7V/E4s5fA+4/k7fEHpr6ucySZnnIkWTtXIDYj6a/Tue2I81oXJ6n9OSJBuqeYWMJYCUA2BUntrx+Q0sw+tepR9UPQ/WtJpIjFq/MCrEi5FwhjHAgDjX6Tyq6iPN6pVPZueQajQTazVG0GkNtK7qfLlUHN5jDjh2V9m69OrOiranHW8tFrklL6RIjriXgcsRwGDZP11wZrlHMkzhLeNNDLImqnyNGmZNPqEwkIXAgcMVrpZiTqc9r2HY3jyeYZNbFLHKuV9S6/iCM9g5XrgU1qaMnRIZGihJ1XlQv5bhj5at5bZbj9VMMKkqfL/cQybjufmeFxqZ/M5WJla/s41+QZ/zvvZ6q1fCju289L7psOh2vcNfJp30+8Lm0vkTLIwwvZwOGFYToaSPH+Fx/Y0TMwMcDfGhYHfb2mjRETbl9IqBsY/TzqtlUkcO4c6YmYFxUxLBGJ9n2VQgRh2X4UL3E44X+ihEj3r+WN6f9EeqXx3ei/Q3qR07purOkNfoerNXqunNYufS6nWaDpnXavS+Yn3wkqKwXtArkybZuRKRU9LfTrovWdZdU9fypHnk0e5TRSwkFYYPN1cguoxyqOzlX9P/ALb/AMe2c4zNTddaruB2qqopmsn5r+Suo/obMtTCcvtcHtPsnwvbFtW1eo+8eoG/zPuM+ijHpft2yzwTxT7gRlK6zzGUonMFQTX2fy9+zDrDmPNLdTynN0tuQmuK265q7utSUM4fx5+4LpzTaS/J1uXn3ZrThq1cM9rbO0aP4VOopdg2HVTb1s+mOnbSTbzKNYPOMSMDqAiMP4lr5QeJr9z6t/a7rdV009LpHkW6t2JcVzi3iirmJPzbkn5q0WRzdZmfbm3ZCuwSlxNOw8069+GXaeq+qd53L0k3oDogbXDptjPUc8Gg3NN0C3lkkigLqIs3um9yK/LPwp+zjqTlXLs+zm2bpszNzLbuDhub4btjcrxPcflD9wfJNZrcv6HLzrcuxrim1VW2IcSR1T8N/T3UUfp9H6c75JHqentAyeqY3uSDTQ6jdCMoO2NEzGSD+81j3V8T8N/sw6t5TzjMz+bZ2lzMht8KtubbVYxUYxU+n+S/3DdO6rQZWXocrOtzYlt2qj9j9x23pL4ael/5z1/t/qDv2o0Gpm2gf7u22iSCbRz7woYeXrJJWXLGCRcrc91d781/s46q5zzXKv5NmaXJybUuPjual7eGFU6/47/PfT2g0GY+YWZ997+XhScbplzHccPdQeg2/wDRXTgfe59JuOvTSTPuM+h1H5hI3UE3JFrYcK/T8z9vt/KuT/8AULLuzbcu7iutqpSdcDxGj/JmXr9b/Sd1tjuUK6mOw9oPVvp3pGX5UvwDeo0HTel0fqLL6geoPT27dWwwJFqtw2iDT6bWRQ6mRcZfKeVihbEXtX+ct+VwW2vep97P6RmbmfPXn31xGMAO6qD3/wDWT0r9PNn+Tz8LvrRtPSum0Xqx1562dbbN1h14gb+Ya7a9r29vymlZr/wouIUDjXNkWcXCt9yRttKe49fNr+HfqbqvZH/lGs0W1axRp2hbWagwNIhCuxUEG9xf6a/0f1/7c8zmfJ7srSrKy8+6xQ7qKqXY2fzVZ+VcjQ6627P478tNzw12nKHVXw4dPS9dbVt3prvcm4dO6HZ4f55rt8lh08h3lgPNjgaEupjUg5STcjlX5v8Agv8AaD1NyTWZv3nM02dbcnw8DbS3VaxjE9l+TvzxyDX5GXdy6zOsiJ4kk3vonhuOv2b4c9n2Lp71G2vqrejL1x1CqD0mTbpYJtrhkcBXO5zOQ0S3vbKDXm/yn+yrrDmXUWXqOXZ2ly9JKlO5q5Jd1sH1ehP3D9N6bk2Zl6rKzrs+KNWqHO6XJ1nRPw19P9J7zPrfVneH1HT02znS6SPp6bT63WfzzKckksczIBpySMzA3Ar7f50/Zr1RzbJ032fN02W8u21ZnHc1N21qFh3nz/xR+4Hp/R5md9wy865XS7ISoticvE441XwqdZbZ0jrTLvez6rdmSR9PPFrQ5PmSFkAAFy2U/XX69o/2ya3T9N/S3PIu1isa4lhOysSz87zvzRo87m3qW25tuS7phqHHbsPJ+rvhi2PWajo/c/TXqWTU9PJtQPW0O+zwafVx7vbxJAsJa8Q5E2PdX4x+HP2Z9V8q1V2dzfO02ZlXzCsuba3SmqOcT9I/JH5+6e1llmXy/Kz7b7cXdaob7GngeGegvTLdJ/HF8H+1a7Sxy6ffeveldFuG1TxLPpNZotZv+m0OoiljlBV0ljkKkEcDXhf3GdD5fKNdp7ctK3jtumFCcPE+v+OuefW6fMbfFDXvL/Gn0j0r0F8ZHxXdEdDbWmxdG9K9fdQaPpnY4haHR6RNQHEMYN7Kpc2HKv5t2s/QrrcD1pAuQv0fWaplqD6qej3o/wBE+kPylvWn5iWt6e0XWnrX1p6jQ+k3o7DuenGq0HSG2nQfnNw3eCJyFbXy38uJmBCAXtesO+FJyqxTB6celfopr/UXo3ZutIPiL2fprTbmCNV0zrtyg0ushniYhzIrjAHlWbbOLFmnck8DlAfCNvDESy/F10kYXAfRRtvumWVARYhiFxrfo9o9XsO5SfClrZen32GD4nOhfNl1q6yXf33qFtYFCZDpw1gPKN81rca670b9Tj43hETR9vedn6v+nwOxYzO3u7jwjqX4cNZt22b7vGo+J7p/UabY9PJJuelj3XTSy6uGCM2SJVAJY8BauV5SSo6HXWbsg9zPhP6N6R+N75Yvx7an1U6e0f8AvT+Xjsmx9XfDr63aTTRaHen27cdxk0et2PeZoQF1mkdMrQh1zow94jClt9zQvtUnx00035nTabU5Mh1MSSeXxy51DWHsvXKjrtVN+GPbwog0BfEdtAeF77vO5w6j8toQdHDGcs0zpZ2P/O4CuC7McwjsZeWkpO2aTdt+gkQmY6mNLDUQyAENc8bior2nU07E6HJk2n1GmaNdTp20ssiJIsLYHK4up9hrnmTrNQZHt4dlUyOPLhTA0z6T/LC9Ftt9SPWrevUfqTb13DYfRvTx6jbNJIoeKXetUSsLMDgfKHiHfX49+XeePJ09mltcepW7uWHi8T/Sb/43vxPkcz53qOeam2bdHFmVu9S6ru77ba2vefqW+G70MHxCepWt2bqHeH6d9OOj9FJvnqz1SjBZYttgJPkxMeEkxGW/IY1+Q9IdNvmer9O58OVYuK+7/hWzvZ/pb+4784/oHp23VafL9fmOpzFk6XKdVdmP+ZrarcY2uh1HVPqF6f8Aqv68+kp9LfTPRem3pf0vvW17X0ht0Kn81uujg3BP9c15a+aSTLgDfA1za/mmk1nM8n6bLWVk2XW2rfcp+a4+Z0p0F1H0x0JzJ8919+t5nqMjMzc1v5cm67Lf9LK7FNXvwOY/jJ6v0nQ/x1dR9Zy9H6HrjR9NabZX1fROsjC6HcIvyjo6OqC2bKfD32r7vXnMLdN1LdmuxZltqtm14On8T8k/aL0fqOefg7J5dl6rM0ebn353Dn2ub8t8aaanZNH2SeIfFD6Ren+19PennxH+h0DaH0W9aQRqelnJb/D2+WJk06E3IiYhrA8Ld9fO6z5BpsvLy9do/wDt87Z5bt3cev8A2w/lzn2t12s6T6lau51yv/8AIv8A8+Tsve+5Jqu2ew/OX82T0j23W9H9DevO36VYd/2HVJsfVWpRfFqdDqAWgaQjiY2BAJ7a9L+IOc3Zesu0zfw5ild6/wA/8D8S/wDkl/GOn1nTOTzzLt/6jSXqy5rF5V80fZa1K/8AUz4dAC5r+iGf4r7RY4d/ChTKYAwyc7g1GEfTzpPUJp+juk1Jy6f8jpw85TwKPL4Ae2v13R3f0bO48xnL42eUPo5syaZwSsikrIzZQVIvccxXadjmDCZ37pmNhpXGmjTTauNWWWUKczKDYYY4kGt5apJi91OathA06/mlyaFBlg1OmlGXzTlBDkYnDlavo5EW9h17qnlrxpBptPLtkkk23yO7PqXYeeSBlZBf3lwwJratjDAwetfqtp5k0urnIaISg+RFI4zxKcDibXHM18fXWtWztO7p7k2fLjriQy73qwxBUNlzDjhhzr8318vMZ6LT/KeyPw16WOfftGzXdIGU6uL7hF8DavU9OKX2HzeYOh/S1/pzdF+V+Xa+oyZf5r6g9Y6kYWuGk0sQI/8AYrw/Ud062/vPtctUZFvcfeSviHeFAKAUB6mfHps7b/8ABN8WW0rH5rar086uKx9pj2PUS/8ARrlyHF6faYzFNrP5IHxAZjJHqfLDjU6eE+aPeP4S3w7q/WOdzE70eV0J6ebOVj3WMOBkZgLEXFmPEivE5Xzn2bsD6b+jeoSHQ6EaRTpYolUal0axkINwyjjlPOv0Xlt0WqDz+pVantfO76nQwT6SLKWRmjhaS4Dg4Eg4Y9lfeapJ81Y1ONt3kVJAZJMksgLMjA2jxsQey5xArqZsYnPbEHD29giYmJAsELX0kTsLsbYt+yunm2+w5rW4O0yaeGKSOV2bVRsrZJCoHl394NyPcajSTCZXTJC2d4ZfPH8OGK2U2YE3J5kUte41c958wN+UDfOoImGcfndUjg43HmsMa/INSozru9np8t/CjxXR6XbNFqXSDVl5lUhNPJOXES8SFVjhXWSSOV3N4ncZNRBCiySzLHFJbJIzAKb9hJrUoy5LxSRyoJIZFljbg6kEX9opMlmDM6rTLL+XbUIsx/6ksob6uNA8Cw1MBjWUToI2bKsmYZS17WB7apCo1OnaVoF1CNOL3iDLm+q96klkRanTzsyRahJmT30VlYj22NCHUcbkj2VQ2RflwoABx7/81CSSRiKmJo+ifyjJCvzL/hahIVv5jN1RpcrYA+d0luQw78MK5Mv513jYzzn5dnw67h6/9UfFB0Vszw6Dddm6g1Ui66dWKiNdZLGUugOOFf6R/sy12RkdP6u/MWOclK7kfyL+4/X5mn5hpnbX4HT2n090/wAr3rvTPoZF3bbWbRMHZckoDlRYY5cK/rezqDliacOnYfzxf1HqWmt63mSfK268MUyS75tzvqJDI02SW4JbNbFai6h5dww037Db6j1EqFgt5u/yv/UCbVbhqH3rbX/NEGNTHKcgC25rjVfUPLeJtp17DH6gz0rUtnbiH+V316z6Vl3vb2h0sKxGJ0lINje48OF6r6i5ZSU6KMAuotRWlW5xKv8AK96+bT6SBN421F00skrKUlIYyi1rZcLVjM59ytpKHTsFvUWoTb3recVet3wDdR+jPo76o+oe/wCo0ev0G2bTqhFotOsmYSmFspIKgW5mupzLmeh1Gh1FmUnxPKzHVUpaz6PKue5+Zrci10XqW19qPmv6gSRaj5OvwSuh/E0PrJ6gxSKSTi+0aFvor/DJubLe7/E/0wvXxM+eN+6sQQm/E/VSBJ9R/WUX+Rv8FzeVnRPiH6+BkPAX29jkt2HjX1ORJXavJT//AGW/xRxaz/Zuf/C/4H0j6V+XR1b6gdL9I9dbRueh0+2b/tukl02hmjlEihoUJBsuH0V/ujquccvycy229PittWzsR/mJZ1Dn2u61YcT29rPIZPld9dNpotNHvG3JGk5nYeXLZiRbLbLy7a6i5/y2Ih4zgX9RajibxcRiXk+V918YNdEm87bG2vWNGtHL4VQ3/dxvXL+ouW1UOH2GLeodRKb2dpeD5YPXcLrN/OtuMnlSQkBJVwkFsxOXlyqrqXl04PDcS7n+oaj/ABM9J8r3rvSJob7zt0k2hkD+YElGdU+77uFZt6i5akqOnYazeodRc3Ko+06U/K39QHj1CNvG2Dz5GeI+XKWTOb/u41Hz/lkujr2I5H1HqJTW6MT55+vHo5qPRH5jHy/Og9cUn3fTdddGPr9XErBJC3VmgtlLAcBX8Mfvf1ORmXcvzMpQnbmf/cj+of2z6y/OytU7nhdb/Bnp/wDMAYP8eXxmsAFH+8fqLwjEYTIK/gjaz+nXgj1JJt7QcDVRHifUf4IPjV+H7of4ePWb4Afju6C3zrj4KvWzedN1ZsvV3SRiPVnp31vpNOdKm7aGKchNTFJHZHhYgWvgSa47rUbsvO4L8CnyXNaG1el+bzumg0+qJk0mi1XpfuH5iGNzdUmyaq2dRg1sL1n07d5yq97i7/AN8mMeWy/OJ1RB99f91+53sTb/APVUWXbvLxvcWh+AX5MckTs/zitUkifdPphuYvjy/wBaNR5a2Mcb3HSn4Cfk1+YUX5w+pAB/iH0u3QqRxw/1ynBbvJ6j3HmXrB8XnwZ/Dr8GPqX8Avy0dJ1P1tpPiN1W3P8AGF8XnWGjj2vWdS6DZJjLpdm2Xbo2fydF534gdiGNze4Itq22vYYuuZ8eVUIqIi5EjGVEHIAWA+quU4lMkjkeX6KEQNyAA2VhYq3YQbihew5D2PpKX179SOgehOldTtu2epfqfu227BpNs3XVJtu3LuOtkXSw6h9VIPLj07MwLsfdr5/MNTbp8m7NabVilpYuN3ad/Q6e7OvWWqO6inD2nsp8Y3y4/XL5dPWPQnTXxabh0jpZvULR6rX9Mt0j1HpupTPDopVidJF0qgxs5YZCwsa+TybqHK191ystut4Yniis7obO7q+V35Fiuuaae6ffKR6dbxu+o33cZt0nhOmEqomj0hsTDp4xljQ94GJr0uJ8Vup223M/RVRkY3sOVBB9uvlAbhoz0t6+bMGA3QbltuqKX8RgaFYwbcbXBr+e/wAzZV31uVdsdke8/wBm/wD4wuYZP6V12nlepbquJrbwvLST7pR+ob4G4Y+reg/i+9G9okWP1A6/6ZOo6UguFm1SaeHy3ijvxOYXsK+b+OLVn6XWaW2mbfZK7aHtv3uZ75V1B01z3UKdBpNVw5r2Wt3Sm/ZtPQPpLeNb07u/T++6PTCHfOiddFK22TqR5Ou0EtzDNGbFbMuINfmeg1Lycy29L4st4PetjP706u5Plcy0efpb7v6Oqy7lxW7bMxfNa8HR0PNfWD1W371Z696i9WeuINNte9b6mnTX6XSZhp0XSoY41jDXJYg8OdfS6g55fr9VdqcxK13RRYUPDfhv8U6XpLp/I5Fob7s7LyXc1dd8zdzlt7Ej3A9WdPq/S/5f/oh6U9Wx/kuufUvepOoNB09ILajRbUCzrI6HFLgjj217fnVt2j6WyNPm0zMy7iS2pH8lfivU5XUv595rznQvi0WhyFkXZi+W/NooTwe3wPz6fNG37SbR8Kup2mZr6vq3fNBpttgNsxaLNK7D2Cun+MtLdnc5sawtTfsPV/v357k6L8Zam2+rzr8vLt722/dws/OlzOF7V/UsH/P7I7b4jsoWTGX+DJ2gYfXWXgS11Pp50zNpF6d6dKRt5C6HTZ8+KhjFY5V/RX7BpWll2xuR5jNb4md7m1UmZIZF/MNJEBDme4AvwJFiLcRXM7jEI8z6ZLCNtVkZdObpNrAReUWt7vLHnXPlPacd1XBzb07Fnil0+p1H5jWzqjaTTSKGBUe6Q+PiArv5dccTgvR5NLrhAm4eTps2oiRBGCAI4nbA4doArkmJMLtPVr1nLblt15Zmfygwy5gHJY48Pu3r4vM62He0zhny+6tl87ddSXQgiSx7cMK/NtVc+M9Hkqh7S/DRpNUu+aN4hmQ4BcwsSeTczXrunbKnyuYXKD+mp/T37b/L/loenE1rfzfqDqjV87ePczHhf/8ADr8+54/+rv72fe0K/o29x9uK+UdsUAoBQHB3xO6T8/8ADZ8QuhAzHWdD9WRBeN/M2DVJ+ut5bi5EuwP5B3xCQmKaGJI8jppYxZDmUFYwCxvwOFfq/Nq2J9i/geU0ii5npPtzGLdI3lGa5Ga3A414qxxej7ONp9LfRGZZdFoFhFgw/wBbIUSSogGAueQ42r9E5W6HntWqnuDDJDpdufUhRC0620cjjDzFGUPbHE9lfftcI+fFTjHeopsqyzKwXUrl1yvZ5VYm2YAcR3118yi7TlsZxLu6peaPToqJp8vn5jjGiYDyyb4nmK6WbhBzd52GKGXzWEEjWkQlYiLoLkGxB4i1YS2I3czTSR6dxFLrIDFCkpKacXFyPDj7eQrVrUJsXdh8w+sU8jqnqeORnjjTcZPzEiraRYW1H4jBf3ghJAr8k5gl9Rd3s9Lk/Iu4+pO89E6ROoNh2Xpv0o6E1fwfabRdLa3ZvVPXaiGHXyyTCL83J+bV/Pl10k7Oj6dhlAHCvuPKi6Fba8qkN/8A1iccqO07R0f6S7D6Qeq/xi9T+q/SOi6T6D0G17hrfRTfNTpdFvcGmj/mjKk2g0XmMJisX3TjlrOTpVlZuZdeotSp47C3OUoZ6x/Gps/SO1+ovSW8eme27f8A4R6s6T2vcNp6v2sRwaDqbVtEBPrxokP+pSZjlfTnEGvmc1VvGnalDWK2/wCRvKVD2G1fQ88vp/6dbb6Q+l3RXVfw/b30ZBuHqH6ob3PDBuOl6kBL699TrM4nh1MLgLBAoyte2N67/ovgSsttdjVW8Z2meLfMnshuHpD8K3+8zqv1RXa+n9N0Z1H0u/SGg9OknjI23qvSbOmr1m8xR5rC8ILxtwL4ca7/ANJp/Ud9IiI7YxON3OIOItb6fdEamfrLpjqL096U2v4NNn6Y0Ot9LPWeGaCLdNRuirpzAX16P58mo1UzSx6iJhZVxwtXW9GxtqF6UUf/AI7zae3aeLfF90T07H6JJ1Tt/Quy+mM/T+77Rp9j6fGn0qa2XS6rSqJE2jX6F8u46S4zyPKmZb8a4+bZNvpTCTTX/wBLeTLdT5gHtPOvOydmB2dppJGhyube2kiBw5/TULB7m/Lo9UuhvRD48/he9WvUze06c9Pukt71qdT9QupaLRR7nsmt2uKWW2IjEuoTO3IY04oZVGBzH0l8JXzWfR71O9U+r/hn2DcNl2HrveNy1Gl6p2beOn5dDu2gm1ss8E8TajUHNG6OGU5QbGv1DoXrvn/JbczJ0GptybL2ncruFptYP4rXXuPH9VdH8o5twXazJ9R2YYyt+DRz50309887bptVL1fo+q9708if6pBHv3SuleNwfeN5DcEcq97k/nHra2+frsprc1l1/wCQ8lf+IOlGq6V+x3f5nbd92b55+o1mbpcdVbJtoRRJpJt86W1T+b95s/mYA8hUf5t62vul67KXcsv/AED+0PSiVNK/G7/Udj/w/wDPvLuv876kJwJb+a9LWPsPm0f5q60tcfXZXhl/6CL8R9Lf/wAr/wCf/UXPTfz8AXY731HZGysf5r0tYk/6Ws/3s60ifrsrwy/9BP7R9Kz/ANq/+b/UefbhtnzpJNrXSbfsHWGj3o6cCTdH6n6Vki/MGwEioJBZb38Ncv8AfTrl2R9bk+Fk+z4TkX4i6STn6S7xu/zOIuufRn56fqF0vu3RnWw6g33prfIvJ3XZ5d36YCTxMLEHy5lON+Rrq6n8z9Z3ZF9r12W7brWml6ctNVSixOvec2i/FfTOTnW32aVq61yp4qP2s8E+I7pHdvh++Xp8K3wq+qc+j2r4gND6jdXdb7x6d6bX6XX6vZ+mtbtul2/Ty686NnSF55oHEcZYkgX51/PbtdqSbx9x+qtpuT5sf2ApJAPspJJofVXYumd8+LT5VfpT8LXoFAnV3xB+hvrF1L1X1n6cNq9Lodc2wdQba8Wk12jGtkiWaMOQsmU3U8q5ci275rXF1rnGO6CtrB1Tod92b01+fN0rs21dN7NN1Jt20bLCkG2aBN16XIhhQBVUZpicB2mv6C/vj1tdE67LwSqsvZv+A/KM38S9L3XO56Wrr/Nt/wDccsS7X86I7JNBF0v1oOo002RdwHU/SjaddTbGXyvMzFcDheuW/wDOfXXCk9dkd8WT/wDacX9oek5/7W7xu/zOMv8AD3z7xGX/AJ11KRFY5P5r0vmxPZ5uNP70da4/XZXhl/6CP8SdLT/2j/5v9Ro3Tvz8SGc7z1IVWxZv5p0tb/8ANqf3r60S/wC+yvDL/wBAf4k6W/8A5X/zf6jyPpLbfnfwarUv1jo+rupNC8ZGk0un37pbRvHLfByxkNxblXLlfnHrbLqtbkud6y/H5C/2i6UeOlu9ju/zI3zpb562p1pfpr/FGx7eUBOnm37pbUSM6+8c/m/YK4/73dbXuXrspezL/wBA/tF0qlTSPxu/1HgfQPwmfMi6k+Lj4dfX/wCLnQPB0n6TdVdO791n6mdQb9sMGh2jYdi3aDdtZLI2lnJGWKBiqhCWaw51+b9f9Z8855fl/cNRbnekmrY4UrU6v5UsWe16W6Z5XynKut0eV6SvdcZb9rZ6H/FR6h9NernxR/Eh6q9F6t9w6N9Rett+3bpTcniMTanb9RqcsU2Q4gOEuL8sa/Om1Mnp2jgiwwNVMkEgkYqbW540A43LAMf3rA0FSL4mwHtsKiKycMLqPbYVWwmRgeS/Qo4UkjQLHmb5eFAheoVE2xtVZGiCOyomVnJ/pV6Gdceve6b5tPRm16Ntu6Q0w1vWnWe6aqPbtm2DSE2WXV62TCNmPuKPETwrsafR3Z7aSULGcCLM4XKxPKfWX4f/AFN9L9q6e9SerN+0Hqf0L1JJ/Ldi9X9o3yTqLbV1UCkjQyzzkvppABdUawI4VxfZ7NJb8Ftqte23CTmzdZmZz+O5t9pwQefdxv21k4mRhx5VSDE8OXZzqBM9pfg6+Ik/DR617Z1juSvqOheoohtfqHpI8WXQzP4dQqji0LHN7K8R1900+Z6KLP8Adsrb2717T+qv2gfnnL6D6o49VP0OqSy86P5a/Bmd1rdVtR+qzoHr/cdi3Lo71b9JOrVh1mm8vcOiutNE4lgmidQ2VsuDI4wdDX8v6XV6nRalZuW3Zm5b/wDNPsP99Of8g5J1XyPM0Otst1Og1VilJymnW2+y7ZcsbWj3K6h9YPhG9etY/VHrz6Y756Seq2qCjqLrnowLPoN2mAsZ5dMfCrtxJIJ7693q+dch5pd6usy7sjPeN1lVc98H8ndP/iv8w9BZX0PTms0/NeVW/wC3lap8OblLZarsWlgoaXYdv2frv4H/AEg1UPUnp16e9T+vfXu3N5nTs/VoXQ7LotQuKSvEgyyZTY2Irr5XMOm9Bd6mTZfqM1YcdLU973ne5r0j+cesMp6Pmep0vJdDfTM+nfqZ19rxtTxtlbZPWn1T9U+rvVnqzfvVP1V6hin3KSItrtwcjTbbtOghUssMCscscUaj2mvIc35zquY6l52e5vdElglsSR/Rv44/G3Ieh+Q28t5ZZ6Wmy5uuuufxZl382ZmXbW/BI/Ln8e/xRaT4jPU3Q7P0dO0npX6a+bpum9QbgbnrXa0+st+7gFTuF+df0T+Nukny/TvNzVGbmbN1u7ve0/xa/fD+4vK6z51Zy/QXcXL9G38SwzM10uu7bbYSt7Ze09FeGH11+lNn8ONC9u/lehIKtewAFyzKFHbcio8SpUPqJpA+l2DY9CuiTSyxaOBpjmuWLoLBSb/TX7BZTLtURQ8u1VnXeTphPEsLodSih2lKkshZSCLcCBXJdbaZZ5lsTOunVEuqNYTShCbqeJC1y2TBi9HM3TOpihjkh0Wo8uRgPw5B7vAEjsOFfQyrklCOvmTJ5trU0kjzNA5n1IRfzOqsDKpK38SCwPtrnd0vtONzB6h+sucaLVpNEgKqbBDYurY3BHIdlfA5m0rD6WldT5j9RSrNu8pQmSNXsr2IBIr851LXGehy/lPcb4X40i3iKUyLnUERAC+NscDz7K9r05bDPi8ydD+n98ibQfkvlafC9LYA7po941ZOXLfzt/1uJ7TYca/MuaOdTf3s9NpV/TXcfXaugc4oBQCgOOfWHQHdfST1S2tRdty6c3vTqO+bbJo/11UD+QF8SWjOk1WojsSkLSqw43ZHaO3sw4V+u8xX9C3/ANK/geT093xtdp6D6UBd0RwT7wCqPbwNeGXzn2XgfRn0S1Gq0eggVTFEs7oZSn8REHEMR28wK/QOVNqyN58DVw2e5sUccmmjniK/ltNZtOHa7OxFsBy7hXo049h8xngfVBi02peTSjyzYDVxWLDJbxZT2kcq4c17jly9xw3vmnlm1E0Wl/1dURZYoZFFylrgZj7xblXSzFOBz2Pednjlbzn8+do9abnSRkWWMAYh7ch3Vxp7ysttzONWG1bBoxLGunz3OZi2Bsv3auXdDK2fNz1JiEHqH1nGOH5+YjDtx/zV+U81Uaq/vPSaVzlo8HKnyhpjLI2lVzImi8x/JWRuLrHewbvtXROaal2ed1jSXWTzrH/CjkmkdV9gYnCjbZSqqEBAJyAkqhJKqTxsDw+ihALiKWBZZBppnDz6MSOIZHHBmQHKSO0ioAYhmzB3z2xbO1/01EGQFPkrpTLIdGjmRNAXcwLIwsWEZOUHvtVjYFJY+YywJLqJZY9ICukhkkd0hU4kRqxIUHuoCR7LmhCO62FCpk2vhztw76JkgWA7+2jCIKBgyOoZXFmQ4gg8iOyklaOhXbYIkEUGp1mmhX3NPFrtVHEuN/CquAB7Kx6aZv1LiX0CSG8mv18hsBdtx1ZNh7XqPKtHqXAbfEMRrdcp7tfqx/06vp2k9W4r/LYgv/zmtsOC/n9Xb/36iy7dxfVu3k/y6E2U6zXEf/7DV2/9+npWkV9xX+Wae3/zWtt//X6u3/v1fSt3F9W4udvjwb89rsw4E7hrL/8Av1FlWk9Rmum0el0hmaGMiXUEHUTu7SyyH+87ksfprkSRHczqT2nDuoZbFzy+g0RTptRpINQ8U0mePUaf+BqopHhlS/EK8ZDWqNSFdBkdCpYsdfryx4t/MNZc3789Z9O036txI0CKS66/Xh7WLjcNXcg8rh+FPTtDzLiP5fHe/wCc12bkf5hq7/8Av09O0PNuI/l0QB/1zXAN7w/P6uxPf46elaPVugn+Xx8fzuu7v/ENX/8AbqenaX1Liv8ALYTf/XNcRxv+f1f/ANunpW7jPq3ENtWkkXLNJqdXESC2nm1mpljYg3GZHcg/TV9NDjcHcrAWAwAsABhYdlbMplT3D2ChByN6FQ7uHYKqIT3f5qiEjGxJHtFGW1g3Fsb35UkIg8ey3KoJJH2nlVYtY7e2hCrhzG4jfJIQfLbkGIwowe9/qf62eh3U/wAEXw+fDT6M9NazpH1Sk6hbW/ERDIhTTdTbjk8jQ6iTVcJYwxBSM4JX1c7U5d2mtyrKOa9phWuZ2HP/AKBdIdPfBL6f/FT018dXTOl1HRHq9sWn0Hp/6LaHXafddbu3U6x+bpN0066UlYU04IzT4W4V29PkfTWXLO+W7ZjLJddxNcJ8jdOskcKrISTdrC+Yhc5KqTzIWwJrz5yGxIA/bRFY+iqGgLYg8be3jUIlsPaf4dPjG9Z/hndtt6R3GPqPoTUPn1np7uReTRqze82me+aFj2KQK8R1R0DouZvjfwZvmW3vW3vxP6o/Av7u+qOg7Vp8uNToZ/2cxv4d/p3Y2/8Ap+WatH1C6R+bV6Pbhpo/8cem++dK7gF/HOjMWu05a33SBmt7a/JtZ+IuZWXf07rb13x/E/0Y6Z/+SfofVZc63J1Glu3cPqL2O2Dfqn5tHort2kkPRvp3v3VW4MPwY9V5WhgB/vM2NqzpPxFzO+7+o7bFvmf4HL1H/wDJJ0Lpcri0eXqNTfu4PT8XdJ8zPiJ+Nv1t+I3TvsG96+Por0+Zif8AA20s8ceoAOA1c3vy8sCbd1fqvTP480XLn6j/AKmZvezuX+OJ/nt+eP3n9V9b5V2kUaPQvHLy2+K9bPUvxa32r4ew9QQAoCgBUXBQOFh2V70/kOEqLAnu7aAX7r0LiSgZ5tKqC7tLEFHac4wq2r4l3iKH1JaWUaLSJ+XRIl08STRufEX8sYrbgB21+xO6nsPK7S0mjOmCxA+ZAqo804B8zKTeynu4VHlxiJk836eDPOmtgleAAMumjYZklJ4E8gV7K5bKuUcbexnLmxz6Ypllhc6hHVXNvw3j4sSTe5J5V9DL3bTivVDznXGTUxSSJAdJJGo/M6k2VJoreGO4xUiue6ZOKEenXrXNBBAyh/Niyu3ngEOHYeEX7K8/ze5K2p9HSI+Ze9Fxujm4uXOUjEHHsFfm+a/jPRZeB7x/C5FCdYGJ8s6aOSRwwvnyoTxHCvedPKh8LmZ/Ur+TRtY2f5X3wY6EY26RSUk4EnUbjqtR/wBOvynWuc659rPVZK+Bdx9Nq6xyigFAKA7R1BpBr9g3vQlcw1uj1MRXtEkLJb7aA/j7fFRoptHvG/IZckGl125QT6cDANHuE8YNzzuuNfrmfL0tjn+VfwPJ2Neq+8+ckZaLdo8jZDE6nNw54mvENxefatVD6KegetiOkijWNfxWLB/+sDAYH6T21+gcmv8AgPg6xfEe5u1QB9DFq9RIkWtjYyylluMp8ILAYAg8BXocvCXifLvdTxHqaWOeXUtHF+T8tQNZIWBLyMPeX+6RyFZzGnMHJZgcIbvMkEsIcyONIQYAx8WTsW/YeNfOvvhnOlQ7LPNBrda/lqYdWgYocfLysLggniT2Vm98V3abhpGcR000IYMfM80BkxDRuuJN+w1FampI5PQz11299v8AVHfmdxIu4JDqImC5FsUCkADja3GvzfqLLduru7T0GgunJRxILc/pr4p25HdxvUIPZz4UgssYC/G9CUwB4dlELhfs/TSo2j2VAxhjy7qoHM99DUCwNDOJPceFQpF+FsLVTGwe0XNEbiSCCcAbWoQm/KkBEGwJtwoVMkcr/VQgxxtj2WoWSMbYjhREZOF/1fRQkDjxH0ULLHG2GFAD7MOVCMG2FhhUSNUI5kD66pCQBbEe2qSB20Re0ceAqMEdpta9UgtxHOoWESVtYYDuoEkCO+3bQEggfVUYoQOHDjVJBI4XtQpHMAY9tBIA4k3xoIGFjz7DRFZHMHgaEJuMPtoAOB7b4UE0IIB9vbfHCjBLeY8gm1E8usnVco1E0skzhRwUGQmw9lCyMLUID2UAw4nhyFAyR/Y0YRFx22NBsHMjkMLVEjU7Ae48OVVmUL2N6YgH2/ZQDgcPpNC7R23+igg710xoZdz6n6b26FDLJrNbAAgF7hXDHh3V2tDl8efbb2oxnXRY32H0s88LKA0SrpxZJNOPFIoFhhfDEiv1h7th5lW0OviinRp9PM8jR5kkUti6oOA9lVXNUZjik896XMCJqk1afldEwby5Ac6AtgAexmJ412MmncceYctbBJk0YhS2leFgBMyk+XIowCk/dbma7uXhQ4b0eQ6rQzNC66XP+akXz9TOGDq5UWOBwCnhat8O7xMq49LfW+Rn0+o08yKTGWzy5iiIxxtbtFec5wvhPpaOjPnFugA3bwrkAf8ACW9+fG5r8+zF8Z6FYHvb8OEf5PTbrqYgZjBpp2a3JjGTYWr33Ik1a4Pg69yz+q98rPb22v5d/wAIGiaPymi6J2pinZ5itL/0q/I9Q5zH3nrbPlR79VwmhQCgFAKA/kM/G9tr7d6kequgEJSPQ9T9RwO1rjKm+avLh21+sr4tDZug8o1Gfd3nypm8G6lrZvFYk8DjiTXjc2OOh9iz5T6EfD6FkigYQK0eS0gYDEW8Lhq93yb5T4eudT3U0WoJ0USKAdTpSJDBJgXYHAvfCwHAV6Oy6nafKutR4/1GIIpdZqFdoo5GDF5YyT5xFwRyyg8qzmqDdrOEOoYoY9ZkfWeeEf8A1vVeEIA+JVR2Ma+fdR1OxYmeJvK4m1NvD5si+XIh/DRSLKDXHSTkgq+nkhEimcRCZwmpjNjZB4r4UuJaes3xJ7Es+k6a6v07+cYGbQ60rGR5cROaMs/C1ybV47qrTUtzV3M+pyzMibWeqYwvfDkK8cfVgcuOPChSLX4Yd1BAuOP10EjE8TREJtiew86MsEEAn2GhIBH+SiZR9P01Qib93HjhUJgVHsoyk8eOPbQiQ4kULcLcaMDhw50ICeY+qiDbFsMBxqlaJqDAj+xFCMYnuoUm974cqEkdljhUZR3D66oRXA+ygZYW4HjSSKg5WI9ooRjnbn2UgrkiwoyoX4D6zQkA4cvppIJNv20KRYDDtoxCHb2dlUhP2jn/AGNQMg9lsOVATUKiDytxFWSQweV+PbVNSO77BUJtGFUSP0jnUQY+nDsoCOzs5VSEm2P2VEIAv23tQpPH9VCNEcvbRsqQsb3ONCIceI9lCtAccfqpIFhehEgD3fRQqdBz7udJA4Y8uVCM57+HfZZ9X1lrOpBGrabpiA+Nhh5+o8CZb8wDevSdL6Xjz3f5V72dHmOZFnDvPcrN5n5pV8B1Egk08edcxIHiW54X42r3r3HxWbwR+ZNFPNO35NBZkL5XdlxsD+kVpKvYZk8/2UyhCk8Y8gKZFLWUXuCtx3czXPltxBi5LYc17GkP5FhKM8OrKvBqEcMYmtZrDmD2V37Nh1r8Tu+p8zRS63QQI6kpG2izkhC1r+K3AnjatXW/E1sMtyek3rnLP/r0zyJJMb2AXKt/vEA8ca81zieFn1NGj507hY7o0gOZS/jYcSwOJr8/fz0Pvpyj32+HyEp0z1XqVBEse3amRmLZbKsLG/tr9B5Goyrt8Hwdfd8SP60PwKbWuy/Bj8Le2r7sHQnTJHL+JtUMvL/lV+PZjm5nr7cD2urBRQCgFAKA/kxfMm2l9p9fvX3b9VIYF23rHqWKO2LG+6zyWNuXir9V0nxcvy293+J5XNUahnxg1oYbmwUC7HAd1+NeQz18Z9ex0Pev0A1CyaNtNIAkK+WHKEli4OH0Hnava8lu+CNh8XWqp76bfP52iV4tPGmtV1UTgl1YDCzC3uivWWb6Hybkdo6uzzaXULJp/M1IOTUzthlUC/umwF+RrOfVS8TWViev++QxiTNHKI4NSwMrOoYs5FgMOB7K+ZelO47CZ49qIoXDxv5vnwKDLYCNBl5ucfoFYaRrBk6Q6XU3BgeGZwTqZ2t4gBi1zwPDCrbDK1B2XqLYdu6o2bdOntVMF0O66fy7FLDzbnI45Ag1warTWZtjseDRrKzHZdKPnD1BsG59Lb3uHT28wmHcNsfLJfhIn3JFPMMMb1+V6rS35GY7LsUeky8y261XLBnaO88eVdeDlI7L0gwiQTfHDsoabkG1hbComQDCrAQoG2RbG/PnQSSPZ7DQAE39tGFiT9naKAX5D6SKCSDwt2VSuR3VIJMDDja47KqRXduBOFjz50Msm/8AlqGkRbvpBG5ci3A8RQJDvGBBwoNguOPPlQSP8tBBN+w/RQIgnE3qwWRYG36agcEjCxvbv7aEgiwoVAjD28TQD9VCMDkeyrQDj7eQqCJAoXEjA3oSha4x7edBItbuHZQpH6uVUhH29tIEljfnUSKR9NqBUAtbHlwoFA5Y/QapKsjh+yoWSeV7ew0IiPaaMMnA48L0IDx40RpqoPA/poSBb6O6hQQMKSRocBSQOzDGgQPfSQTh7OygRrptLq9w1ek27QadtZuOvkWHQaNBd5ZXNgBVssuuaVqlszdckq4H0S9Oejf93PSuk6X1MiSbvrH/ADW8zoAY31Lj3Cx4iMYV+pcr0C02QrP5nV955/VZ/qXcWw8vkeN8mmWLJOGOdkAucMG/ZXebk640q6WKEaeWT8VDnR2zHK1/dIPEnjelEoK5ZyPscEZi0pZFUTvk/NKxaJlNmIIOOPC9djLtocTdTmDa4vMjE8GmXTaDTtkXRxG4WxwbHEm/OvoW20lHDczve6OG0moi3OJ21GQjMhuyNa8ZYrga3fhVGLMaHob61zNNpZs8hOohOQyE4Lk/Ww415bnMO2p9fR0fYegs7mTdhIMAzYntx7O2vBu6bz7b+U9+/RMRnoLq6OxEk+26kQoGOYhoigJw7699y6+NNc+xnwtTLzEu0/rv/DVtqbN8OfoHtKJ5a7d0X0vDkHIx7JplP2ivx5nrzmyoBQCgFAKA/lWfNw0Ee3fF58We2ZB+Y2/1D6iQxAWCq0wkAN+3NcV+qcsafLLN9f4nl9So1LPgzu+O5OVUICbZRwBvwryWqrefVysD3S9B54otJE8hdJUsQ0dszqMMoB7+Jr2HJmuE+PrsT6CbKyajaNNFOqwZ8piaBgvO5L353r1tjm2GfGuozx/qJ9XrBJt85ayxlptTlIUpfC98SRTPuueJvLUOThPf4YEMiovntqFU6hwbKAMFyd/Ovm5iR2LUeJzRSRRmKeOR87DzlDhs/MHD7a4njDNIzlW7v+WAnBYeahfKQQLnuIwrd3/CVM63ymYXXIsieOO4uig44DnVanEyjjD1K9MNs9Q9NGJCu19U6VC2172bmMra4il/uHl2V8jm3KbNTbuuW07em1Ty3vW49Geo+mt+6R3F9p6k259t1i4xsQTDKp4MknAg9nGvzvV6PNyLuG9Q/cfdy82y9TbU7IMP1V1jkgEHChmCMRy5UNNInD9tRyEkMRjVRIIHM40bEE4i3dUCK99riqCxH1dtQNbCBje2FCkYi98aocjH6udDLRPG98bWoXEkjmDwwAqJlIwt23qwOJQPbSSQhxFr4dtQpNj2ew0kEW52tQbR7PpoKEdvaaoZJGBPZUTI4Asb4UImMBxH0VSjj9HCgcEnl2Y2qFI7/qqok7Re49nCgcDFuOB5UAIPPAc6SSak2HD7KFeBHaCOFJLKHdexFEw8CcOFqIm0E2IA5cKCSMeHGpIaGPA/TVBP0XoJQsePIcBQNEX4g0kKpPHncioXhIP2iqJJWwxv7RQmBH2UEE2PADA8ajKQccbfTVJQWFrc+dEUYj9VCJEg44H2moVIjvBv2VUEddtW2bnvuvh2nY9BJu256g2h0US5jftY8FA5k1yZWVfmXcNqlmL7laq4Hux6T+kcXp8q9R7zLDq+tSp8gk5oNFGRisdxjIeBb6q/QuS8mWl+O6t/8OxHxNZq/UfCvlOY0iMoL6m0rqTLEpJLPhc25Yc6+3wnSZOYSeVlj8x9QAcxGVoseItxHdVwaBqYoE1CySZ5JIifK1GFmOW1iOzsNR2Kag876fEU0QMKTJGqlCHGTxcfCp5V2Mq2e4zcc47Cc6RKcqzJGJJnYYlAMuUgYY2+ivo2nVvOr36TWton/KzeVAVBljULZQcScx48cKXzFDNlqPn565tpFm1KWUTuCI3UllJtiTjxryHO7k1G0+1pJPRUWbdhY3KN4Txub9leLy4d59pr4T6Q+hMBPTO76SKERybh+VgmewJJlnRMq9xvXvMi6NJfv4WfBzFOdb3n9en0mg/K+lnpppbZfy3T+zR5eFsm3Qr+qvx89ecgUAoBQCgFAfzGPnq9CavpL48/i20+56N9B/PuqZt60DsCFl0m6aDTSxuow4kNY1+nckuV3LV2NnmddbGp8D8129gR7kwjYlQ1k/eGPMV5nWfMfSysD3G9A5YRJANWl11IVSw4hRhgeVer5I4Vdp8vWqp9EOn4EOjOgdY1WJf/AJwe9mIzBO+3bXssm2FB8XMu2nY9381tIbTz6mfSqXjlVcI8fdYHFhas3ppBM4Y35RJKbSKJXUsAPDHm5sB3DlXRvx7TsWngzOXJCy5UsS7KCHIOBNmNsprrK5SciDLNCTHkUzFACmBUpx8J7bc6jdaYlTNwo8T6cHPGFkhHEoowNx31yQjNTQNJJYRO7GVgQxAIK8Sp7O6rc5wDO0b9tm1b3t423ftsTdNv1R/HgkTMUZf3WOKnsINcGflW328N6lGsu52uVRnrv1H8OO0zBdR0Z1E+hknLM21a0eYiY4DOtiK8zq+lst1y7o7HU+jlcza+ZHD+7ejHqRtDzg7CN0i05GfUaSRZRiLg2wNfCzun9XY/lnuO/Zrsq54weAajZt90ovqti1kC3ILNp3Aupx4A18x6bNtxtfgc3HbvO2sGjuXhkjXkWikH6q4Ye02RnGPhYDmcj/spUKGQHBNgG7/A/wCyhYJzAXJRgAePlva31UMpEZuYViOZCP8AsoUFuWRwD/cf9lAA4P3WYcmEb/spsKC+Iujn/RyfsokzLIzW8JRx23jf9lBBObnkcHvjf9lKlkjzVIwzH2K5/VUALjE5Hw4nI+H2VQ0Tm4jI+GNskl/0UYSJvckBHJGJAjkJH1CopIyucWODi3HwOLfZVkrQzY2yuDz8D4fZQDzAQLBiDzyP+yhAGLZmVHcLxIjkNvbhRIQTnBv4XB5DI/7KFYzYXKvjzyP+yhCSxw8D48LxyW/RQRQrnBJFmDW93I4P6KYFck5wPuvb/wDDk/ZQMjOp5N7cj/spUjJDY2yPjwHlv+yjBJbLbwOL8/Lk/ZSHuKmAwY2VHa3Yjn9AopI0Vzi9iGFuAyP+sUKpJzAkKA1+zI/H6qEigDf3Hw945Hw+yoijOLA5WHf5b/sqgZsf4cmOP8OQfqpULcMwB4P/AOw9/wBFSCIguFJBDXXEjI/Dt4VQR5i3F81u5H/ZQQTnGAyvjzySWv8AVQFib2IRyf8AkP8AsoHAB7Fc+yN/2UqBm5lG4Y+B/wBlGWSMwBtlfDE+B+H1UqAXAAJVgD/ccezlQozEg2R7Dicj/sqgm58I8t/FbKPLkx+ykGTddPq3uU0OokC8SsEpGP8AzacL3Ms1Oo021bvrGC6TZtXqma9smnk5e0CuSzIzLsLWzHHbbizzTavSj1E3h9ONN0zLpYtR/D1OpZYY7cL43r6ORyPV5mFsTvOG7V5a2nMnTvw0SSGN+seoPLLlrbXoAGc5eN5Gwse4V9zSdJzXMu9iOnmc08q8T2J6X6Z2DpTQHSdLbQu3JIgWTUooadnGBaR2uf1V6nS6XKyLYy1B83Nzrrn8TO9atxFBneNpGY+XLcXyAG4vy+qua6UcaxMvPVlEq6nyixZX07KCwQjEWFrCje0qOs08qx6tdOAq/h8ScAHFhhVsbTM3LaV20W1ksRUS+Uy5nLXWQY4KORrOXE1Lc6HI+y+JfPZ5JnLERRym7gqbkeHja2FdvLc1MXI5q26NJoYXnRNPp5rGfU5mGDCwUhTztjX0LUmjrtSzqN708q7fFpygSEKw0gP8Mc8WHaO2pmYQZtak+eHrkJFfVwO8UYivnlTFcvELft768hzpKIPs6NHpFp7PugKXRC3hwx414rJS4z7Vzi0+s3wi9Hbv1nu/Q3RGxaVty3PqbqPpnbtGkaFmeTXb1poAQewBzfur3d1/BoMx7OH+J8NKdRaf1yendtbZun9i2d2DvtOj0umdhwJggWIkd3hr8hPWneaAUAoBQCgPzEf1Dnyr+q/io9P/APig9A9gl371a6B20aP1C6M0UYk1+/bJpWMsE+nXi8+jzMPLAu0bG2KivSch5usmcu/5Lvcz52u0nH8SxR/NS6v2/XbRv+r2zctHLt+v0c0ker0kqNHKkiNlKsHAIIIsQReubWxxnHk/KezXoLOwEMDWlhLC8fPDE3J7K9JyO58PYfO1x9I9g1Mn5LTwNnmVjn0LMoQe7c3IxIHKvb5d0Hwrkjt27nU6ItIYpGWQkylXARQVvcMONLm0v4ixTicMb2sGpZoVltGozzalRmdo+JAU8v0V0Wlc4OwqVPDGhhUMjSKxZ7NAQTeIe6FP6a66oclTKfLpiztpcrYJGS18hGOUqO0UuxCRUOEfzIGyzJY+S+HgIwynnzwqdxZNIpIpFkhU+VG5BEOIMjKbkX7e6qmnQVOrZXVdJJEMjMzFyxDDPa4RVPPtrUQpIZZ5oHWfV6L8tp2S8zhQW8xj3fvdlHdSqhF/iWJSBZDOBFLKATKfDcnAWA4CxqUTMIuyCJIjZJFm/iSMVfOh4GxvYjnWiydH5Oi8rUlts0s2dsgR9NEbtwuoYcCONYVq3LwNe0wG07blMDbHom845ZEGmisSBgVNuHtqPLtnBeBeNvaQuk22MKrbXoSM2EJ0kOZuWUELgTyvWXZati8A297Lro9P5ssf8p0UULY+XJpYbRt2YLif01vht3LwIrmZDaNDBEHXatIJSpGVdPD4xxzEFbCs+jalgicbnE1/l+3HyB/LNKJIh4i2khDOLYjFeNT07ZwXgHc95A0W0RhTqNn0QVUYxFNPEgR3wtly44VeC2cF4F4nvZj+T0amGQbPprwgCPNpISXHHw+HjUdlrqkvAtWdZJo9lkJlOy6QNMFT8s8EOYHjckL34Vp22PFLwMzdvEu0bbCY/N0WlIQEyM2khX8QDAHw4jvp6Vs7PAcTMhtO0COy9PaJo2GYsNPCnmFcT93j3Vx25dkfKvAO9vaYR6bZ2BL7PpEBbCUaWEqR91WGXhfnWuGzal4Fuuu3m4g20SRyHadEjqLfmBpYmXJfkcvKtK22apeBeJ7zrINq21V1Bg2TSNIys0cgghVZL8b3F8vbW/Rs3Iy7m3VmDaOJoPMj2PRapEVRFMukgyMDxX3bkjtrHAowXgFc97LDR7NOpl/k+kZIWUOg0cQUMOILWxB7KjtsexeBXddvLJtmxTefLFs2icRHxp5EA8r93Arj3itrKsxSRXfcZLpNtj/LZdq0SmRs4K6WJRnGBDeHhblWXZasEvAcVxL6XbtTJLqBs2hZhcwP+VhXECxDDL7vYajyrXWF4EtlbWV/IbbGBI2z6OJZRmeNtJEyuSLE2tfCq8qxVhR3CXvI/KaMQwCDaNG6sx8p/wArDlcjsBXDCsuy2MF4ETc4lH2nQamV9TPtGgIRVBkGmiUqAeVlxJqPKtuxSnuCucUbA0G3q0gm2fTKym0atpYGsoF8xKrx7aLLtlyl4Bt7yx27bWjdH2nQyoFAkP5WFc4b91svZW3lWpYLwLxveUk0m1OS0Gy6bycqoWTTREIFFxjl44VFZlx8peJ7zqI4tvZfJm2rSogAyTtpYQptiLXXj31Ulw1S8DLbA2ra3jfWQ7XpNLmJEEQ00LI0g4kkLgSOXbWlZa03Cr2B3My/IbQ8mUbNotSiJgTpYg4IxJbw99Y9HL3LwLxXRidOdHtMUiwjYNGkliHQQxFnz4q+bL9lZVluEKQ7nvZYwbSiFhtmj1EDC0jDTQh/+cAvbzrTts3KO4svezZdDtUggJ2bRTCLCUflokyqxtwK8Kvp2eVUM8Twk659DpBLNFpdl0ssd0Q6b8tA0jRke8SV8I76vpJXRCCbjE6ZNLoHkaHUbJo4dQ5PkKNHCS0a4Y2X7aO22YaU9wl7xHt+yzNFA206FJmLZAdPCGYqcATl4HnWVl5b2Iqb3srJt+zRtIYdh0MI03i8ltLC5ucGAKrj3Gnp2bLV4DieMkflNCIl06bNonVPFkbSwkqnLxBcCeVatstSiF4F4u0pJt23uHCbLpozBxk/LRZvLYcMVteosu1qYXgRXOcS0Wn2xCxj2nRTS5QJgukiUxlRg5uuI9lFbbsS8C8Txkw/l+nnCRfyrQ5pSOOmiGYe3LgDWXYsEkOKCr7Tt8bpH/KNKI0b/WHXTQsBb7vu3NPStWxeBeNm0237cxkZtt0ckTZQIfykJyWxBIy8uVV2WusLwJx3FU0e0pGVGy6VZZZLsqaeI58o8JtbC/OnBZuQdznEiODQJKsk2zQs0mX8NNLErIBjxK4AVnhtmY9xXc3izuMRgZ208KxQrcSajUJElwhxKqoGPsrl9O3sONXFCRBLMomRF4RRqqreMYgjKBa/OpKThA6fUnycsrQBbDJAzNcRMcb5ewikRU0m5LI6iRCtoZlA8uF7hcp4lT3nlTirKDVC6SoXkQKYm1AKKDhnN7lWPLHlWpWBk6koU0sWW0IaXLOXIKow4ADmaqVAjCWSaGRdRrND5EDDNqpMi3v7qkAcL9lYlrFFa2I0zxKc8yjxqT57DJYE4G3LvreFWSpeOKNFjmVUUysFGoDA5kOBJHI99SKysQjkfYHXTSSvFYypaJRa125MqHica5slpHG3JzHssOoUot0yEW1RK2STD3iG923bzr6NtabTr3Mx6hMiRS6WOJy7BfCrHIWHB7HAgD6Kl4tg+b3rdK0mo1kcs4cozeYoXKxsfeIHDHCvEc7urB93RI9QdFnm3ZAkZlcuAIhxxPdXk9PXMPqX4H70P6b/AOVv1ruev6V+Mj1y6Tm6b6C6RY6v0b2TXwPHqN93RomhTXeVOv8A8npldjGxHjlsVwU373O+dL0PQs24v/A4dFo3x+pd7D9u1eNPsigFAKAUAoBQHwT+Z7/T8/B58wrRdSdfdPbLD6D/ABK6+OSXReqezQ+Voty1lrg7voYQI585ADSqBKBwJrny9Rdao2HHflpn4ofWz5PPxwfAd1DqdP6relWt3zo3SagQ7Z6m7FFLuew6iBm8Mr6jSK/kFhxSUKRwNew5NzvItpf8L9x8nW6K9qlTtfS+m1L6JtNFtj6pYJm05ZTnjk1Ce8iuMSVHLnX6Bo+aabMti25P2nm87T5lrqmeP9SacTRahIkfTK7fhKFYqmQ4hLjj3V3nF1LWjNsrE4V3V1jld42jWbPcaVro0g90Ff3SeYroXWNM5VceIvqdBKZITICYmuACQEzG7Zv0VxNdhvYa6QyySsmk06akRKbXkzx242NzxtS225YIriAYGMY1KJ+De2lU5c5cDGw7qjt2lTB0xkhaTy205AtAhtYyE3LMAcGPKkSSYNZdPqY0aabTsC6i2ncjKhA9+6nDupwMkyUjXcxFqRFGoRAhmgY5pGDD+JYnj2UUhwX0+nMzPLqYD5wsJ0wdTcWBxOGHZUow3sM20REImgiBQkowbFyhNrJjxNadtJNK6TbT6HVPNExj/MEk+UzOoZQgx94+8OFqttrMu5QUGi3DUx6jVOjQ6bOY3ldlXPfEDjhU4Hi8C8VSIodaohmji86WFCdNcAMcuHjB4kcqNPHaHDIXT6qackxMNPLlzRkqFaXicb8uVRcUzvJ/E2m0GpSK6aY6jysY4ncLcjgDjxqtOJCJ/Iaq6osTyADNJM2Ush42BB+inC4ElYtEzNJDqPG+pN0uBdyBioJPZV4d+0s1Lvp9RmiMceohVMXRiBmVfCML4eyo7a0JMHRw7brEYZorSAsZZzhkD4AHHEGsW2NGm0dweHUBYI54rAKQVBDiRb8VN/qFclyoYk6c6OVLmKALmHiTzbsSTcYE8udS63cakvPBqtTKYngXTzIB5zDKIxBa2J7aVwMyYJC2WSCPSuYbBUmTLgl8chJxvThLBtHo9S6uI8ywwMX086AAOoFimJ41qGG0UjimEqGCAaVi+Epk8KG17AX4tzrjXE2UgR6maYx66HymkbPFbAZ1wsFBxuOFabrUG40cc0soj0+WQxhmjNgCRgCxB586qslEqYJo9RLHI4W6EmSWEEKhK4XXHhbCsq14CYNjodxMmm0kOnaO8eZkujqL4jKwPADlW+F4bSyjA6XVkzqJPOUgGW9jje11IPHDGsue8K4iaHXOY41haOaE8UKgCEDEnH6qzcrnQJnUropnjGSJkUqLEEcSb34/XWuFwZcGMei1aK5bTNHIjHyYAQyyrzbA8+FqituihU6CTTTKTnQiKA3ZSAVAbjcA/d5UaW0J1LSaVoFcRxzoWAdJEt5Zvgrccb9lLrWqKSTJ0M+g1ps8sL6gFMkMRN/Mc9pB8NqnA/A1xKDuEek1MenkiaMLEyqXlzAlHX95b4m+F61Za13EbTIk0bzfiiAxscWdpAviBxOB4VXbxFTBSYR/6xpwmmkYhGBBk8w+5Y390ms1jAk7jFtNqNPMizQfmpnK/nMuXLfkGI4VYacbS0NW0U5cGFGmkJdtVE2Usl8AQb2KjkKkeJJKyQTwvHGYTqWS6s+bKzi18pIOKio00FgJP5lGulD5Z4bAq6MBePEMma/LlVfFPYITDaGACNFiazENHgCfETbE/bVarBqsljt88cx08SiHy8YwCMy5sCXN+LdhqQ06GeMt+X12mh1M0cdrMkbyoyuWN7gEX5DnS6RKwKT6PXwyxh3KNdTDESrMofmQDip50utu4ipyU8nVQiUHSWgnZhOVI4jgFx4X4VVa1TeDTT6PWyKFkjLSAKrjMLoAbgYHh21EroJJoNr1p1Ito3WGS7STFxmS3AAE/eq8LnsDujE6aTSaw38zSmI4qri1yp5mxxNR2vaTiNk0zFUmWKVpoiqFYgMym1sRfjbiavCit1Ol1Gj12ojlWBJXUEeWGYFo1XA4XxNYdjagJpE6bSalJFkh0oDJJmSEnKZVOGYG9wTzBq2pp0Ruam50yySMjwmUZ2ZbEIELcQxv21u5JuDC3kR6XWI4TT6RWy5iqNIHXttieI404XMDiRiYWkB1CLaE4aXTkAsJVxJAvx7BUSTrsLJYQySwqxgaCUh/JGBV5GNiWF8G7KNFgtNpdQinz4beaoD6ZrWQoL5iQeJ4ikEUSUSDcBHLkUKq5c2nZg8hzD3yCePZUtbfcOIN5Yik1WriyM1opcc635E8cCOQolOIuZWE6N4opNMEIIyXb3ihPBF7T9lbVk7CNpYnJvT0cby6WP8AMwaiSc3jZ5Mrr5YvYX58hXYyrHicV1xy9tjLJoRrNRqTFBnZXDXLMOxlGIUHAE4V300lVwcDTnedF1Q7w7ZqhI2o066HTK84YXOnjkbw48cr/dr5+r1+nst+K9eJ2MnIvbopPD/TH5bPxm/Gz1YenvQX0X3bqHRbhNCms6tlgbTbNpkl4NPuGpCQIgGJJY91fn/N+c6e6lrk+/otHelU/Yd8sD+mG+GL4UYNh9VPiyi0nxJevMDw6vTbLOjnpHY5lAcJHpJLDWSKbXkmBW48K2rx+Zq7nhRH2LcpI/UhpdLpdDptPotFpo9Ho9IixaTSRIscUUaKFVEVAAqgCwAFhXVOU3oBQCgFAKAUAoBQGM+ng1UTwamBNRBILSQyKrow7CGBBoD089UPl8fBj6w6ibcOuPh46b1O9SzfmP8AEOj0KbZr1ny5fME+3+S2a3M0kjSPTnqz5GHwMdR5W23b+qOk3SR5Vj0fUE00HmvxYx6+OcX9hFc9upzLcGzDyrXsPXHqH+nU+GndBqP5b6m75ozIGWJZ9Bs2osrcQzHTqTXKuYZyXzMw9NZuOItR/TQ+jIZDovWDUxKmCh9n20+E8QbQ4j21tczz1/M/Ey9JlvYez3wjfIY+GH4cuvd160670ug9c9JqNqn23aOmN72fQPodK2p1MWok1HliMBpQIsqsb2UsBxrN/Mc+7+ZmrdNYth9Ev/Lu+BS6n/hJ6Buvun/DW2Yf/Crj+szfMzfpW7ix+Xl8C5JJ+EvoEk8T/hrbP+6p9bm+Zj0rdxU/Lv8AgVNr/CV0CbYD/ZrbOH/ZU+szfMx6Nu4N8u/4FWzBvhK6BbNYNfprbMQOH/VU+szfMx6Nm4hfl3fAotsvwk9AjKbj/ZrbMD/2VPrM3zMejZuND8vP4GDlv8JnQRy+7/s1tmH/AMKr9bneZ+JPQs3FB8u/4FA2YfCT0CGuTf8Aw1tnE/6Kp9Zm+Zl9GzcJPl3/AAKzKEl+EroGRVNwp6a2wi4/0VPrM3zMejZuJb5eHwLNg3wl9AnC3/7a2zh/2VPrc7zMejZuB+Xh8CxAB+EvoGwNwP8ADW2cf+yp9bm+Zk9GzcSPl4/AuL2+EvoHHj/s1tn/AHVX63O8zL6Nm4hfl4fAsq5V+EvoEL2f4a2z/uqn1ud5mT0bNwb5ePwLPkzfCX0C3l+5/s1tmHs/Co9bm+Zj0bNxdvl6fAyzZ2+E3oJmHBj01tl//wAqn1mb5n4j0bNxm3y7/gVcgv8ACV0CxBuCemtsOP8A2VHrM3zMejZuJHy8fgWFiPhL6Bw4f7NbZ/3VPrc7zMvo2biP/Lv+BXD/AOkroHDh/s1tn/dU+szfMx6Nu4H5d/wKMzM3wldAlmFmP+GtsxH/AGVPrM3zMLJs3Ej5ePwLAIo+EvoELH7g/wANbZh7PwqfWZvmY9GzcQfl3/AqQQfhK6BIJuR/hrbOP/ZU+szfM/Eno2bgvy7/AIFVGVfhK6BC9n+Gts/7qn1mb5mX0bNw/wDLv+BXLl/4Sugcp5f4a2z/ALqn1mb5mPRs3E/+Xh8Cwtb4S+gcOH+zW2cv9FRazN8zJ6Nm4r/5d3wKG/8A9JPQOPH/AGa2z/uqfWZvmZfRt3Fv/Lx+BbEf8JfQNja4/wANbZy/0VPrM3zMejbuI/8ALv8AgVsQPhK6BALZj/s1tnvdv8Ki1mb5mPRt3Fh8vH4F1XIPhL6BCm9x/hrbOfH/AKqn1ud5mPRs3EL8vD4Fl934S+gRhb/9tbZwHL+FT63O8zJ6Nm4kfLy+BcOJB8JnQQccG/w1tl8f9FT6zN8zHo2bgvy8vgXQEL8JfQIBBB/2a2zgf9FV+tzvMy+jZuI/8vD4FgoQfCX0CEHBf8NbZYf/AAqn1ud5n4j0bdxH/l3/AAK5DF/wldA+WeKf4a223/5VX67O8zHo2bh/5d/wKkAf8JXQNhwH+Gts/wC6qfWZvmY9G3cG+Xh8CrYN8JXQJHZ/hrbP+6p9Zm+Zj0bNxY/Ly+Bc8fhL6BNsB/s1tn/dU+szfMx6Nm4qPl4fAqt8vwldAi5BP+zW2Ykf6Ki1ud5mPRt3Ej5eHwLC1vhL6BFjcf7NbZx/7Kn1ub5mPRs3ED5d/wACoYsPhK6BzHif8NbZz/0VPrM3zMejZuA+Xf8AAqOHwldAj/8A5rbP+6p9bm+Zj0rdxI+Xh8CwzW+EvoEZsG/2a2zH/wCFRa3O8z8R6Nm4f+Xh8Ctyf+EroG54/wCzW2cv9FT63O8z8SejZuA+Xj8CyksPhL6BBPE/4a2z/uqLWZvmZfRs3Ej5eXwLhgw+EzoEMBYN/hrbL2/7Kn1mb5mPRs3Ef+Xh8C2Zm/4S+gcze8f8NbZj/wDCp9Zm+Zk9GzcQPl3/AAKgkj4SugbtxP8AhrbMf/hU+szfMy+jZuB+Xd8CjG7fCV0CThj/AIa2zl/oqv1ud5mT0LNxcfLz+BgYj4Tegu3/APbW2cf+yqfW5vmY9GzcF+Xn8DCl2X4TeglaT3yOmtsufb+FV+tzvMx6Fm4hfl4/Aut8vwl9Ai/H/ZrbP+6qfWZvmY9GzcU/8u74FMxf/hK6Bzt7zf4a2y55/wD3VPrM3zMvo2bgPl3fAoAwHwk9AgMbsP8ADW2Ykf6Kn1ub5mPRs3ED5dvwJqQw+EnoAEcD/hrbOf8AoqfWZvmY9GzcXHy8PgVBBHwldAgg3B/w1tmB7f4VT6vN8zHpW7iT8vH4F2zZvhL6BOb3v9mtsx/+FV+szfMx6Nu4p/5d3wKXv/wk9A37f8NbZy/0VPrM3zPxHo2biT8u/wCBVve+EroE8semts4D/RU+szfMx6Nu49MPjD+Sb8J/xKbZ0PD6fdF7J6A7v0lqNW+t3TYNk0EI3DS6uERmKaMR5SUYZka1xc1uzmGda5Vz8TN2nsew9JIP6af0bWRWn9ZNWyoqpEy7RtuZAOJF4eJ7a2+aah/zPxMLSZe45K2T+nP+HXQog1/qtvU7IvlgQbds0IEfOxOnYgnmaj5lnx8zKtNZuOd+mvkH/AxtDyTb7/izqmTUQxwavTyb7+T00sUeIUx6CGI2v2NXDdqsx4tm1k27j239Ofld/AZ6YaoblsXw3dP7tvYEQPUG8wNvWtKwYxjzNxaXBOVhhXA22citSPe7btr2zZ9JDoNo26DatDp1VNPotNDHBDGiDKqqkQUAAYAAVCnXUAoBQCgFAKAUAoBQCgFAKAUAoBQCgFAKAUAoBQCgFAKAUAoBQCgFAKAUAoBQCgFAKAUAoBQCgFAKAUAoBQCgFAKAUAoBQCgFAKAUAoBQCgFAKAUAoBQCgFAKAUAoBQCgFAKAUAoBQCgFAKAUAoBQCgFAKAUAoBQCgFAKAUAoBQCgFAKAUAoBQCgFAKAUAoBQCgFAKAUAoBQCgFAKAUAoBQCgFAKAUAoBQCgFAKAUAoBQCgFAKAUAoBQCgFAKAUAoBQCgFAKAUAoBQCgFAKAUAoBQCgFAKAUAoBQCgFAKAUAoBQCgFAKAUAoBQCgFAKAUAoBQCgFAKAUAoBQCgFAKAUAoBQCgFAKAUAoBQCgFAKAUAoBQCgFAKAUAoBQCgFAKAUAoBQCgFAKAUAoBQCgFAKAUAoBQCgFAKAUAoBQCgFAKAUAoBQCgFAKAUAoBQCgFAKAUAoBQCgFAKAUAoBQCgFAKAUAoBQCgFAKAUAoBQCgFAKAUAoBQCgFAKAUAoBQCgFAKAUAoBQCgFAKAUAoBQCgFAKAUAoBQCgFAKAUAoBQCgFAKAUAoBQCgFAKAUAoBQCgFAKAUAoBQCgFAKAUAoBQCgFAKAUAoBQCgFAKAUAoBQCgFAKAUAoBQCgFAKAUAoBQCgFAKAUAoBQCgFAKAUAoBQCgFAKAUAoBQCgFAKAUAoBQCgFAKAUAoBQCgFAKAUAoBQCgFAKAUAoBQCgFAKAUAoBQCgFAKAUAoBQCgFAKAUAoBQCgFAKAUAoBQCgFAKAUAoBQCgFAKAUAoBQCgFAKAUAoBQCgFAKAUAoBQCgFAKAUAoBQCgFAKAUAoBQCgFAKAUAoBQCgFAKAUAoBQCgFAKAUAoBQCgFAKAUAoBQCgFAKAUAoBQCgFAKAUAoBQCgFAKAUAoBQCgFAKAUAoBQCgFAKAUAoBQCgFAKAUAoBQCgFAKAUAoBQCgFAKAUAoBQCgFAKAUAoBQCgFAKAUAoBQCgFAKAUAoBQCgFAKAUAoBQCgFAKAUAoBQCgFAKAUAoBQCgFAKAUAoBQCgFAKAUAoBQCgFAKAUAoBQCgFAKAUAoBQCgFAKAUAoBQCgFAKAUAoBQCgFAKAUAoBQCgFAKAUAoBQCgFAKAUAoBQCgFAKAUAoBQCgFAKAUAoBQCgFAKAUAoBQCgFAKAUAoBQCgFAKAUAoBQCgFAKAUAoBQCgFAKAUAoBQCgFAKAUAoBQCgFAKAUAoBQCgFAKAUAoBQCgFAKAUAoBQCgFAKAUAoBQCgFAKAUAoBQCgFAKAUAoBQCgFAKAUAoBQCgFAKAUAoBQCgFAKAUAoBQCgFAKAUAoBQCgFAKAUAoBQCgFAKAUAoBQCgFAKAUAoBQCgFAKAUAoBQCgFAKAUAoBQCgFAKAUAoBQCgFAKAUAoBQCgFAKAUAoBQCgFAKAUAoBQCgFAKAUAoBQCgFAKAUAoBQCgFAKAUAoBQCgFAKAUAoBQCgFAKAUAoBQCgFAKAUAoBQCgFAKAUAoBQCgFAKAUAoBQCgFAKAUAoBQCgFAKAUAoBQCgFAKAUAoBQCgFAKAUAoBQCgFAKAUAoBQCgFAKAUAoBQCgFAf/2Q==;fontColor=default;" parent="I0mVf6kvE5d-BuWw-hbC-4" vertex="1">
                    <mxGeometry x="240" y="124.38" width="162.27" height="145.62" as="geometry"/>
                </mxCell>
                <mxCell id="e9BGIbV48YQ-_9oPhCva-10" value="" style="shape=image;verticalLabelPosition=bottom;labelBackgroundColor=default;verticalAlign=top;aspect=fixed;imageAspect=0;image=data:image/webp,UklGRr4PAABXRUJQVlA4ILIPAAAwcwCdASqAAmgBPlEokUajoiGhITcIWHAKCWdu/HyZ5ev35RTnpfmgU1+bfeD1S/yvrB5J/pv23e/L4T+L/4b+k/lL2gPMA/gH8A/xX81/ynYT8wH8x/vP7cdgD0AP4r/hv///1e0A9ADzZf9v+1/wN/t9+w/wC/rl///YA9AD/28R1/gvxm8Hv8B+Un9O6cf2o5mnSviS+8f5j8tPjx2D+p31AvyD+d/4P8sODQlA9QL19+nf7zunfQzxAP5l+5nGYeaewB/Ov8b/w/Ti/7f8t50Pzr/S/+n/O/AN/Nf7B/zvzV7yf7pezD+6QP68Xsg2eXi9kGzy8Xsg2eXi9kGzy8Xsg2eXi9kGzy8Xsg2eXi9kGzy8Xsg2eXi9kGzy8Xsg2eXi9kGzy8Xsg2eXi9kGzy8Xsg2eXi9kGzy8Xsg2eXi9kGzy8Xsg2eXi9kGzy8Xsg2eXi9kGzy8Xsg2eXi9kGzy8Xsg2eXi9kGzy8Xsg2eXi9kGzy8Xsg2eXi9kGzy8Xsg2eXi9kGzy8Xsg2eXi3NBhiN00lpe0y97nG+gPYOf1hccSSpJeXQWA3TJxZ2wKY3c3ZH3AwXAqHRD5PmT2kdllml1IfGVqlcjZS5OGBs8vF7INnlRnDevwV3fed3xUhqVikB/A0w+1hdYeL8OrtfP6Y83k3826mWRV1oLzNCXcNLQS/n0qFGxFLVuqa7D8ZtPKKwp50vGAOgEz6AAhQHk4mwmynt0eEfq2wPvFXlzUltrfkZPATS1gokNq3VNc+Zxa80Wlmsg2eXi9kGzJqmHojoJwy/jiV6ORxfdOTutM2rXDUrWDNSjX0kq2R6+zRn0IdWL9blGl7IMRq5Gm9DZTp7cDoRKftf2SqUotmje7rJ7BaWGKFr9W5VpzFc/3DqgQzYkOgJfqrqJico6FkgT2Su/HdRmMrsL/EyBpdI5VOk3xFzaS4uZrl7U1gzSmwjyf1SPzyGXgc1C8AZwmicz5LfeQeWny5x5eLiBQ2QbPLxeyjM8vF7INnl4vZBs8vF7INnl4vZBs8vF7INnl4vZBs8vF7INnl4vZBs8vF7INnl4vZBs8vF7INnl4vZBs8vF7INnl4vZBs8vF7INnl4vZBs8vF7INnl4vZBs8vF7INnl4vZBs8vF7INnl4vZBs8vF7INnl4vZBs8vF7INnl4vZBs8vF7INnl4vZBs8vF7INnl4vZBs8vF7INnl4vZBs8vF7INnl4vZBs8vF7INnegA/v/zYyAAAAAAAAAAACJBVFXf8SzBr5v3l8G1BXscjpx9W92uP5sBxQd6MRaD0w+hE6DWa8Dtv1Eq8fh0v6u/7uQ5Ra+4U32WB/Z9fuShN5/tFKuRBE5yJwkWmSVSVGzkX70/y+w3vc83c8tGPfjtKSc/l2YlNrU3Ht7tOEx7ymf5gK+2KkebDteViD9Hi/z4VBO3Qa3+0UJ4A9dbPNs11ygA2fCx8is4aGQKa/+W3Ma9wLjULVnX1dEgy9ROd5dvQKB2i/0+Ftb46fIwdvTQMH4FM6hmN2zLZwgNcdbakNj2hDLmQrn3AAlVyB+3/+LVM77pfECxSrzozGR//gf6nl4UV0AqyfYX7aft3ezSeEL3uGx23idLgWgvxHuF51Hoqs/ncmZsGlul1fIm2mYycf/70DSUFPkIHwZBLY3xP46iWfpQbwjvbHfJd8UnKzL/cfraSbZKIVWDJuax1wgTJL8iTeSZ4TUjv8MTXNvSyz0WWd3sHFEQl96A1D0hsKi7vDkdIkigPvOqt5NzWTkCJ89rVedR8J3jOKkDYTHwf6cWf7ShebV65f4P70jrmV6xif//MB0fARMMhfj0T9iBK8lADAnPgDSKVMEtsleAsC6+Bv4m/IQkWhIUBv8r44E87jhlq3eluvHKOkKfl4JAcfNKR0MxmWmzP6m3C+YRy/hPyOXwynmgxY+yvJVHxiNkRctJ+NxTW6nUfCd4OKIjN3Do6o2qnnjazsy199NI+6SJGo2GlzGP4hYqP78nJu279IACQn4VRmQEVbhe2dwdRsOIAjIRT9l+DKY70miL77SsK0YmdmSPE61368+/v7P/LkTLESZ8EvCFYw/ComNfNn7h7lATSqdFNI/3lDaE3HItylwYOjGpRWZUYXvDmEkoLTmcj4nLzeDNHer8g2No63MMHkWA37eyabPV7Rg8EI4dWNV6Z7BIoDiOiGEVRmFaNcnKUrdC5pA9BmOLu0Ehq/ce3WXdUj55g6l8DoZQgHOGd9i72bS7XdsxgPxpP9pBpt3iXeuZTCb8CPctleDcd6lKxMCco2lf+d0ln34ngWR+Hsa0rtdHWRCcfktL5RE5loJuVMKUzm8n+W78VbeQCgAhYbqbDZ8q2KLBr8S3w1a4BkfsSEeFvtWBp/ecvh9ewEaIl2SDRtn7nn/l99RYzbSY95wWpDTRIZKpghmI6Q6EIMvYQrfov8HnkO6FdwLaxUEg9Ag/6Gyp5AfA6zUNEQJ+a9wLZOZX9gOxAaDhhf3GuKsYkYEWiiYsiHHCJu0XwGDs/9XQ1Ix+nxa5PVCA3hUXKvlHAo0n8V6TtcKoLMIigxXUo0aVSWgeuVFo+vhgDuF3ZvIqvhXpJp9UPfETGmNHhT8nqZUGW5J5C0Eal8dN5TVAp7N5tcbDumhA5l861aFBxoTm+AGHNlF/B9pJDfLtgXRl6SinQpy7H8IyvGrV0TkJ5nqYk9AX/HGWjWGuSUe6+IryUT2mnweMXIlh0Vkx2ywwqJysTfdLymloey/Y6w/G2M8+HvnOesGnQHloZ0rGVs89YdWnOJ+vXfvyxdxzNfyJrX34V/z8Xb85J38ufN3UEhA5AwVLF//T2cYh7pr0+zBHyxcAgWTWVdUsLV+y2p8Pa7tat8IDYk6GxnU5hE7Ij2TusImnpFjLfdUcrTAn4B1LAedL7KEg4mtO9vwR2+JcWftiy4uEfn4QQ0cCGzhG8QqIB6s9W+r6EE0pXtPWeo3ONI4h5nMR9dTbDkECgOfbmmHmNum0H+aDwdVbaYID4EwkIBbIg0GbI4luEX70E5SDMLlwlRsFgqhyjc+p7xcqd5KRJhHtlX3xGliD2sth5gaFnn1WV6XC1kgb1BxGQn+Oy0O1imp24R4UdcE990n8Say0XHbuv0BYYnR8ckvzvRI+21pBhpf+yC4vDOujWYUO2A51mXY0xnOastu6BpL3oD7c1bv2sSa1jxTh9AYzwrsHMIzg4GSTtggDaOitqa8cpCgoHrhljoPev/STBzx8h2i1TgWsp8bxlrcWxsJ0jnwilxLN+rxhJJF1jqcOqu1S88wP/B7BBENVCSVL7Jn2ThJwEeg3l+XiGvBun910BGKL17Bj9zjeQauHZqfn5Uqohm9QzdvbT77cZ0yJrFip71riBNVpplgjnNyTGH9fTs/sg5H88l5KZdWyZdFE6a+6HJegeB0hRr2FtckVi3tjblOjWL005HdJAoj9yKjmqStsp9Jiv0lB9dtQewFd63vIYOmWzHL5Q3Tk21j5l7gLOVhb8/g6SBFRVZXvIEaJEcJ/qHRplXqp8qb1gi0Q5l/6whKnGN5T8g30NjM0nv7jHdTM+7LV36lod4Xilb3nkPIppS/hXYYd5FcHJNzND8gqrFyKRJaSEW9aX14VvxrtecX8N1KBBEmYg6I9ija4e9La14c0vmLGHNkrRpCye3gIh8J7PcguLX6XIB2UNOM3PFVXTaiklm9wazBblus5YXPffcv1D/EObP/K8gjJULoPEJsgQ9gRZBbemOxY7tLfY4ZVqF2VzJ+ZEHXCQzikW1ixPmABMSL3zN/EEmahKo6KmbYzqpqkW38Th2XSdpwaToxJrVsSObvIq5N3dl6PxI5ofIoR9RWbx06o/ERppIaFUYBnuGpowSm8VwAZpXjgibhWTL0+QouUTzeEc+A721LGFmca2E/skOcFkWVoJ8rDFvgzDEV4WMKWy86CPAX3kqYgx3+Dzy4CHcZaQbTOv3MjZgKrYbT+YY44PsAr2WtV1AbqtYHR+0rhCZ20DDTqP06FFhHrLApgyZWRs/fPl+RdH5EOlKOyuimcpdkiXy6swHtgx0abz757FFiFjfI4v23MUrbnmGnbDeAkH7Dy0zzBOtG/Scw6Z5MqodOPHck03Btv3+0qVQRSmOYW4dVg8N9F+p1glWzoQSXqt1y70WjtPPejdULs9ALA8duBm3bPS5uzcZm9ht8YlKlcnFisBfiCrJb7oc7TiKz3W/8g/CA4pgh5Tn8NN9dW3cZKitpb5tdAe70//JmsYB5eDpWp/mPn/LrJgjXAkNft/j+1sO7YWJGiadUKU4a3t7PHwH2va0vLdSKSlbz93QulvfwSPd5PmOcL9dGpNhfTztKveJ09xH2DQU/+U/04z8EhDE2FumFtKyssaJ91/g0C6IXHMFM6yNPQ/w7MLoKv6CliBIRf1W8gEhEexNXy19aPZ+JS1BK4s1UkqpVrhQ/znTvD9BIYSyt6Qa6yUiD8Lr420YZtYJYT/W7/U+RyGANpscf0URe+Hx4Pknp8v3Mcdr9qW7gW5Q1cR43wadtQyGxvo5LueY7Siuqqua/bZ3uWQv7Z16p5H93M4xvDuU+IAYSXgZbILsGZynhtFbx+fEOQBsfKi2lwIh6a4klHemKtcI1YplvI5ruBdYMwvQc0fx012h7/L7QygtDGRuI36N2FuXJDQv4+lh36WGRW5yqcYATng2KDqQ/TtJpLMenYpbf6AG5YD742F/u2sFH24i/wbJR/CfQ5GtrEkBqlCIFJWLbI8g8GcNbnWp75LIwVzJPDxLuw5wxfdk0yWXLl3/Ejv8jC++7RUBlNNZ3ReSHEF2bcuK78mdeSX8WQ1gN+t7Yzr/VTBYk/jtSh+gAITAlNdgss8ssmo2ERT98aVybYMfCO/yxW/B3GhZANDxKWMim0iaiDOD9iOxo1wBB35WHwA4tDDruYu2+27szIxtsRTvt3wbL/S/QwHzC15clMTN9mYF2UKcjq0jgKR/EhhOFBvQiL4TjGZdDczGdkuJ+Uj51ElegK7ftihmQoXn7dly7V3AWJW8le+AGfBFD/iUKN6YCHQCwMmCfNp0IE4ydAUuGwfYIoTWkloCdQTCTfGiL1l201TowJ1M4qyrP+tQEiAE99igTgKrlRq3ehHmy0xseH6gRbnBTc9w/4oKJkCB4sEJZGMzlD1UH8/7JfqxoDaLywloLlAhUP+3OwSmva+ZKZmenzF5yZj8ePpjgMdMjwwIBQsojSzGMrALtjevrGU6AI8sgOk67O1yCC4SFJZodtEDzOn+JQlMDvX8JCmNVsjpA9kaOhhjWqjdp5ktU9yUxkI73pfiOBMNv0kAAAAAAAAAAAAAAAAAAA;fontColor=default;" parent="I0mVf6kvE5d-BuWw-hbC-4" vertex="1">
                    <mxGeometry x="240" y="40" width="160.01" height="90.01" as="geometry"/>
                </mxCell>
                <mxCell id="ZKtJCIpHWaUB74BXMRjj-3" value="" style="endArrow=classic;startArrow=classic;rounded=0;fillColor=#fff2cc;strokeColor=#CCCC00;strokeWidth=3;edgeStyle=orthogonalEdgeStyle;fontColor=default;labelBackgroundColor=default;" parent="I0mVf6kvE5d-BuWw-hbC-4" target="w8FEkciWedbrf-E03l7R-1" edge="1">
                    <mxGeometry width="50" height="50" relative="1" as="geometry">
                        <mxPoint x="793" y="409" as="sourcePoint"/>
                        <mxPoint x="940" y="480" as="targetPoint"/>
                    </mxGeometry>
                </mxCell>
                <mxCell id="ZKtJCIpHWaUB74BXMRjj-7" value="DNS&#xa;&#xa;(Raspberry Pi 3 Model B+)" style="text;strokeColor=none;fillColor=none;align=center;verticalAlign=middle;whiteSpace=wrap;rounded=0;fontSize=14;fontStyle=1;fontColor=default;labelBackgroundColor=default;" parent="I0mVf6kvE5d-BuWw-hbC-4" vertex="1">
                    <mxGeometry x="400" y="560" width="200" height="80" as="geometry"/>
                </mxCell>
                <mxCell id="ZKtJCIpHWaUB74BXMRjj-16" value="" style="endArrow=classic;startArrow=classic;rounded=0;exitX=0.5;exitY=1;exitDx=0;exitDy=0;entryX=0.25;entryY=0;entryDx=0;entryDy=0;fillColor=#dae8fc;strokeColor=#6c8ebf;strokeWidth=3;edgeStyle=orthogonalEdgeStyle;fontColor=default;labelBackgroundColor=default;" parent="I0mVf6kvE5d-BuWw-hbC-4" source="e9BGIbV48YQ-_9oPhCva-9" target="3" edge="1">
                    <mxGeometry width="50" height="50" relative="1" as="geometry">
                        <mxPoint x="390" y="400" as="sourcePoint"/>
                        <mxPoint x="699.9850000000001" y="390.047" as="targetPoint"/>
                        <Array as="points">
                            <mxPoint x="321" y="320"/>
                            <mxPoint x="648" y="320"/>
                        </Array>
                    </mxGeometry>
                </mxCell>
                <mxCell id="ZKtJCIpHWaUB74BXMRjj-26" value="Storage&#xa;&#xa;TrueNAS Scale&#xa;Community Edition" style="text;strokeColor=none;fillColor=none;align=center;verticalAlign=middle;whiteSpace=wrap;rounded=0;fontSize=14;fontStyle=1;fontColor=default;labelBackgroundColor=default;" parent="I0mVf6kvE5d-BuWw-hbC-4" vertex="1">
                    <mxGeometry x="800" y="40" width="200" height="80" as="geometry"/>
                </mxCell>
                <mxCell id="ZKtJCIpHWaUB74BXMRjj-27" value="Homelab&#xa;Compute&#xa;Server&#xa;&#xa;(Beelink SEi12 Mini PC)" style="text;strokeColor=none;fillColor=none;align=center;verticalAlign=middle;whiteSpace=wrap;rounded=0;fontSize=14;fontStyle=1;fontColor=default;labelBackgroundColor=default;" parent="I0mVf6kvE5d-BuWw-hbC-4" vertex="1">
                    <mxGeometry x="400" y="120" width="200" height="160" as="geometry"/>
                </mxCell>
                <mxCell id="3mCOdNbjcWGAG2yCqSXw-6" value="Gateway&#xa;&#xa;(Unifi Cloud Gateway Ultra)" style="text;strokeColor=none;fillColor=none;align=center;verticalAlign=middle;whiteSpace=wrap;rounded=0;fontSize=14;fontStyle=1;fontColor=default;labelBackgroundColor=default;" parent="I0mVf6kvE5d-BuWw-hbC-4" vertex="1">
                    <mxGeometry x="600" y="440" width="200" height="80" as="geometry"/>
                </mxCell>
                <mxCell id="w8FEkciWedbrf-E03l7R-1" value="" style="shape=image;verticalLabelPosition=bottom;labelBackgroundColor=default;verticalAlign=top;aspect=fixed;imageAspect=0;image=https://help.pentanet.com.au/hc/article_attachments/4406528727955/nbn-fttc-ncd.png;fontColor=default;" parent="I0mVf6kvE5d-BuWw-hbC-4" vertex="1">
                    <mxGeometry x="1000" y="520" width="160" height="160" as="geometry"/>
                </mxCell>
                <mxCell id="w8FEkciWedbrf-E03l7R-3" value="Internet Modem" style="text;strokeColor=none;fillColor=none;align=center;verticalAlign=middle;whiteSpace=wrap;rounded=0;fontSize=14;fontStyle=1;fontColor=default;labelBackgroundColor=default;" parent="I0mVf6kvE5d-BuWw-hbC-4" vertex="1">
                    <mxGeometry x="800" y="560" width="200" height="80" as="geometry"/>
                </mxCell>
            </root>
        </mxGraphModel>
    </diagram>
</mxfile>
